<?xml version="1.0" encoding="UTF-8" standalone="no"?>
<!DOCTYPE svg PUBLIC "-//W3C//DTD SVG 1.1//EN" "http://www.w3.org/Graphics/SVG/1.1/DTD/svg11.dtd">
<svg version="1.1" xmlns="http://www.w3.org/2000/svg" xmlns:xlink="http://www.w3.org/1999/xlink" preserveAspectRatio="xMidYMid meet" viewBox="18.388549746581997 119.262 607.2553601959181 183.78308354512058" width="607.26" height="182.78"><defs><path d="M220.58 165.44L222.01 165.89L223.29 166.47L224.4 167.19L225.31 168.03L225.99 168.96L226.42 169.97L226.57 171.04L226.42 172.11L226.36 172.26L226.77 172.29L227.44 172.39L228.06 172.53L228.63 172.7L229.16 172.9L229.65 173.13L230.1 173.39L230.5 173.67L230.87 173.97L231.19 174.28L231.47 174.62L231.71 174.96L231.91 175.32L232.07 175.68L232.19 176.04L232.27 176.4L232.31 176.76L232.32 177.12L232.28 177.47L232.21 177.81L232.1 178.13L231.96 178.44L231.78 178.72L231.54 179L231.22 179.26L230.83 179.51L230.37 179.75L229.83 179.98L229.22 180.2L228.54 180.41L227.79 180.61L226.97 180.8L226.09 180.98L225.13 181.15L224.11 181.31L223.02 181.46L221.87 181.6L220.66 181.73L219.38 181.85L218.04 181.96L216.64 182.06L215.19 182.15L213.67 182.23L212.09 182.3L210.46 182.36L208.78 182.41L207.03 182.45L205.24 182.49L203.39 182.51L201.49 182.52L199.54 182.53L197.6 182.53L195.7 182.52L193.86 182.51L192.08 182.49L190.35 182.47L188.68 182.43L187.06 182.39L185.5 182.34L184 182.28L182.56 182.21L181.18 182.12L179.85 182.02L178.59 181.91L177.39 181.78L176.25 181.64L175.17 181.48L174.16 181.31L173.21 181.11L172.32 180.9L171.5 180.66L170.74 180.41L170.05 180.13L169.42 179.83L168.86 179.51L168.37 179.17L167.95 178.79L167.6 178.39L167.31 177.97L167.09 177.53L166.93 177.1L166.82 176.68L166.76 176.27L166.75 175.87L166.79 175.48L166.88 175.1L167.02 174.74L167.2 174.4L167.42 174.07L167.69 173.76L167.99 173.47L168.33 173.21L168.7 172.96L169.11 172.75L169.55 172.55L170.02 172.39L170.51 172.25L171.04 172.14L171.59 172.07L172.16 172.03L172.75 172.02L173.37 172.04L173.88 172.09L173.73 171.04L173.88 169.97L174.31 168.96L174.99 168.03L175.9 167.19L177.01 166.47L178.29 165.89L179.72 165.44L181.28 165.17L182.94 165.07L184.59 165.17L186.15 165.44L187.58 165.89L188.86 166.47L189.97 167.19L190.88 168.03L191.48 168.85L192.08 168.03L192.99 167.19L194.1 166.47L195.39 165.89L196.82 165.44L198.38 165.17L200.03 165.07L201.69 165.17L203.24 165.44L204.68 165.89L205.96 166.47L207.07 167.19L207.98 168.03L208.66 168.96L208.7 169.05L208.74 168.96L209.42 168.03L210.33 167.19L211.44 166.47L212.72 165.89L214.15 165.44L215.71 165.17L217.37 165.07L219.02 165.17L220.58 165.44Z" id="boFFTkAY"></path><path d="M478.1 187.55L479.54 188L480.82 188.58L481.93 189.3L482.84 190.14L483.52 191.07L483.95 192.08L484.1 193.15L483.95 194.22L483.88 194.37L484.3 194.4L484.96 194.5L485.58 194.64L486.16 194.81L486.69 195.01L487.18 195.24L487.62 195.5L488.03 195.78L488.39 196.08L488.71 196.39L488.99 196.73L489.23 197.07L489.43 197.43L489.59 197.79L489.71 198.15L489.79 198.51L489.84 198.87L489.84 199.23L489.81 199.58L489.74 199.92L489.63 200.24L489.48 200.55L489.3 200.83L489.06 201.11L488.75 201.37L488.36 201.62L487.9 201.86L487.36 202.09L486.75 202.31L486.07 202.52L485.32 202.72L484.5 202.91L483.61 203.09L482.66 203.26L481.64 203.42L480.55 203.57L479.4 203.71L478.18 203.84L476.91 203.95L475.57 204.06L474.17 204.16L472.71 204.26L471.19 204.34L469.62 204.41L467.99 204.47L466.3 204.52L464.56 204.56L462.77 204.6L460.92 204.62L459.02 204.63L457.07 204.64L455.12 204.64L453.23 204.63L451.39 204.62L449.6 204.6L447.87 204.58L446.2 204.54L444.58 204.5L443.03 204.45L441.53 204.39L440.08 204.32L438.7 204.23L437.38 204.13L436.12 204.02L434.91 203.89L433.78 203.75L432.7 203.59L431.68 203.42L430.73 203.22L429.84 203.01L429.02 202.77L428.26 202.52L427.57 202.24L426.95 201.94L426.39 201.62L425.9 201.27L425.48 200.9L425.12 200.5L424.84 200.08L424.62 199.64L424.45 199.21L424.34 198.79L424.28 198.38L424.28 197.98L424.32 197.59L424.41 197.21L424.55 196.85L424.73 196.51L424.95 196.18L425.21 195.87L425.51 195.58L425.85 195.32L426.23 195.07L426.63 194.86L427.07 194.66L427.54 194.5L428.04 194.36L428.56 194.25L429.11 194.18L429.69 194.13L430.28 194.13L430.89 194.15L431.4 194.2L431.26 193.15L431.4 192.08L431.83 191.07L432.51 190.14L433.42 189.3L434.53 188.58L435.82 188L437.25 187.55L438.81 187.28L440.46 187.18L442.11 187.28L443.67 187.55L445.1 188L446.39 188.58L447.5 189.3L448.41 190.14L449.01 190.96L449.61 190.14L450.52 189.3L451.63 188.58L452.91 188L454.35 187.55L455.9 187.28L457.56 187.18L459.21 187.28L460.77 187.55L462.2 188L463.49 188.58L464.6 189.3L465.5 190.14L466.19 191.07L466.22 191.16L466.26 191.07L466.94 190.14L467.85 189.3L468.96 188.58L470.25 188L471.68 187.55L473.24 187.28L474.89 187.18L476.54 187.28L478.1 187.55Z" id="aWNIjLBni"></path><path d="M373.63 187.55L375.07 188L376.35 188.58L377.46 189.3L378.37 190.14L379.05 191.07L379.48 192.08L379.63 193.15L379.48 194.22L379.42 194.37L379.83 194.4L380.49 194.5L381.11 194.64L381.69 194.81L382.22 195.01L382.71 195.24L383.16 195.5L383.56 195.78L383.92 196.08L384.25 196.39L384.53 196.73L384.77 197.07L384.96 197.43L385.12 197.79L385.24 198.15L385.33 198.51L385.37 198.87L385.37 199.23L385.34 199.58L385.27 199.92L385.16 200.24L385.01 200.55L384.83 200.83L384.59 201.11L384.28 201.37L383.89 201.62L383.43 201.86L382.89 202.09L382.28 202.31L381.6 202.52L380.85 202.72L380.03 202.91L379.14 203.09L378.19 203.26L377.17 203.42L376.08 203.57L374.93 203.71L373.71 203.84L372.44 203.95L371.1 204.06L369.7 204.16L368.24 204.26L366.73 204.34L365.15 204.41L363.52 204.47L361.83 204.52L360.09 204.56L358.3 204.6L356.45 204.62L354.55 204.63L352.6 204.64L350.65 204.64L348.76 204.63L346.92 204.62L345.13 204.6L343.4 204.58L341.73 204.54L340.12 204.5L338.56 204.45L337.06 204.39L335.62 204.32L334.23 204.23L332.91 204.13L331.65 204.02L330.45 203.89L329.31 203.75L328.23 203.59L327.22 203.42L326.26 203.22L325.38 203.01L324.55 202.77L323.8 202.52L323.1 202.24L322.48 201.94L321.92 201.62L321.43 201.27L321.01 200.9L320.65 200.5L320.37 200.08L320.15 199.64L319.98 199.21L319.87 198.79L319.82 198.38L319.81 197.98L319.85 197.59L319.94 197.21L320.08 196.85L320.26 196.51L320.48 196.18L320.74 195.87L321.04 195.58L321.38 195.32L321.76 195.07L322.17 194.86L322.6 194.66L323.07 194.5L323.57 194.36L324.1 194.25L324.65 194.18L325.22 194.13L325.81 194.13L326.43 194.15L326.93 194.2L326.79 193.15L326.94 192.08L327.36 191.07L328.04 190.14L328.95 189.3L330.06 188.58L331.35 188L332.78 187.55L334.34 187.28L335.99 187.18L337.65 187.28L339.2 187.55L340.64 188L341.92 188.58L343.03 189.3L343.94 190.14L344.54 190.96L345.14 190.14L346.05 189.3L347.16 188.58L348.44 188L349.88 187.55L351.44 187.28L353.09 187.18L354.74 187.28L356.3 187.55L357.73 188L359.02 188.58L360.13 189.3L361.04 190.14L361.72 191.07L361.76 191.16L361.79 191.07L362.47 190.14L363.38 189.3L364.49 188.58L365.78 188L367.21 187.55L368.77 187.28L370.42 187.18L372.08 187.28L373.63 187.55Z" id="a4bVNGoIZj"></path><path d="M116.7 199.82L118.13 200.26L119.41 200.85L120.52 201.57L121.43 202.41L122.11 203.34L122.54 204.34L122.69 205.42L122.54 206.49L122.48 206.64L122.89 206.67L123.56 206.77L124.18 206.91L124.75 207.08L125.28 207.28L125.77 207.51L126.22 207.76L126.62 208.04L126.99 208.35L127.31 208.66L127.59 209L127.83 209.34L128.03 209.69L128.19 210.05L128.31 210.42L128.39 210.78L128.43 211.14L128.44 211.5L128.4 211.85L128.33 212.19L128.22 212.51L128.08 212.82L127.89 213.1L127.66 213.38L127.34 213.64L126.95 213.89L126.49 214.13L125.95 214.36L125.34 214.58L124.66 214.79L123.91 214.99L123.09 215.18L122.21 215.36L121.25 215.53L120.23 215.69L119.14 215.84L117.99 215.97L116.78 216.1L115.5 216.22L114.16 216.33L112.76 216.43L111.3 216.52L109.79 216.6L108.21 216.68L106.58 216.74L104.9 216.79L103.15 216.83L101.36 216.86L99.51 216.89L97.61 216.9L95.66 216.91L93.71 216.9L91.82 216.9L89.98 216.89L88.2 216.87L86.47 216.84L84.79 216.81L83.18 216.77L81.62 216.72L80.12 216.66L78.68 216.59L77.3 216.5L75.97 216.4L74.71 216.29L73.51 216.16L72.37 216.02L71.29 215.86L70.28 215.69L69.33 215.49L68.44 215.28L67.62 215.04L66.86 214.79L66.17 214.51L65.54 214.21L64.98 213.89L64.49 213.54L64.07 213.17L63.72 212.77L63.43 212.35L63.21 211.91L63.05 211.48L62.94 211.06L62.88 210.65L62.87 210.25L62.91 209.86L63 209.48L63.14 209.12L63.32 208.78L63.54 208.45L63.81 208.14L64.11 207.85L64.45 207.59L64.82 207.34L65.23 207.12L65.67 206.93L66.14 206.77L66.63 206.63L67.16 206.52L67.71 206.45L68.28 206.4L68.87 206.4L69.49 206.42L70 206.47L69.85 205.42L70 204.34L70.43 203.34L71.11 202.41L72.02 201.57L73.12 200.85L74.41 200.26L75.84 199.82L77.4 199.55L79.05 199.45L80.71 199.55L82.27 199.82L83.7 200.26L84.98 200.85L86.09 201.57L87 202.41L87.6 203.23L88.2 202.41L89.11 201.57L90.22 200.85L91.51 200.26L92.94 199.82L94.5 199.55L96.15 199.45L97.8 199.55L99.36 199.82L100.8 200.26L102.08 200.85L103.19 201.57L104.1 202.41L104.78 203.34L104.82 203.43L104.86 203.34L105.54 202.41L106.45 201.57L107.56 200.85L108.84 200.26L110.27 199.82L111.83 199.55L113.48 199.45L115.14 199.55L116.7 199.82Z" id="gGhrVFWOY"></path><path d="M332.22 137.52L333.65 137.97L334.93 138.56L336.04 139.27L336.95 140.11L337.63 141.04L338.06 142.05L338.21 143.12L338.06 144.19L338 144.34L338.41 144.38L339.08 144.47L339.7 144.61L340.27 144.78L340.8 144.98L341.29 145.21L341.74 145.47L342.14 145.75L342.51 146.05L342.83 146.36L343.11 146.7L343.35 147.04L343.55 147.4L343.71 147.76L343.83 148.12L343.91 148.48L343.95 148.84L343.95 149.2L343.92 149.55L343.85 149.89L343.74 150.21L343.6 150.52L343.41 150.81L343.18 151.08L342.86 151.34L342.47 151.59L342.01 151.83L341.47 152.06L340.86 152.28L340.18 152.49L339.43 152.69L338.61 152.88L337.73 153.06L336.77 153.23L335.75 153.39L334.66 153.54L333.51 153.68L332.3 153.81L331.02 153.93L329.68 154.04L328.28 154.14L326.82 154.23L325.31 154.31L323.73 154.38L322.1 154.44L320.42 154.49L318.67 154.53L316.88 154.57L315.03 154.59L313.13 154.6L311.18 154.61L309.23 154.61L307.34 154.6L305.5 154.59L303.72 154.57L301.99 154.55L300.31 154.51L298.7 154.47L297.14 154.42L295.64 154.36L294.2 154.29L292.82 154.2L291.49 154.1L290.23 153.99L289.03 153.87L287.89 153.72L286.81 153.56L285.8 153.39L284.85 153.19L283.96 152.98L283.14 152.75L282.38 152.49L281.69 152.21L281.06 151.91L280.5 151.59L280.01 151.25L279.59 150.87L279.24 150.48L278.95 150.05L278.73 149.61L278.57 149.18L278.46 148.76L278.4 148.35L278.39 147.95L278.43 147.56L278.52 147.18L278.66 146.82L278.84 146.48L279.06 146.15L279.33 145.84L279.63 145.55L279.97 145.29L280.34 145.05L280.75 144.83L281.19 144.63L281.66 144.47L282.15 144.33L282.68 144.22L283.23 144.15L283.8 144.11L284.39 144.1L285.01 144.12L285.52 144.17L285.37 143.12L285.52 142.05L285.95 141.04L286.63 140.11L287.53 139.27L288.64 138.56L289.93 137.97L291.36 137.52L292.92 137.25L294.57 137.15L296.23 137.25L297.78 137.52L299.22 137.97L300.5 138.56L301.61 139.27L302.52 140.11L303.12 140.93L303.72 140.11L304.63 139.27L305.74 138.56L307.03 137.97L308.46 137.52L310.02 137.25L311.67 137.15L313.32 137.25L314.88 137.52L316.32 137.97L317.6 138.56L318.71 139.27L319.62 140.11L320.3 141.04L320.34 141.13L320.38 141.04L321.06 140.11L321.97 139.27L323.08 138.56L324.36 137.97L325.79 137.52L327.35 137.25L329 137.15L330.66 137.25L332.22 137.52Z" id="b9aDiOVA1"></path><path d="M131.93 137.52L133.36 137.97L134.64 138.56L135.75 139.27L136.66 140.11L137.34 141.04L137.77 142.05L137.92 143.12L137.77 144.19L137.71 144.34L138.12 144.38L138.79 144.47L139.41 144.61L139.98 144.78L140.51 144.98L141 145.21L141.45 145.47L141.85 145.75L142.22 146.05L142.54 146.36L142.82 146.7L143.06 147.04L143.26 147.4L143.42 147.76L143.54 148.12L143.62 148.48L143.66 148.84L143.66 149.2L143.63 149.55L143.56 149.89L143.45 150.21L143.31 150.52L143.12 150.81L142.89 151.08L142.57 151.34L142.18 151.59L141.72 151.83L141.18 152.06L140.57 152.28L139.89 152.49L139.14 152.69L138.32 152.88L137.44 153.06L136.48 153.23L135.46 153.39L134.37 153.54L133.22 153.68L132.01 153.81L130.73 153.93L129.39 154.04L127.99 154.14L126.53 154.23L125.02 154.31L123.44 154.38L121.81 154.44L120.13 154.49L118.38 154.53L116.59 154.57L114.74 154.59L112.84 154.6L110.89 154.61L108.94 154.61L107.05 154.6L105.21 154.59L103.43 154.57L101.7 154.55L100.02 154.51L98.41 154.47L96.85 154.42L95.35 154.36L93.91 154.29L92.52 154.2L91.2 154.1L89.94 153.99L88.74 153.87L87.6 153.72L86.52 153.56L85.51 153.39L84.56 153.19L83.67 152.98L82.85 152.75L82.09 152.49L81.4 152.21L80.77 151.91L80.21 151.59L79.72 151.25L79.3 150.87L78.95 150.48L78.66 150.05L78.44 149.61L78.28 149.18L78.16 148.76L78.11 148.35L78.1 147.95L78.14 147.56L78.23 147.18L78.37 146.82L78.55 146.48L78.77 146.15L79.03 145.84L79.34 145.55L79.68 145.29L80.05 145.05L80.46 144.83L80.9 144.63L81.37 144.47L81.86 144.33L82.39 144.22L82.94 144.15L83.51 144.11L84.1 144.1L84.72 144.12L85.23 144.17L85.08 143.12L85.23 142.05L85.66 141.04L86.34 140.11L87.24 139.27L88.35 138.56L89.64 137.97L91.07 137.52L92.63 137.25L94.28 137.15L95.94 137.25L97.49 137.52L98.93 137.97L100.21 138.56L101.32 139.27L102.23 140.11L102.83 140.93L103.43 140.11L104.34 139.27L105.45 138.56L106.74 137.97L108.17 137.52L109.73 137.25L111.38 137.15L113.03 137.25L114.59 137.52L116.03 137.97L117.31 138.56L118.42 139.27L119.33 140.11L120.01 141.04L120.05 141.13L120.09 141.04L120.77 140.11L121.68 139.27L122.79 138.56L124.07 137.97L125.5 137.52L127.06 137.25L128.71 137.15L130.37 137.25L131.93 137.52Z" id="aVn7TCqOG"></path><path d="M480.94 132.34L482.37 132.79L483.66 133.38L484.77 134.09L485.67 134.93L486.36 135.86L486.78 136.87L486.93 137.94L486.78 139.01L486.72 139.16L487.14 139.2L487.8 139.29L488.42 139.43L488.99 139.6L489.52 139.8L490.01 140.03L490.46 140.29L490.86 140.57L491.23 140.87L491.55 141.18L491.83 141.52L492.07 141.86L492.27 142.22L492.43 142.58L492.55 142.94L492.63 143.3L492.67 143.66L492.68 144.02L492.64 144.37L492.57 144.71L492.46 145.03L492.32 145.34L492.14 145.63L491.9 145.9L491.58 146.16L491.19 146.41L490.73 146.65L490.19 146.88L489.59 147.1L488.91 147.31L488.15 147.51L487.34 147.7L486.45 147.88L485.49 148.05L484.47 148.21L483.38 148.36L482.23 148.5L481.02 148.63L479.74 148.75L478.4 148.86L477 148.96L475.55 149.05L474.03 149.13L472.45 149.2L470.82 149.26L469.14 149.31L467.4 149.35L465.6 149.39L463.75 149.41L461.85 149.42L459.9 149.43L457.96 149.43L456.06 149.42L454.22 149.41L452.44 149.39L450.71 149.37L449.04 149.33L447.42 149.29L445.86 149.24L444.36 149.18L442.92 149.11L441.54 149.02L440.21 148.92L438.95 148.81L437.75 148.69L436.61 148.54L435.53 148.38L434.52 148.21L433.57 148.01L432.68 147.8L431.86 147.57L431.1 147.31L430.41 147.03L429.78 146.74L429.22 146.41L428.73 146.07L428.31 145.69L427.96 145.3L427.67 144.87L427.45 144.43L427.29 144L427.18 143.58L427.12 143.17L427.11 142.77L427.16 142.38L427.25 142L427.38 141.64L427.56 141.3L427.78 140.97L428.05 140.66L428.35 140.37L428.69 140.11L429.06 139.87L429.47 139.65L429.91 139.45L430.38 139.29L430.88 139.15L431.4 139.04L431.95 138.97L432.52 138.93L433.12 138.92L433.73 138.94L434.24 138.99L434.09 137.94L434.24 136.87L434.67 135.86L435.35 134.93L436.26 134.09L437.37 133.38L438.65 132.79L440.08 132.34L441.64 132.07L443.3 131.97L444.95 132.07L446.51 132.34L447.94 132.79L449.23 133.38L450.33 134.09L451.24 134.93L451.84 135.75L452.44 134.93L453.35 134.09L454.46 133.38L455.75 132.79L457.18 132.34L458.74 132.07L460.39 131.97L462.05 132.07L463.6 132.34L465.04 132.79L466.32 133.38L467.43 134.09L468.34 134.93L469.02 135.86L469.06 135.95L469.1 135.86L469.78 134.93L470.69 134.09L471.8 133.38L473.08 132.79L474.52 132.34L476.07 132.07L477.73 131.97L479.38 132.07L480.94 132.34Z" id="b2qAoWFBLH"></path><path d="M154.3 202.56L177.37 257.93L131.22 257.93L85.08 257.93L108.15 202.56L131.22 147.19L154.3 202.56Z" id="aTwM8BYF9"></path><path d="M177.37 257.93L131.23 257.93L131.23 147.19L154.3 202.56L177.37 257.93Z" id="d1cDLV064I"></path><path d="M276.45 186.79L294.62 248.83L258.29 248.83L221.97 248.83L240.13 186.79L258.29 124.75L276.45 186.79Z" id="b6zWGTSWw8"></path><path d="M294.62 248.83L258.29 248.83L258.29 124.75L276.45 186.79L294.62 248.83Z" id="coSZCWsHH"></path><path d="M230.36 222.22L244.28 253.25L216.43 253.25L188.58 253.25L202.51 222.22L216.43 191.19L230.36 222.22Z" id="bsjBcIOfe"></path><path d="M244.28 253.25L216.43 253.25L216.43 191.2L230.36 222.22L244.28 253.25Z" id="amHmcfkAE"></path><path d="M211.92 261.5C216.93 263.45 192.4 268.48 169.34 268.48C146.28 268.48 105.6 264.82 122.16 259.02C138.72 253.23 148.61 217.6 171.67 217.6C194.73 217.6 206.92 259.56 211.92 261.5Z" id="a7IGDScwhF"></path><path d="M175.05 217.9L176.68 218.27L178.26 218.78L179.81 219.4L181.33 220.15L182.8 221.01L184.23 221.98L185.63 223.04L186.98 224.18L188.3 225.41L189.59 226.71L190.84 228.08L192.05 229.5L193.22 230.98L194.36 232.49L195.46 234.04L196.53 235.62L197.57 237.21L198.57 238.82L199.53 240.43L200.47 242.04L201.37 243.63L202.23 245.21L203.07 246.76L203.87 248.27L204.64 249.74L205.38 251.16L206.09 252.53L206.77 253.82L207.41 255.05L208.03 256.19L208.62 257.24L209.17 258.2L209.7 259.06L210.2 259.8L210.68 260.42L211.12 260.92L211.54 261.28L211.92 261.5L212.25 261.65L212.46 261.82L212.57 261.99L212.57 262.17L212.48 262.36L212.29 262.56L212.01 262.76L211.63 262.98L211.17 263.19L210.63 263.41L210 263.64L209.29 263.87L208.51 264.1L207.66 264.33L206.73 264.57L205.74 264.8L204.68 265.03L203.57 265.27L202.39 265.5L201.16 265.72L199.87 265.95L198.54 266.17L197.16 266.38L195.73 266.59L194.27 266.79L192.76 266.98L191.23 267.17L189.65 267.34L188.05 267.51L186.43 267.67L184.78 267.81L183.1 267.94L181.42 268.06L179.71 268.17L178 268.26L176.27 268.34L174.54 268.4L172.81 268.45L171.07 268.47L169.34 268.48L168.94 268.48L168.94 217.78L169.96 217.66L171.67 217.6L173.38 217.68L175.05 217.9Z" id="a1kxQWwCCf"></path><path d="M287.47 266.1C307.88 275.75 271.42 266.1 248.35 266.1C225.29 266.1 196.94 274.42 207.34 267.86C217.73 261.29 223.57 208.33 246.64 208.33C269.7 208.33 267.06 256.45 287.47 266.1Z" id="b1o0BRZcXP"></path><path d="M249.91 208.68L251.41 209.11L252.83 209.69L254.17 210.42L255.44 211.29L256.64 212.29L257.78 213.41L258.86 214.65L259.88 216L260.85 217.45L261.77 218.99L262.65 220.61L263.5 222.3L264.31 224.07L265.09 225.89L265.86 227.76L266.6 229.67L267.33 231.62L268.05 233.6L268.76 235.59L269.48 237.59L270.19 239.6L270.92 241.6L271.66 243.58L272.42 245.54L273.2 247.48L274.01 249.37L274.85 251.21L275.72 253L276.64 254.73L277.6 256.39L278.61 257.97L279.68 259.45L280.8 260.85L281.99 262.14L283.25 263.32L284.58 264.38L285.98 265.31L287.47 266.1L288.9 266.79L290.12 267.41L291.13 267.96L291.96 268.44L292.6 268.87L293.06 269.24L293.34 269.55L293.46 269.81L293.41 270.01L293.21 270.17L292.87 270.28L292.38 270.36L291.76 270.39L291.01 270.38L290.15 270.34L289.16 270.27L288.07 270.17L286.88 270.04L285.59 269.89L284.22 269.72L282.76 269.53L281.23 269.32L279.63 269.11L277.96 268.88L276.25 268.64L274.48 268.41L272.67 268.16L270.83 267.92L268.96 267.69L267.06 267.46L265.16 267.24L263.24 267.03L261.32 266.83L259.4 266.65L257.49 266.5L255.6 266.36L253.74 266.25L251.9 266.17L250.11 266.12L248.35 266.1L246.61 266.12L245.35 266.15L245.35 208.41L246.64 208.33L248.32 208.42L249.91 208.68Z" id="a1yd7cf3E9"></path><path d="M135.08 268.99C135.08 284.41 123.64 276.36 100.58 276.36C77.52 276.36 40.31 277.7 46.85 266.13C53.4 254.55 73.1 199.67 96.17 199.67C119.23 199.67 135.08 253.57 135.08 268.99Z" id="b1rHzP0pPU"></path><path d="M99.57 200.06L101.23 200.54L102.86 201.19L104.46 202.01L106.03 202.99L107.56 204.12L109.07 205.39L110.54 206.8L111.98 208.33L113.38 209.97L114.74 211.72L116.07 213.57L117.36 215.51L118.61 217.53L119.83 219.63L121 221.78L122.13 223.99L123.22 226.25L124.27 228.54L125.27 230.87L126.24 233.21L127.15 235.57L128.02 237.92L128.85 240.28L129.62 242.61L130.35 244.93L131.03 247.21L131.66 249.46L132.24 251.65L132.77 253.79L133.24 255.86L133.67 257.85L134.04 259.76L134.35 261.58L134.61 263.3L134.81 264.91L134.96 266.4L135.05 267.76L135.08 268.99L135.06 270.1L134.99 271.13L134.88 272.08L134.73 272.94L134.54 273.73L134.3 274.45L134.02 275.1L133.7 275.68L133.34 276.19L132.93 276.65L132.48 277.04L131.98 277.38L131.45 277.67L130.87 277.91L130.24 278.1L129.58 278.25L128.87 278.35L128.11 278.42L127.32 278.45L126.48 278.46L125.59 278.43L124.67 278.38L123.7 278.3L122.68 278.2L121.63 278.09L120.53 277.96L119.39 277.83L118.2 277.68L116.97 277.53L115.7 277.37L114.38 277.22L113.02 277.07L111.62 276.93L110.17 276.79L108.68 276.67L107.15 276.57L105.57 276.48L103.95 276.41L102.29 276.37L100.58 276.36L98.82 276.36L97.02 276.36L95.76 276.37L95.76 199.69L96.17 199.67L97.88 199.77L99.57 200.06Z" id="a2aWBzM9Hu"></path><path d="M214.38 234.98L214.38 277.92L213.76 277.88L211.63 277.72L209.46 277.53L207.27 277.29L205.07 277.02L202.86 276.72L200.64 276.38L198.44 276.02L196.24 275.64L194.07 275.23L191.93 274.81L189.82 274.36L187.76 273.9L185.76 273.43L183.81 272.96L181.93 272.47L180.13 271.98L178.41 271.49L176.78 271L175.25 270.51L173.82 270.03L172.51 269.55L171.32 269.09L170.26 268.64L169.34 268.21L168.56 267.79L167.93 267.4L167.47 267.02L167.17 266.68L167.05 266.36L167.11 266.08L167.36 265.83L167.8 265.61L168.46 265.44L169.33 265.3L170.41 265.21L171.73 265.16L173.29 265.17L174.9 265.14L176.41 265L177.8 264.76L179.1 264.41L180.3 263.98L181.42 263.45L182.45 262.85L183.41 262.17L184.3 261.42L185.12 260.6L185.89 259.73L186.61 258.8L187.29 257.83L187.93 256.81L188.54 255.76L189.12 254.68L189.69 253.58L190.24 252.46L190.79 251.33L191.34 250.19L191.9 249.04L192.47 247.91L193.06 246.78L193.67 245.67L194.32 244.59L195.01 243.53L195.74 242.51L196.53 241.52L197.37 240.58L198.27 239.7L199.25 238.87L200.3 238.1L201.44 237.4L202.66 236.78L203.98 236.23L205.41 235.77L206.94 235.41L208.59 235.14L210.35 234.97L212.25 234.92L214.13 234.96L214.38 234.98Z" id="a2xgBZiJs4"></path><path d="M216.19 235.08L217.77 235.28L219.21 235.55L220.51 235.89L221.69 236.29L222.75 236.75L223.7 237.27L224.54 237.84L225.29 238.46L225.94 239.12L226.51 239.82L227 240.55L227.43 241.32L227.79 242.11L228.09 242.93L228.35 243.76L228.57 244.61L228.75 245.47L228.9 246.33L229.03 247.2L229.16 248.07L229.27 248.93L229.39 249.78L229.51 250.61L229.65 251.43L229.81 252.22L230 252.99L230.23 253.73L230.5 254.43L230.82 255.09L231.2 255.71L231.65 256.28L232.16 256.8L232.76 257.27L233.44 257.68L234.21 258.02L235.09 258.29L236.07 258.49L237.17 258.62L237.43 258.61L237.71 258.55L238 258.44L238.29 258.28L238.6 258.07L238.91 257.83L239.24 257.55L239.57 257.24L239.92 256.89L240.28 256.52L240.66 256.12L241.05 255.71L241.45 255.28L241.87 254.83L242.3 254.38L242.75 253.92L243.21 253.46L243.69 252.99L244.19 252.53L244.71 252.08L245.25 251.64L245.81 251.21L246.38 250.8L246.98 250.41L247.6 250.04L248.24 249.7L248.9 249.4L249.58 249.12L250.29 248.89L251.02 248.69L251.78 248.54L252.56 248.44L253.37 248.39L254.2 248.39L255.06 248.45L255.95 248.57L256.87 248.76L257.81 249.02L258.79 249.34L259.79 249.75L260.79 250.2L261.75 250.68L262.67 251.18L263.56 251.7L264.41 252.25L265.22 252.81L265.99 253.4L266.72 253.99L267.42 254.61L268.08 255.24L268.7 255.88L269.29 256.53L269.84 257.19L270.36 257.86L270.84 258.54L271.28 259.23L271.69 259.91L272.07 260.61L272.4 261.3L272.71 261.99L272.98 262.69L273.21 263.38L273.41 264.07L273.58 264.75L273.71 265.43L273.81 266.1L273.88 266.76L273.91 267.41L273.91 268.04L273.88 268.67L273.81 269.28L273.72 269.87L273.59 270.45L273.43 271.01L273.23 271.55L273.01 272.07L272.75 272.57L272.47 273.04L272.15 273.49L271.8 273.91L271.18 274.53L270.47 275.11L269.67 275.64L268.81 276.13L267.87 276.58L266.86 276.98L265.78 277.35L264.65 277.67L263.46 277.96L262.21 278.22L260.92 278.44L259.58 278.64L258.2 278.8L256.79 278.94L255.34 279.04L253.86 279.13L252.36 279.19L250.84 279.23L249.3 279.25L247.75 279.25L246.19 279.24L244.62 279.21L243.06 279.17L241.49 279.12L239.94 279.06L238.39 278.99L236.87 278.91L235.36 278.83L233.87 278.75L232.41 278.66L230.99 278.58L229.59 278.49L228.24 278.41L226.93 278.34L225.67 278.27L224.46 278.21L223.31 278.17L222.21 278.13L221.18 278.11L220.22 278.1L218.23 278.07L216.18 278L214.09 277.88L212.58 277.77L212.58 234.92L214.46 234.96L216.19 235.08Z" id="a4O1Z1UheG"></path><path d="M158.95 266.14C174.36 267.3 155.83 278.1 129.68 278.1C103.54 278.1 60.75 267.3 83.08 267.68C105.42 268.06 97.06 225.88 123.2 225.88C149.35 225.88 143.55 264.98 158.95 266.14Z" id="c2DKPKPOjI"></path><path d="M128.57 226.5L130.14 226.97L131.61 227.56L132.99 228.26L134.28 229.06L135.48 229.95L136.6 230.94L137.65 232L138.63 233.15L139.54 234.35L140.4 235.62L141.19 236.94L141.94 238.31L142.64 239.72L143.31 241.15L143.94 242.61L144.53 244.09L145.11 245.57L145.66 247.06L146.2 248.55L146.72 250.02L147.24 251.47L147.77 252.89L148.29 254.28L148.83 255.63L149.38 256.93L149.95 258.18L150.55 259.36L151.17 260.47L151.83 261.51L152.53 262.46L153.27 263.32L154.07 264.08L154.92 264.73L155.82 265.27L156.8 265.69L157.84 265.98L158.95 266.14L160.05 266.24L161.01 266.38L161.86 266.55L162.58 266.76L163.19 266.99L163.69 267.24L164.07 267.52L164.34 267.83L164.5 268.15L164.56 268.5L164.51 268.86L164.37 269.23L164.12 269.62L163.79 270.02L163.36 270.43L162.84 270.85L162.23 271.27L161.53 271.7L160.76 272.12L159.9 272.55L158.97 272.98L157.96 273.4L156.87 273.81L155.72 274.22L154.5 274.62L153.21 275L151.86 275.38L150.45 275.73L148.98 276.07L147.45 276.39L145.88 276.69L144.25 276.96L142.57 277.21L140.85 277.44L139.08 277.63L137.27 277.79L135.43 277.92L133.55 278.02L131.63 278.08L129.68 278.1L127.69 278.08L125.8 278.02L125.8 226.03L126.89 226.16L128.57 226.5Z" id="aiMrnihbn"></path><path d="M214 274.84C240.19 279.97 196.26 278.44 172.98 278.44C149.71 278.44 106.93 282.66 129.66 274.84C152.38 267.02 145.47 236.27 168.75 236.27C192.02 236.27 187.81 269.71 214 274.84Z" id="a25TxTdgpi"></path><path d="M173.19 236.49L174.7 236.78L176.12 237.19L177.45 237.69L178.72 238.29L179.91 238.99L181.03 239.76L182.1 240.62L183.11 241.55L184.07 242.55L184.99 243.61L185.87 244.72L186.72 245.89L187.54 247.1L188.34 248.34L189.13 249.62L189.9 250.93L190.67 252.26L191.44 253.61L192.21 254.96L192.99 256.32L193.79 257.67L194.62 259.02L195.46 260.36L196.35 261.67L197.27 262.96L198.23 264.22L199.24 265.44L200.31 266.62L201.43 267.75L202.63 268.83L203.89 269.85L205.23 270.8L206.65 271.68L208.15 272.49L209.75 273.21L211.45 273.84L213.25 274.37L215.15 274.81L216.99 275.18L218.57 275.53L219.9 275.86L221 276.16L221.87 276.44L222.51 276.7L222.95 276.94L223.18 277.15L223.22 277.35L223.07 277.54L222.74 277.7L222.24 277.85L221.59 277.98L220.78 278.1L219.82 278.2L218.73 278.29L217.52 278.37L216.18 278.44L214.74 278.49L213.2 278.53L211.56 278.57L209.84 278.59L208.04 278.61L206.17 278.62L204.25 278.62L202.28 278.62L200.26 278.61L198.21 278.6L196.14 278.59L194.05 278.57L191.95 278.55L189.86 278.53L187.77 278.51L185.7 278.49L183.66 278.47L181.65 278.45L179.69 278.43L177.77 278.42L175.92 278.41L174.14 278.41L172.36 278.42L170.71 278.44L170.71 236.27L171.6 236.31L173.19 236.49Z" id="bLlXiAnbw"></path><path d="M80.21 236.42L81.02 236.73L81.22 236.83L81.22 276.18L79.92 276.19L77.94 276.21L76.02 276.22L74.2 276.22L72.46 276.23L71.34 276.23L70.21 276.26L69.05 276.29L67.88 276.33L66.7 276.39L65.51 276.46L64.3 276.53L63.09 276.61L61.87 276.7L60.65 276.79L59.42 276.88L58.2 276.98L56.97 277.08L55.74 277.18L54.52 277.28L53.3 277.37L52.09 277.47L50.89 277.56L49.69 277.64L48.51 277.72L47.35 277.79L46.19 277.85L45.06 277.91L43.94 277.95L42.84 277.98L41.77 277.99L40.71 278L39.69 277.98L38.69 277.95L37.71 277.91L36.77 277.84L35.86 277.76L34.98 277.65L34.14 277.52L33.33 277.37L32.56 277.19L31.84 276.99L31.15 276.77L30.51 276.51L29.91 276.23L29.63 276.03L29.4 275.73L29.2 275.35L29.04 274.89L28.93 274.36L28.85 273.76L28.81 273.1L28.81 272.39L28.84 271.62L28.91 270.82L29.01 269.97L29.15 269.1L29.33 268.2L29.53 267.29L29.77 266.36L30.05 265.43L30.35 264.5L30.69 263.57L31.06 262.66L31.46 261.77L31.89 260.9L32.34 260.06L32.83 259.26L33.34 258.5L33.89 257.8L34.45 257.15L35.05 256.56L35.67 256.04L36.32 255.59L36.99 255.23L37.68 254.95L38.4 254.76L39.14 254.68L39.91 254.69L40.69 254.82L41.5 255.07L42.33 255.44L43.17 255.94L44.04 256.58L44.93 257.36L45.8 258.13L46.63 258.74L47.42 259.2L48.17 259.52L48.88 259.7L49.57 259.76L50.23 259.69L50.86 259.51L51.48 259.22L52.08 258.83L52.66 258.35L53.23 257.79L53.8 257.14L54.36 256.42L54.92 255.64L55.49 254.8L56.06 253.91L56.64 252.98L57.23 252.02L57.84 251.02L58.47 250L59.13 248.97L59.81 247.94L60.51 246.9L61.26 245.87L62.04 244.85L62.85 243.86L63.71 242.89L64.62 241.97L65.58 241.08L66.59 240.24L67.66 239.47L68.78 238.75L69.97 238.11L71.23 237.55L72.56 237.07L73.96 236.69L75.43 236.41L76.99 236.23L78.63 236.17L79.41 236.24L80.21 236.42ZM127.91 273.41L128.41 273.56L128.69 273.7L128.76 273.84L128.62 273.97L128.29 274.1L127.77 274.23L127.08 274.36L126.48 274.44L126.48 273.15L127.18 273.26L127.91 273.41Z" id="a3WHjEM3uf"></path><path d="M80.37 236.42L81.17 236.73L81.99 237.14L82.82 237.66L83.66 238.28L84.51 238.98L85.38 239.78L86.26 240.65L87.16 241.6L88.07 242.61L89 243.68L89.94 244.81L90.9 245.98L91.87 247.2L92.87 248.45L93.88 249.73L94.91 251.04L95.97 252.36L97.04 253.69L98.13 255.02L99.25 256.35L100.38 257.68L101.54 258.99L102.72 260.27L103.93 261.53L105.16 262.76L106.42 263.95L107.7 265.09L109.01 266.18L110.34 267.21L111.7 268.17L113.09 269.06L114.51 269.88L115.96 270.61L117.43 271.25L118.94 271.8L120.48 272.24L122.05 272.58L123.65 272.8L125.13 272.96L126.36 273.11L127.33 273.26L128.07 273.41L128.57 273.56L128.85 273.7L128.91 273.84L128.78 273.97L128.45 274.1L127.93 274.23L127.24 274.36L126.38 274.48L125.36 274.59L124.2 274.71L122.89 274.82L121.46 274.92L119.91 275.03L118.25 275.13L116.49 275.22L114.63 275.31L112.69 275.4L110.68 275.48L108.61 275.56L106.48 275.63L104.31 275.7L102.1 275.77L99.86 275.83L97.61 275.89L95.35 275.94L93.09 275.99L90.84 276.04L88.61 276.08L86.41 276.11L84.25 276.14L82.14 276.17L80.08 276.19L78.78 276.2L78.78 236.17L79.57 236.24L80.37 236.42Z" id="fqgFyWPHX"></path><path d="M142.42 173.24L141.82 173.32L141.52 173.29L141.23 173.19L140.95 173.03L140.68 172.82L140.38 172.57L140.07 172.31L139.73 172.03L139.34 171.77L138.9 171.52L138.39 171.3L137.81 171.14L137.15 171.03L136.4 171.01L135.64 171.06L134.99 171.2L134.41 171.41L133.92 171.66L133.49 171.95L133.11 172.26L132.79 172.58L132.5 172.89L132.24 173.18L132 173.43L131.76 173.62L131.53 173.75L131.28 173.8L131 173.74L130.68 173.59L130.34 173.35L129.98 173.05L129.58 172.71L129.15 172.34L128.69 171.96L128.2 171.6L127.67 171.26L127.11 170.97L126.51 170.74L125.87 170.6L125.2 170.57L124.56 170.64L124.01 170.8L123.55 171.05L123.16 171.35L122.84 171.69L122.56 172.06L122.32 172.43L122.1 172.79L121.9 173.12L121.69 173.41L121.47 173.63L121.23 173.76L120.95 173.8L120.43 173.7L119.95 173.5L130.36 147.14L131.39 145.11L142.5 173.21L142.42 173.24Z" id="bIfuEB2E"></path><path d="M266.23 150.49L265.96 150.46L265.71 150.32L265.47 150.1L265.22 149.82L264.95 149.51L264.64 149.18L264.29 148.87L263.88 148.59L263.4 148.37L262.84 148.22L262.18 148.18L261.52 148.26L260.97 148.44L260.49 148.71L260.09 149.04L259.75 149.41L259.47 149.79L259.22 150.15L258.99 150.47L258.79 150.74L258.58 150.91L258.36 150.97L258.11 150.9L257.83 150.69L257.52 150.37L257.18 149.98L256.8 149.55L256.4 149.1L255.96 148.68L255.48 148.3L254.97 147.99L254.42 147.8L253.82 147.74L253.26 147.84L252.8 148.06L252.43 148.38L252.12 148.77L251.87 149.2L251.66 149.64L251.47 150.06L251.29 150.43L251.1 150.73L250.89 150.92L250.65 150.97L250.2 150.85L249.91 150.66L257.68 124.32L258.45 122.28L266.74 150.39L266.23 150.49Z" id="a4tmiWeTm9"></path><path d="M587.76 172.8L589.19 173.25L590.48 173.83L591.59 174.55L592.5 175.39L593.18 176.32L593.61 177.32L593.76 178.4L593.61 179.47L593.54 179.62L593.96 179.65L594.62 179.75L595.24 179.89L595.82 180.06L596.35 180.26L596.84 180.49L597.28 180.75L597.69 181.03L598.05 181.33L598.37 181.64L598.65 181.98L598.89 182.32L599.09 182.67L599.25 183.03L599.37 183.4L599.45 183.76L599.5 184.12L599.5 184.48L599.47 184.83L599.4 185.17L599.29 185.49L599.14 185.8L598.96 186.08L598.72 186.36L598.41 186.62L598.02 186.87L597.55 187.11L597.02 187.34L596.41 187.56L595.73 187.77L594.98 187.97L594.16 188.16L593.27 188.34L592.32 188.51L591.3 188.67L590.21 188.82L589.06 188.96L587.84 189.08L586.57 189.2L585.23 189.31L583.83 189.41L582.37 189.5L580.85 189.59L579.28 189.66L577.65 189.72L575.96 189.77L574.22 189.81L572.42 189.84L570.58 189.87L568.68 189.88L566.73 189.89L564.78 189.89L562.89 189.88L561.05 189.87L559.26 189.85L557.53 189.82L555.86 189.79L554.24 189.75L552.69 189.7L551.18 189.64L549.74 189.57L548.36 189.48L547.04 189.38L545.78 189.27L544.57 189.14L543.43 189L542.36 188.84L541.34 188.67L540.39 188.47L539.5 188.26L538.68 188.02L537.92 187.77L537.23 187.49L536.61 187.19L536.05 186.87L535.56 186.52L535.14 186.15L534.78 185.75L534.5 185.33L534.28 184.89L534.11 184.46L534 184.04L533.94 183.63L533.94 183.23L533.98 182.84L534.07 182.46L534.21 182.1L534.39 181.76L534.61 181.43L534.87 181.12L535.17 180.83L535.51 180.57L535.89 180.32L536.29 180.11L536.73 179.91L537.2 179.75L537.7 179.61L538.22 179.5L538.77 179.43L539.35 179.38L539.94 179.38L540.55 179.4L541.06 179.45L540.91 178.4L541.06 177.32L541.49 176.32L542.17 175.39L543.08 174.55L544.19 173.83L545.48 173.25L546.91 172.8L548.47 172.53L550.12 172.43L551.77 172.53L553.33 172.8L554.76 173.25L556.05 173.83L557.16 174.55L558.07 175.39L558.67 176.21L559.27 175.39L560.18 174.55L561.29 173.83L562.57 173.25L564.01 172.8L565.56 172.53L567.22 172.43L568.87 172.53L570.43 172.8L571.86 173.25L573.15 173.83L574.26 174.55L575.16 175.39L575.85 176.32L575.88 176.41L575.92 176.32L576.6 175.39L577.51 174.55L578.62 173.83L579.91 173.25L581.34 172.8L582.9 172.53L584.55 172.43L586.2 172.53L587.76 172.8Z" id="b3CFUYRxIS"></path><path d="M224.7 207.87L224.38 207.83L224.07 207.7L223.77 207.5L223.44 207.27L223.07 207.01L222.62 206.77L222.08 206.57L221.42 206.44L220.63 206.4L219.83 206.47L219.18 206.64L218.65 206.87L218.22 207.15L217.86 207.45L217.57 207.72L217.3 207.96L217.05 208.12L216.78 208.18L216.46 208.11L216.11 207.91L215.7 207.63L215.25 207.3L214.76 206.95L214.2 206.63L213.6 206.36L212.93 206.17L212.21 206.12L211.54 206.2L211.01 206.4L210.59 206.69L210.27 207.02L210.01 207.36L209.78 207.68L209.55 207.95L209.31 208.12L209.02 208.18L208.46 208.06L208.27 207.97L216.09 191.18L216.87 189.89L225.21 207.8L224.7 207.87Z" id="g14LkxWFPo"></path><path d="M565.76 204.64L588.83 260.01L542.68 260.01L496.54 260.01L519.61 204.64L542.68 149.27L565.76 204.64Z" id="b2edobHxG7"></path><path d="M588.83 260.01L542.69 260.01L542.69 149.27L565.76 204.64L588.83 260.01Z" id="f2hjvpuVd"></path><path d="M342.27 200.09L365.34 255.46L319.2 255.46L273.05 255.46L296.12 200.09L319.2 144.72L342.27 200.09Z" id="bC9j0Lfsz"></path><path d="M365.34 255.46L319.2 255.46L319.2 144.73L342.27 200.09L365.34 255.46Z" id="d8rhq3kaS"></path><path d="M464.43 193.21L482.59 264.14L446.26 264.14L409.94 264.14L428.1 193.21L446.26 122.28L464.43 193.21Z" id="i34lR8KSaV"></path><path d="M482.59 264.14L446.26 264.14L446.26 122.29L464.43 193.21L482.59 264.14Z" id="g1NaRQdztn"></path><path d="M418.33 219.76L432.25 250.79L404.4 250.79L376.55 250.79L390.48 219.76L404.4 188.73L418.33 219.76Z" id="a1EaC97rwT"></path><path d="M432.25 250.79L404.4 250.79L404.4 188.73L418.33 219.76L432.25 250.79Z" id="a45yfveGuQ"></path><path d="M399.9 259.48C404.9 261.42 380.37 266.46 357.31 266.46C334.25 266.46 293.57 262.8 310.13 257C326.69 251.21 336.58 215.58 359.64 215.58C382.7 215.58 394.89 257.54 399.9 259.48Z" id="a35KhjCdB4"></path><path d="M363.02 215.88L364.65 216.25L366.24 216.75L367.79 217.38L369.3 218.13L370.77 218.99L372.2 219.96L373.6 221.01L374.96 222.16L376.28 223.39L377.56 224.69L378.81 226.06L380.02 227.48L381.19 228.95L382.33 230.47L383.43 232.02L384.5 233.6L385.54 235.19L386.54 236.8L387.51 238.41L388.44 240.02L389.34 241.61L390.2 243.19L391.04 244.73L391.84 246.25L392.61 247.72L393.35 249.14L394.06 250.5L394.74 251.8L395.38 253.02L396 254.17L396.59 255.22L397.15 256.18L397.67 257.04L398.17 257.78L398.65 258.4L399.09 258.9L399.51 259.26L399.9 259.48L400.22 259.63L400.43 259.79L400.54 259.97L400.54 260.15L400.45 260.34L400.26 260.54L399.98 260.74L399.6 260.95L399.14 261.17L398.6 261.39L397.97 261.62L397.26 261.85L396.48 262.08L395.63 262.31L394.7 262.54L393.71 262.78L392.65 263.01L391.54 263.24L390.36 263.47L389.13 263.7L387.84 263.92L386.51 264.14L385.13 264.36L383.71 264.56L382.24 264.77L380.74 264.96L379.2 265.14L377.63 265.32L376.02 265.49L374.4 265.64L372.75 265.79L371.08 265.92L369.39 266.04L367.68 266.15L365.97 266.24L364.24 266.32L362.51 266.38L360.78 266.42L359.04 266.45L357.31 266.46L356.91 266.46L356.91 215.76L357.93 215.64L359.64 215.58L361.35 215.65L363.02 215.88Z" id="b3pCzA3fSl"></path><path d="M475.44 264.08C495.86 273.73 459.39 264.08 436.32 264.08C413.26 264.08 384.91 272.4 395.31 265.84C405.71 259.27 411.54 206.31 434.61 206.31C457.67 206.31 455.03 254.43 475.44 264.08Z" id="b28LCJctzO"></path><path d="M437.88 206.66L439.38 207.08L440.8 207.67L442.15 208.4L443.42 209.26L444.62 210.27L445.75 211.39L446.83 212.63L447.85 213.98L448.82 215.43L449.74 216.96L450.62 218.58L451.47 220.28L452.28 222.04L453.07 223.87L453.83 225.74L454.57 227.65L455.3 229.6L456.02 231.58L456.73 233.57L457.45 235.57L458.17 237.58L458.89 239.58L459.63 241.56L460.39 243.52L461.17 245.45L461.98 247.35L462.82 249.19L463.69 250.98L464.61 252.71L465.57 254.37L466.58 255.94L467.65 257.43L468.77 258.83L469.96 260.12L471.22 261.29L472.55 262.35L473.95 263.28L475.44 264.08L476.87 264.77L478.09 265.38L479.11 265.94L479.93 266.42L480.57 266.85L481.03 267.21L481.31 267.53L481.43 267.78L481.38 267.99L481.19 268.15L480.84 268.26L480.35 268.33L479.73 268.36L478.99 268.36L478.12 268.32L477.13 268.25L476.04 268.14L474.85 268.02L473.56 267.87L472.19 267.7L470.73 267.51L469.2 267.3L467.6 267.08L465.94 266.86L464.22 266.62L462.45 266.38L460.65 266.14L458.8 265.9L456.93 265.66L455.04 265.43L453.13 265.21L451.21 265L449.29 264.81L447.37 264.63L445.46 264.47L443.57 264.34L441.71 264.23L439.87 264.15L438.08 264.1L436.32 264.08L434.58 264.09L433.32 264.13L433.32 206.38L434.61 206.31L436.29 206.4L437.88 206.66Z" id="a4O3dLhZB"></path><path d="M532.66 275.63C532.66 291.06 521.22 283 498.16 283C475.1 283 437.89 284.34 444.44 272.77C450.98 261.2 470.69 206.31 493.75 206.31C516.81 206.31 532.66 260.21 532.66 275.63Z" id="dagihv5OoN"></path><path d="M497.15 206.7L498.81 207.18L500.44 207.83L502.04 208.65L503.61 209.64L505.15 210.77L506.65 212.04L508.12 213.44L509.56 214.97L510.96 216.62L512.32 218.37L513.65 220.22L514.94 222.16L516.19 224.18L517.41 226.27L518.58 228.42L519.71 230.63L520.8 232.89L521.85 235.19L522.86 237.51L523.82 239.85L524.73 242.21L525.6 244.57L526.43 246.92L527.21 249.26L527.93 251.57L528.61 253.86L529.24 256.1L529.82 258.29L530.35 260.43L530.83 262.5L531.25 264.49L531.62 266.41L531.93 268.22L532.19 269.94L532.4 271.55L532.54 273.04L532.63 274.4L532.66 275.63L532.64 276.75L532.57 277.77L532.47 278.72L532.32 279.59L532.12 280.38L531.89 281.09L531.61 281.74L531.29 282.32L530.92 282.84L530.51 283.29L530.06 283.69L529.57 284.03L529.03 284.31L528.45 284.55L527.82 284.74L527.16 284.89L526.45 284.99L525.69 285.06L524.9 285.1L524.06 285.1L523.18 285.07L522.25 285.02L521.28 284.94L520.27 284.85L519.21 284.73L518.11 284.61L516.97 284.47L515.78 284.32L514.55 284.17L513.28 284.02L511.96 283.86L510.6 283.71L509.2 283.57L507.75 283.44L506.26 283.31L504.73 283.21L503.15 283.12L501.53 283.05L499.87 283.01L498.16 283L496.41 283L494.6 283.01L493.35 283.01L493.35 206.33L493.75 206.31L495.46 206.41L497.15 206.7Z" id="bb6l2WXLT"></path><path d="M613.2 270.2C618.21 272.72 593.68 279.25 570.62 279.25C547.55 279.25 506.88 274.5 523.44 266.98C540 259.47 549.88 213.25 572.95 213.25C596.01 213.25 608.2 267.68 613.2 270.2Z" id="cwtFZMCDC"></path><path d="M576.32 213.65L577.95 214.13L579.54 214.78L581.09 215.6L582.6 216.57L584.07 217.68L585.51 218.93L586.9 220.31L588.26 221.8L589.58 223.39L590.87 225.08L592.11 226.85L593.32 228.7L594.5 230.61L595.64 232.57L596.74 234.58L597.81 236.63L598.85 238.7L599.85 240.78L600.81 242.87L601.74 244.95L602.64 247.02L603.51 249.06L604.35 251.07L605.15 253.04L605.92 254.94L606.66 256.79L607.37 258.55L608.04 260.24L608.69 261.83L609.31 263.31L609.89 264.68L610.45 265.92L610.98 267.03L611.48 267.99L611.95 268.8L612.4 269.45L612.81 269.91L613.2 270.2L613.52 270.4L613.74 270.61L613.84 270.83L613.85 271.07L613.76 271.31L613.57 271.57L613.28 271.84L612.91 272.11L612.45 272.39L611.9 272.68L611.28 272.97L610.57 273.27L609.79 273.57L608.93 273.87L608.01 274.17L607.02 274.48L605.96 274.78L604.84 275.08L603.67 275.38L602.44 275.67L601.15 275.96L599.82 276.25L598.44 276.52L597.01 276.79L595.55 277.05L594.04 277.31L592.5 277.55L590.93 277.78L589.33 277.99L587.7 278.19L586.05 278.38L584.38 278.55L582.69 278.71L580.99 278.85L579.27 278.97L577.55 279.07L575.82 279.15L574.08 279.21L572.35 279.24L570.62 279.25L570.22 279.25L570.22 213.49L571.24 213.34L572.95 213.25L574.66 213.35L576.32 213.65Z" id="a2FbNy674D"></path><path d="M402.36 232.95L402.36 275.9L401.73 275.86L399.6 275.7L397.43 275.5L395.25 275.27L393.04 275L390.83 274.69L388.61 274.36L386.41 274L384.21 273.62L382.04 273.21L379.9 272.78L377.79 272.34L375.73 271.88L373.73 271.41L371.78 270.93L369.9 270.45L368.1 269.96L366.38 269.47L364.75 268.97L363.22 268.49L361.79 268L360.48 267.53L359.29 267.07L358.23 266.62L357.31 266.18L356.53 265.77L355.91 265.37L355.44 265L355.14 264.66L355.02 264.34L355.08 264.06L355.33 263.8L355.77 263.59L356.43 263.41L357.3 263.28L358.39 263.19L359.7 263.14L361.26 263.14L362.87 263.12L364.38 262.98L365.77 262.73L367.07 262.39L368.27 261.95L369.39 261.43L370.42 260.83L371.38 260.15L372.27 259.39L373.09 258.58L373.86 257.71L374.58 256.78L375.26 255.81L375.9 254.79L376.51 253.74L377.09 252.66L377.66 251.56L378.21 250.44L378.76 249.3L379.31 248.16L379.87 247.02L380.44 245.89L381.03 244.76L381.64 243.65L382.29 242.57L382.98 241.51L383.71 240.48L384.5 239.5L385.34 238.56L386.24 237.67L387.22 236.84L388.27 236.08L389.41 235.38L390.63 234.75L391.96 234.21L393.38 233.75L394.91 233.38L396.56 233.12L398.33 232.95L400.22 232.89L402.1 232.94L402.36 232.95Z" id="hyH57ZxhV"></path><path d="M404.16 233.06L405.74 233.26L407.18 233.53L408.48 233.87L409.66 234.27L410.72 234.73L411.67 235.25L412.51 235.82L413.26 236.44L413.91 237.1L414.48 237.8L414.97 238.53L415.4 239.3L415.76 240.09L416.06 240.9L416.32 241.74L416.54 242.59L416.72 243.45L416.87 244.31L417.01 245.18L417.13 246.05L417.24 246.91L417.36 247.75L417.48 248.59L417.62 249.41L417.78 250.2L417.97 250.97L418.2 251.7L418.47 252.41L418.79 253.07L419.17 253.69L419.62 254.26L420.13 254.78L420.73 255.25L421.41 255.65L422.18 255.99L423.06 256.27L424.04 256.47L425.14 256.6L425.41 256.59L425.68 256.53L425.97 256.41L426.26 256.25L426.57 256.05L426.88 255.81L427.21 255.53L427.55 255.21L427.89 254.87L428.26 254.5L428.63 254.1L429.02 253.69L429.42 253.26L429.84 252.81L430.27 252.36L430.72 251.9L431.18 251.43L431.67 250.97L432.17 250.51L432.68 250.06L433.22 249.62L433.78 249.19L434.35 248.78L434.95 248.39L435.57 248.02L436.21 247.68L436.87 247.37L437.55 247.1L438.26 246.86L438.99 246.67L439.75 246.52L440.53 246.42L441.34 246.37L442.17 246.37L443.03 246.43L443.92 246.55L444.84 246.74L445.78 247L446.76 247.32L447.76 247.72L448.76 248.18L449.72 248.66L450.65 249.16L451.53 249.68L452.38 250.23L453.19 250.79L453.96 251.37L454.69 251.97L455.39 252.59L456.05 253.21L456.68 253.86L457.26 254.51L457.82 255.17L458.33 255.84L458.81 256.52L459.25 257.2L459.66 257.89L460.04 258.58L460.38 259.28L460.68 259.97L460.95 260.67L461.18 261.36L461.38 262.04L461.55 262.73L461.68 263.4L461.78 264.07L461.85 264.73L461.88 265.38L461.88 266.02L461.85 266.65L461.79 267.26L461.69 267.85L461.56 268.43L461.4 268.99L461.2 269.53L460.98 270.05L460.72 270.54L460.44 271.02L460.12 271.46L459.77 271.89L459.15 272.51L458.44 273.09L457.65 273.62L456.78 274.11L455.84 274.55L454.83 274.96L453.76 275.32L452.62 275.65L451.43 275.94L450.18 276.2L448.89 276.42L447.55 276.61L446.17 276.78L444.76 276.91L443.31 277.02L441.83 277.11L440.33 277.17L438.81 277.21L437.27 277.23L435.72 277.23L434.16 277.22L432.59 277.19L431.03 277.15L429.46 277.1L427.91 277.04L426.37 276.97L424.84 276.89L423.33 276.81L421.84 276.72L420.38 276.64L418.96 276.55L417.57 276.47L416.21 276.39L414.91 276.32L413.64 276.25L412.43 276.19L411.28 276.14L410.19 276.11L409.15 276.08L408.19 276.07L406.2 276.05L404.15 275.98L402.06 275.86L400.55 275.75L400.55 232.89L402.43 232.94L404.16 233.06Z" id="a94BN0wH"></path><path d="M346.93 264.12C362.33 265.27 343.8 276.07 317.66 276.07C291.51 276.07 248.72 265.27 271.06 265.66C293.39 266.04 285.03 223.85 311.17 223.85C337.32 223.85 331.52 262.96 346.93 264.12Z" id="aq7ErnRXM"></path><path d="M316.54 224.48L318.11 224.95L319.58 225.54L320.96 226.23L322.25 227.03L323.45 227.93L324.57 228.91L325.62 229.98L326.6 231.12L327.51 232.33L328.37 233.6L329.16 234.92L329.91 236.29L330.62 237.69L331.28 239.13L331.91 240.59L332.5 242.07L333.08 243.55L333.63 245.04L334.17 246.52L334.69 247.99L335.22 249.44L335.74 250.87L336.26 252.26L336.8 253.61L337.35 254.91L337.92 256.16L338.52 257.34L339.14 258.45L339.8 259.49L340.5 260.44L341.25 261.3L342.04 262.06L342.89 262.71L343.8 263.25L344.77 263.67L345.81 263.96L346.93 264.12L348.02 264.22L348.99 264.36L349.83 264.53L350.56 264.73L351.16 264.96L351.66 265.22L352.04 265.5L352.31 265.8L352.47 266.13L352.53 266.47L352.48 266.83L352.34 267.21L352.1 267.6L351.76 268L351.33 268.41L350.81 268.83L350.2 269.25L349.51 269.67L348.73 270.1L347.87 270.53L346.94 270.95L345.93 271.38L344.84 271.79L343.69 272.2L342.47 272.6L341.18 272.98L339.83 273.35L338.42 273.71L336.95 274.05L335.43 274.37L333.85 274.67L332.22 274.94L330.54 275.19L328.82 275.41L327.05 275.61L325.24 275.77L323.4 275.9L321.52 276L319.6 276.05L317.66 276.07L315.67 276.05L313.78 276L313.78 224.01L314.86 224.14L316.54 224.48Z" id="a7nrKQVTn"></path><path d="M401.97 272.82C428.16 277.94 384.23 276.42 360.95 276.42C337.68 276.42 294.9 280.64 317.63 272.82C340.35 265 333.44 234.25 356.72 234.25C379.99 234.25 375.78 267.69 401.97 272.82Z" id="g16UlMsp8"></path><path d="M361.17 234.47L362.67 234.76L364.09 235.16L365.43 235.67L366.69 236.27L367.88 236.96L369 237.74L370.07 238.6L371.08 239.53L372.04 240.52L372.96 241.58L373.84 242.7L374.69 243.86L375.51 245.07L376.31 246.32L377.1 247.6L377.87 248.91L378.64 250.24L379.41 251.58L380.18 252.94L380.96 254.3L381.76 255.65L382.59 257L383.44 258.33L384.32 259.65L385.24 260.94L386.2 262.2L387.21 263.42L388.28 264.6L389.41 265.73L390.6 266.81L391.86 267.83L393.2 268.78L394.62 269.66L396.12 270.46L397.72 271.18L399.42 271.82L401.22 272.35L403.13 272.79L404.96 273.16L406.54 273.51L407.87 273.83L408.97 274.14L409.84 274.42L410.48 274.67L410.92 274.91L411.15 275.13L411.19 275.33L411.04 275.51L410.71 275.68L410.21 275.83L409.56 275.96L408.75 276.08L407.79 276.18L406.7 276.27L405.49 276.35L404.16 276.41L402.71 276.47L401.17 276.51L399.53 276.55L397.81 276.57L396.01 276.59L394.14 276.6L392.22 276.6L390.25 276.6L388.23 276.59L386.18 276.58L384.11 276.57L382.02 276.55L379.92 276.53L377.83 276.51L375.74 276.49L373.67 276.46L371.63 276.44L369.62 276.43L367.66 276.41L365.74 276.4L363.89 276.39L362.11 276.39L360.33 276.4L358.68 276.42L358.68 234.25L359.57 234.28L361.17 234.47Z" id="e3e4IKY1Oe"></path><path d="M268.14 234.36L268.14 274.13L267.86 274.13L265.87 274.15L263.96 274.16L262.13 274.17L260.4 274.17L259.28 274.18L258.14 274.2L256.99 274.23L255.82 274.28L254.64 274.33L253.44 274.4L252.24 274.47L251.03 274.55L249.81 274.64L248.59 274.73L247.36 274.82L246.13 274.92L244.9 275.02L243.68 275.12L242.45 275.22L241.24 275.31L240.02 275.41L238.82 275.5L237.63 275.58L236.45 275.66L235.28 275.73L234.13 275.79L232.99 275.85L231.88 275.89L230.78 275.92L229.7 275.93L228.65 275.94L227.62 275.92L226.62 275.89L225.65 275.85L224.71 275.78L223.79 275.7L222.92 275.59L222.07 275.46L221.27 275.31L220.5 275.14L219.77 274.93L219.08 274.71L218.44 274.45L217.84 274.17L217.57 273.97L217.33 273.67L217.14 273.29L216.98 272.83L216.86 272.3L216.78 271.7L216.74 271.04L216.74 270.33L216.77 269.56L216.84 268.76L216.95 267.92L217.09 267.04L217.26 266.15L217.47 265.23L217.71 264.3L217.98 263.37L218.29 262.44L218.63 261.51L218.99 260.6L219.39 259.71L219.82 258.84L220.28 258L220.77 257.2L221.28 256.45L221.82 255.74L222.39 255.09L222.99 254.5L223.61 253.98L224.25 253.53L224.92 253.17L225.62 252.89L226.34 252.7L227.08 252.62L227.84 252.64L228.63 252.76L229.43 253.01L230.26 253.38L231.11 253.88L231.98 254.52L232.86 255.3L233.74 256.07L234.56 256.68L235.35 257.14L236.1 257.46L236.82 257.64L237.5 257.7L238.16 257.63L238.8 257.45L239.41 257.16L240.01 256.77L240.6 256.29L241.17 255.73L241.73 255.08L242.3 254.36L242.86 253.58L243.42 252.74L244 251.86L244.58 250.92L245.17 249.96L245.78 248.96L246.41 247.95L247.06 246.91L247.74 245.88L248.45 244.84L249.19 243.81L249.97 242.79L250.79 241.8L251.65 240.83L252.56 239.91L253.51 239.02L254.52 238.18L255.59 237.41L256.72 236.69L257.91 236.05L259.16 235.49L260.49 235.01L261.89 234.63L263.37 234.35L264.92 234.17L266.56 234.11L267.35 234.18L268.14 234.36Z" id="bG8hOebC4"></path><path d="M269.14 234.71L269.96 235.12L270.79 235.64L271.63 236.25L272.49 236.96L273.35 237.76L274.23 238.63L275.13 239.57L276.04 240.59L276.97 241.66L277.91 242.79L278.87 243.96L279.85 245.18L280.84 246.43L281.85 247.71L282.89 249.01L283.94 250.33L285.01 251.66L286.1 253L287.22 254.33L288.35 255.65L289.51 256.96L290.7 258.25L291.9 259.51L293.13 260.74L294.39 261.92L295.67 263.07L296.98 264.15L298.31 265.18L299.67 266.15L301.06 267.04L302.48 267.86L303.93 268.59L305.41 269.23L306.91 269.78L308.45 270.22L310.02 270.56L311.62 270.77L313.11 270.93L314.33 271.09L315.3 271.24L316.04 271.39L316.54 271.53L316.82 271.68L316.89 271.81L316.75 271.95L316.42 272.08L315.9 272.21L315.21 272.33L314.35 272.45L313.33 272.57L312.17 272.69L310.87 272.8L309.43 272.9L307.88 273L306.22 273.1L304.46 273.2L302.6 273.29L300.67 273.38L298.66 273.46L296.58 273.54L294.45 273.61L292.28 273.68L290.07 273.75L287.83 273.81L285.58 273.87L283.32 273.92L281.06 273.97L278.81 274.01L276.58 274.05L274.38 274.09L272.22 274.12L270.11 274.14L268.05 274.17L266.75 274.18L266.75 234.15L267.54 234.21L268.34 234.4L269.14 234.71Z" id="a2cn7jnaXr"></path><path d="M331.57 171.22L330.98 171.3L330.68 171.28L330.4 171.19L330.13 171.05L329.86 170.86L329.58 170.64L329.28 170.4L328.96 170.15L328.6 169.89L328.2 169.65L327.75 169.43L327.24 169.24L326.66 169.1L326.01 169.01L325.26 168.98L324.52 169.03L323.87 169.16L323.29 169.34L322.79 169.56L322.35 169.82L321.96 170.11L321.62 170.4L321.32 170.69L321.05 170.98L320.8 171.23L320.57 171.45L320.34 171.62L320.11 171.74L319.87 171.78L319.59 171.73L319.29 171.59L318.96 171.39L318.61 171.12L318.23 170.81L317.82 170.48L317.39 170.13L316.92 169.78L316.43 169.45L315.9 169.15L315.34 168.89L314.75 168.7L314.12 168.58L313.46 168.54L312.82 168.61L312.28 168.75L311.81 168.97L311.42 169.24L311.08 169.54L310.79 169.88L310.54 170.22L310.32 170.57L310.11 170.89L309.91 171.19L309.71 171.44L309.49 171.63L309.25 171.75L308.98 171.78L308.47 171.69L307.98 171.51L307.92 171.47L318.9 145.12L319.99 143.09L331.7 171.19L331.57 171.22Z" id="b14PweqL5o"></path><path d="M455.41 151.97L454.91 152.07L454.65 152.04L454.41 151.9L454.18 151.69L453.94 151.42L453.69 151.11L453.42 150.78L453.1 150.44L452.75 150.13L452.34 149.86L451.87 149.64L451.32 149.5L450.69 149.46L450.05 149.54L449.51 149.72L449.04 149.98L448.64 150.31L448.29 150.67L448 151.06L447.74 151.45L447.51 151.81L447.3 152.13L447.11 152.38L446.91 152.55L446.7 152.61L446.46 152.54L446.19 152.34L445.9 152.03L445.58 151.65L445.24 151.21L444.87 150.75L444.46 150.3L444.03 149.87L443.56 149.5L443.07 149.2L442.53 149.02L441.96 148.97L441.43 149.06L440.97 149.28L440.6 149.59L440.29 149.98L440.03 150.41L439.81 150.86L439.62 151.31L439.44 151.73L439.27 152.1L439.09 152.38L438.89 152.56L438.65 152.61L438.22 152.49L437.88 152.26L445.99 122.56L446.79 120.26L455.44 151.95L455.41 151.97Z" id="b2QSFtyHCJ"></path><path d="M411.85 205.85L411.54 205.81L411.26 205.68L410.97 205.48L410.65 205.24L410.3 204.99L409.87 204.75L409.36 204.55L408.74 204.42L407.98 204.37L407.23 204.44L406.61 204.61L406.1 204.85L405.69 205.13L405.36 205.42L405.07 205.7L404.82 205.93L404.58 206.1L404.33 206.16L404.03 206.08L403.69 205.89L403.3 205.61L402.88 205.28L402.4 204.93L401.88 204.61L401.3 204.33L400.67 204.15L399.98 204.09L399.34 204.18L398.84 204.38L398.45 204.66L398.14 204.99L397.89 205.34L397.67 205.66L397.46 205.92L397.23 206.1L396.95 206.16L396.42 206.04L396.24 205.95L403.67 189.16L404.41 187.86L412.34 205.78L411.85 205.85Z" id="k1fCYiZCUD"></path><path d="M561.12 268.22C576.52 269.38 557.99 280.18 531.85 280.18C505.7 280.18 462.91 269.38 485.25 269.76C507.58 270.15 499.22 227.96 525.36 227.96C551.51 227.96 545.71 267.06 561.12 268.22Z" id="ddvpvaw1E"></path><path d="M530.73 228.58L532.3 229.05L533.77 229.64L535.15 230.34L536.44 231.14L537.64 232.03L538.77 233.02L539.81 234.09L540.79 235.23L541.7 236.44L542.56 237.7L543.36 239.02L544.1 240.39L544.81 241.8L545.47 243.23L546.1 244.69L546.69 246.17L547.27 247.66L547.82 249.14L548.36 250.63L548.88 252.1L549.41 253.55L549.93 254.97L550.45 256.36L550.99 257.71L551.54 259.01L552.11 260.26L552.71 261.44L553.33 262.55L553.99 263.59L554.69 264.54L555.44 265.4L556.23 266.16L557.08 266.81L557.99 267.35L558.96 267.77L560 268.06L561.12 268.22L562.21 268.33L563.18 268.46L564.02 268.64L564.75 268.84L565.35 269.07L565.85 269.32L566.23 269.6L566.5 269.91L566.66 270.23L566.72 270.58L566.67 270.94L566.53 271.31L566.29 271.7L565.95 272.1L565.52 272.51L565 272.93L564.39 273.35L563.7 273.78L562.92 274.21L562.06 274.63L561.13 275.06L560.12 275.48L559.03 275.89L557.88 276.3L556.66 276.7L555.37 277.09L554.02 277.46L552.61 277.81L551.14 278.15L549.62 278.47L548.04 278.77L546.41 279.05L544.73 279.3L543.01 279.52L541.24 279.71L539.43 279.87L537.59 280L535.71 280.1L533.79 280.16L531.85 280.18L529.86 280.16L527.97 280.1L527.97 228.11L529.05 228.24L530.73 228.58Z" id="f3u6SeFkss"></path><path d="M483.91 234.36L483.91 274.13L483.63 274.13L481.64 274.15L479.73 274.16L477.91 274.17L476.17 274.17L475.05 274.18L473.92 274.2L472.76 274.23L471.59 274.28L470.41 274.33L469.22 274.4L468.01 274.47L466.8 274.55L465.58 274.64L464.36 274.73L463.13 274.82L461.9 274.92L460.68 275.02L459.45 275.12L458.23 275.22L457.01 275.31L455.8 275.41L454.6 275.5L453.4 275.58L452.22 275.66L451.05 275.73L449.9 275.79L448.77 275.85L447.65 275.89L446.55 275.92L445.48 275.93L444.42 275.94L443.4 275.92L442.39 275.89L441.42 275.85L440.48 275.78L439.57 275.7L438.69 275.59L437.85 275.46L437.04 275.31L436.27 275.14L435.54 274.93L434.86 274.71L434.21 274.45L433.62 274.17L433.34 273.97L433.1 273.67L432.91 273.29L432.75 272.83L432.64 272.3L432.56 271.7L432.52 271.04L432.51 270.33L432.55 269.56L432.62 268.76L432.72 267.92L432.86 267.04L433.03 266.15L433.24 265.23L433.48 264.3L433.76 263.37L434.06 262.44L434.4 261.51L434.77 260.6L435.17 259.71L435.59 258.84L436.05 258L436.54 257.2L437.05 256.45L437.59 255.74L438.16 255.09L438.76 254.5L439.38 253.98L440.03 253.53L440.7 253.17L441.39 252.89L442.11 252.7L442.85 252.62L443.61 252.64L444.4 252.76L445.21 253.01L446.04 253.38L446.88 253.88L447.75 254.52L448.64 255.3L449.51 256.07L450.34 256.68L451.12 257.14L451.88 257.46L452.59 257.64L453.28 257.7L453.94 257.63L454.57 257.45L455.19 257.16L455.78 256.77L456.37 256.29L456.94 255.73L457.51 255.08L458.07 254.36L458.63 253.58L459.2 252.74L459.77 251.86L460.35 250.92L460.94 249.96L461.55 248.96L462.18 247.95L462.84 246.91L463.51 245.88L464.22 244.84L464.97 243.81L465.74 242.79L466.56 241.8L467.42 240.83L468.33 239.91L469.29 239.02L470.3 238.18L471.37 237.41L472.49 236.69L473.68 236.05L474.94 235.49L476.26 235.01L477.66 234.63L479.14 234.35L480.7 234.17L482.33 234.11L483.12 234.18L483.91 234.36Z" id="a19ndWqIZw"></path><path d="M484.92 234.71L485.73 235.12L486.56 235.64L487.41 236.25L488.26 236.96L489.13 237.76L490.01 238.63L490.9 239.57L491.81 240.59L492.74 241.66L493.68 242.79L494.64 243.96L495.62 245.18L496.61 246.43L497.63 247.71L498.66 249.01L499.71 250.33L500.78 251.66L501.88 253L502.99 254.33L504.13 255.65L505.29 256.96L506.47 258.25L507.68 259.51L508.91 260.74L510.16 261.92L511.44 263.07L512.75 264.15L514.09 265.18L515.45 266.15L516.84 267.04L518.25 267.86L519.7 268.59L521.18 269.23L522.69 269.78L524.22 270.22L525.79 270.56L527.39 270.77L528.88 270.93L530.1 271.09L531.08 271.24L531.81 271.39L532.31 271.53L532.59 271.68L532.66 271.81L532.52 271.95L532.19 272.08L531.67 272.21L530.98 272.33L530.12 272.45L529.1 272.57L527.94 272.69L526.64 272.8L525.21 272.9L523.66 273L521.99 273.1L520.23 273.2L518.38 273.29L516.44 273.38L514.43 273.46L512.35 273.54L510.23 273.61L508.05 273.68L505.84 273.75L503.61 273.81L501.35 273.87L499.09 273.92L496.83 273.97L494.58 274.01L492.35 274.05L490.15 274.09L487.99 274.12L485.88 274.14L483.82 274.17L482.53 274.18L482.53 234.15L483.31 234.21L484.11 234.4L484.92 234.71Z" id="a6pvN8NhsP"></path><path d="M607.22 271.94C631.31 276.03 590.9 274.81 569.5 274.81C548.09 274.81 508.75 278.18 529.65 271.94C550.55 265.7 544.19 241.17 565.6 241.17C587.01 241.17 583.13 267.85 607.22 271.94Z" id="a1MebdEI5V"></path><path d="M569.69 241.34L571.08 241.58L572.38 241.9L573.61 242.3L574.77 242.79L575.86 243.34L576.9 243.96L577.88 244.64L578.81 245.38L579.7 246.18L580.54 247.02L581.35 247.91L582.13 248.84L582.89 249.81L583.62 250.8L584.35 251.82L585.06 252.87L585.76 253.93L586.47 255L587.18 256.08L587.9 257.16L588.64 258.25L589.39 259.32L590.17 260.39L590.99 261.43L591.83 262.46L592.72 263.47L593.65 264.44L594.63 265.38L595.66 266.29L596.76 267.15L597.92 267.96L599.15 268.72L600.46 269.42L601.84 270.06L603.31 270.64L604.87 271.14L606.53 271.57L608.28 271.92L609.97 272.21L611.42 272.49L612.65 272.75L613.66 272.99L614.46 273.21L615.05 273.42L615.45 273.61L615.66 273.79L615.7 273.95L615.56 274.09L615.26 274.22L614.8 274.34L614.2 274.45L613.45 274.54L612.58 274.62L611.58 274.69L610.46 274.76L609.23 274.81L607.9 274.85L606.48 274.89L604.98 274.91L603.39 274.93L601.74 274.95L600.02 274.96L598.25 274.96L596.44 274.96L594.58 274.95L592.7 274.94L590.79 274.93L588.87 274.91L586.94 274.9L585.02 274.88L583.1 274.87L581.19 274.85L579.31 274.83L577.47 274.82L575.66 274.81L573.9 274.8L572.2 274.79L570.56 274.79L568.92 274.79L567.41 274.81L567.41 241.17L568.22 241.2L569.69 241.34Z" id="iBwlzgdbm"></path><path d="M615.68 270.69C621.18 270.69 625.64 275.15 625.64 280.66C625.64 285.13 625.64 288.61 625.64 293.08C625.64 298.59 621.18 303.05 615.68 303.05C496.22 303.05 147.81 303.05 28.35 303.05C22.85 303.05 18.39 298.59 18.39 293.08C18.39 288.61 18.39 285.13 18.39 280.66C18.39 275.15 22.85 270.69 28.35 270.69C147.81 270.69 496.22 270.69 615.68 270.69Z" id="n1FPjuc7Xh"></path><path d="M18.39 279.25L625.64 279.25L625.64 294.49L18.39 294.49L18.39 279.25Z" id="f19OdSsDq0"></path><path d="M45.8 284.76L72.88 284.76L72.88 288.97L45.8 288.97L45.8 284.76Z" id="c58CYdUC7C"></path><path d="M113.52 284.76L140.6 284.76L140.6 288.97L113.52 288.97L113.52 284.76Z" id="aK2HqqKEy"></path><path d="M179.22 284.76L206.3 284.76L206.3 288.97L179.22 288.97L179.22 284.76Z" id="a1J6dBCmQs"></path><path d="M244.11 284.76L271.19 284.76L271.19 288.97L244.11 288.97L244.11 284.76Z" id="b5k8mDX5DZ"></path><path d="M311.37 284.76L338.45 284.76L338.45 288.97L311.37 288.97L311.37 284.76Z" id="a1kP0Ahb6"></path><path d="M379.08 284.76L406.17 284.76L406.17 288.97L379.08 288.97L379.08 284.76Z" id="a2DX1lhb"></path><path d="M447.77 284.76L474.85 284.76L474.85 288.97L447.77 288.97L447.77 284.76Z" id="d17FTwfO61"></path><path d="M512.5 284.76L539.58 284.76L539.58 288.97L512.5 288.97L512.5 284.76Z" id="gflyFoFtS"></path><path d="M575.34 284.76L602.42 284.76L602.42 288.97L575.34 288.97L575.34 284.76Z" id="f2BAp4B60O"></path><path d="M23.84 233.33C24.27 233.33 24.62 233.67 24.62 234.1C24.62 242.4 24.62 266.53 24.62 274.83C24.62 275.26 24.27 275.6 23.84 275.6C23.69 275.6 24 275.6 23.84 275.6C23.41 275.6 23.07 275.26 23.07 274.83C23.07 266.53 23.07 242.4 23.07 234.1C23.07 233.67 23.41 233.33 23.84 233.33C24 233.33 23.69 233.33 23.84 233.33Z" id="bC3Jl7TBS"></path><path d="M22.23 237.37L25.45 237.37L25.45 239.88L22.23 239.88L22.23 237.37Z" id="f1xDGRI8t"></path><path d="M40.9 229.28L49.83 229.28L49.83 241.39L40.9 241.39L40.9 229.28Z" id="b3vATpa3ZR"></path><path d="M21.83 226.18L44.98 226.18L44.98 239.28L21.83 239.28L21.83 226.18Z" id="m1nReEmP9m"></path><path d="M44.98 239.28L40.9 241.35L40.9 239.28L44.98 239.28Z" id="b18e6DDlNE"></path><path d="M24.79 269.53C25.16 269.53 25.45 269.82 25.45 270.18C25.45 270.32 25.45 270.05 25.45 270.18C25.45 270.55 25.16 270.84 24.79 270.84C24.28 270.84 23.4 270.84 22.89 270.84C22.53 270.84 22.23 270.55 22.23 270.18C22.23 270.05 22.23 270.32 22.23 270.18C22.23 269.82 22.53 269.53 22.89 269.53C23.4 269.53 24.28 269.53 24.79 269.53Z" id="adZAWxeDn"></path><path d="M24.79 271.16C25.16 271.16 25.45 271.45 25.45 271.82C25.45 271.95 25.45 271.68 25.45 271.82C25.45 272.18 25.16 272.47 24.79 272.47C24.28 272.47 23.4 272.47 22.89 272.47C22.53 272.47 22.23 272.18 22.23 271.82C22.23 271.68 22.23 271.95 22.23 271.82C22.23 271.45 22.53 271.16 22.89 271.16C23.4 271.16 24.28 271.16 24.79 271.16Z" id="bbhXwb52c"></path><path d="M48.2 233.55L56.29 241.39L48.2 241.39L48.2 233.55Z" id="d1h7NrMXNc"></path><path d="M48.88 237.12L56.97 229.28L48.88 229.28L48.88 237.12Z" id="bzmSkM8J6"></path><path d="M24.79 274.7C25.16 274.7 25.45 274.99 25.45 275.35C25.45 275.79 25.45 276.46 25.45 276.9C25.45 277.26 25.16 277.56 24.79 277.56C24.28 277.56 23.4 277.56 22.89 277.56C22.53 277.56 22.23 277.26 22.23 276.9C22.23 276.46 22.23 275.79 22.23 275.35C22.23 274.99 22.53 274.7 22.89 274.7C23.4 274.7 24.28 274.7 24.79 274.7Z" id="a2mRJGBnC"></path><path d="M618.7 233.17C618.27 233.17 617.93 233.51 617.93 233.94C617.93 242.24 617.93 266.37 617.93 274.67C617.93 275.1 618.27 275.44 618.7 275.44C618.86 275.44 618.55 275.44 618.7 275.44C619.13 275.44 619.48 275.1 619.48 274.67C619.48 266.37 619.48 242.24 619.48 233.94C619.48 233.51 619.13 233.17 618.7 233.17C618.55 233.17 618.86 233.17 618.7 233.17Z" id="b16l146BcY"></path><path d="M620.31 237.21L617.09 237.21L617.09 239.72L620.31 239.72L620.31 237.21Z" id="a8EwUptabQ"></path><path d="M601.65 229.12L592.72 229.12L592.72 241.23L601.65 241.23L601.65 229.12Z" id="db7AqDEiU"></path><path d="M620.72 226.02L597.56 226.02L597.56 239.12L620.72 239.12L620.72 226.02Z" id="bJ3ewh5BD"></path><path d="M597.56 239.12L601.65 241.19L601.65 239.12L597.56 239.12Z" id="at21NtCF2"></path><path d="M617.75 269.37C617.39 269.37 617.09 269.66 617.09 270.02C617.09 270.16 617.09 269.89 617.09 270.02C617.09 270.39 617.39 270.68 617.75 270.68C618.26 270.68 619.14 270.68 619.66 270.68C620.02 270.68 620.31 270.39 620.31 270.02C620.31 269.89 620.31 270.16 620.31 270.02C620.31 269.66 620.02 269.37 619.66 269.37C619.14 269.37 618.26 269.37 617.75 269.37Z" id="e3sU4S0Mh"></path><path d="M617.75 271C617.39 271 617.09 271.29 617.09 271.66C617.09 271.79 617.09 271.52 617.09 271.66C617.09 272.02 617.39 272.31 617.75 272.31C618.26 272.31 619.14 272.31 619.66 272.31C620.02 272.31 620.31 272.02 620.31 271.66C620.31 271.52 620.31 271.79 620.31 271.66C620.31 271.29 620.02 271 619.66 271C619.14 271 618.26 271 617.75 271Z" id="i1MNbZD7yw"></path><path d="M594.35 233.39L586.25 241.23L594.35 241.23L594.35 233.39Z" id="jn8itEV2q"></path><path d="M593.67 236.96L585.57 229.12L593.67 229.12L593.67 236.96Z" id="a2x2sQPHY3"></path><path d="M617.75 274.54C617.39 274.54 617.09 274.83 617.09 275.19C617.09 275.63 617.09 276.3 617.09 276.74C617.09 277.1 617.39 277.4 617.75 277.4C618.26 277.4 619.14 277.4 619.66 277.4C620.02 277.4 620.31 277.1 620.31 276.74C620.31 276.3 620.31 275.63 620.31 275.19C620.31 274.83 620.02 274.54 619.66 274.54C619.14 274.54 618.26 274.54 617.75 274.54Z" id="a9wVW2fdW"></path><path d="M553.64 173.24L553.06 173.32L552.77 173.29L552.5 173.19L552.23 173.03L551.96 172.82L551.68 172.57L551.38 172.31L551.05 172.03L550.68 171.77L550.25 171.52L549.77 171.3L549.22 171.14L548.58 171.03L547.86 171L547.13 171.06L546.5 171.2L545.95 171.41L545.47 171.66L545.06 171.95L544.7 172.26L544.39 172.58L544.11 172.89L543.86 173.18L543.63 173.43L543.4 173.62L543.18 173.75L542.94 173.8L542.67 173.74L542.37 173.59L542.04 173.35L541.69 173.05L541.31 172.71L540.9 172.34L540.45 171.96L539.98 171.6L539.47 171.26L538.93 170.97L538.36 170.74L537.75 170.6L537.1 170.57L536.48 170.64L535.96 170.8L535.51 171.05L535.14 171.35L534.83 171.69L534.56 172.06L534.33 172.43L534.12 172.79L533.92 173.12L533.73 173.41L533.52 173.63L533.28 173.76L533.02 173.8L532.52 173.7L532.05 173.49L542.06 147.14L543.05 145.11L553.72 173.21L553.64 173.24Z" id="cZzpFLdgq"></path></defs><g><g><g><use xlink:href="#boFFTkAY" opacity="1" fill="#ffffff" fill-opacity="1"></use></g><g><use xlink:href="#aWNIjLBni" opacity="1" fill="#ffffff" fill-opacity="1"></use></g><g><use xlink:href="#a4bVNGoIZj" opacity="1" fill="#ffffff" fill-opacity="1"></use></g><g><use xlink:href="#gGhrVFWOY" opacity="1" fill="#ffffff" fill-opacity="1"></use></g><g><use xlink:href="#b9aDiOVA1" opacity="1" fill="#ffffff" fill-opacity="1"></use></g><g><use xlink:href="#aVn7TCqOG" opacity="1" fill="#ffffff" fill-opacity="1"></use></g><g><use xlink:href="#b2qAoWFBLH" opacity="1" fill="#ffffff" fill-opacity="1"></use></g><g><g><g><use xlink:href="#aTwM8BYF9" opacity="1" fill="#9f9f9f" fill-opacity="1"></use></g><g><use xlink:href="#d1cDLV064I" opacity="1" fill="#898989" fill-opacity="1"></use></g></g><g><g><use xlink:href="#b6zWGTSWw8" opacity="1" fill="#9f9f9f" fill-opacity="1"></use></g><g><use xlink:href="#coSZCWsHH" opacity="1" fill="#898989" fill-opacity="1"></use></g></g><g><g><use xlink:href="#bsjBcIOfe" opacity="1" fill="#9f9f9f" fill-opacity="1"></use></g><g><use xlink:href="#amHmcfkAE" opacity="1" fill="#898989" fill-opacity="1"></use></g></g></g><g><g><g><use xlink:href="#a7IGDScwhF" opacity="1" fill="#649642" fill-opacity="1"></use></g><g><use xlink:href="#a1kxQWwCCf" opacity="1" fill="#538333" fill-opacity="1"></use></g></g><g><g><use xlink:href="#b1o0BRZcXP" opacity="1" fill="#649642" fill-opacity="1"></use></g><g><use xlink:href="#a1yd7cf3E9" opacity="1" fill="#538333" fill-opacity="1"></use></g></g><g><g><use xlink:href="#b1rHzP0pPU" opacity="1" fill="#649642" fill-opacity="1"></use></g><g><use xlink:href="#a2aWBzM9Hu" opacity="1" fill="#538333" fill-opacity="1"></use></g></g></g><g><g><g><use xlink:href="#a2xgBZiJs4" opacity="1" fill="#88bf64" fill-opacity="1"></use></g><g><use xlink:href="#a4O1Z1UheG" opacity="1" fill="#73a154" fill-opacity="1"></use></g></g><g><g><use xlink:href="#c2DKPKPOjI" opacity="1" fill="#88bf64" fill-opacity="1"></use></g><g><use xlink:href="#aiMrnihbn" opacity="1" fill="#73a154" fill-opacity="1"></use></g></g></g><g><g><use xlink:href="#a25TxTdgpi" opacity="1" fill="#a8ef7a" fill-opacity="1"></use></g><g><use xlink:href="#bLlXiAnbw" opacity="1" fill="#79ba4e" fill-opacity="1"></use></g></g><g><g><use xlink:href="#a3WHjEM3uf" opacity="1" fill="#a8ef7a" fill-opacity="1"></use></g><g><use xlink:href="#fqgFyWPHX" opacity="1" fill="#79ba4e" fill-opacity="1"></use></g></g><g><use xlink:href="#bIfuEB2E" opacity="1" fill="#e1e1e1" fill-opacity="1"></use></g><g><use xlink:href="#a4tmiWeTm9" opacity="1" fill="#e1e1e1" fill-opacity="1"></use></g><g><use xlink:href="#b3CFUYRxIS" opacity="1" fill="#ffffff" fill-opacity="1"></use></g><g><use xlink:href="#g14LkxWFPo" opacity="1" fill="#e1e1e1" fill-opacity="1"></use></g><g><g><g><use xlink:href="#b2edobHxG7" opacity="1" fill="#9f9f9f" fill-opacity="1"></use></g><g><use xlink:href="#f2hjvpuVd" opacity="1" fill="#898989" fill-opacity="1"></use></g></g></g><g><g><g><use xlink:href="#bC9j0Lfsz" opacity="1" fill="#9f9f9f" fill-opacity="1"></use></g><g><use xlink:href="#d8rhq3kaS" opacity="1" fill="#898989" fill-opacity="1"></use></g></g><g><g><use xlink:href="#i34lR8KSaV" opacity="1" fill="#9f9f9f" fill-opacity="1"></use></g><g><use xlink:href="#g1NaRQdztn" opacity="1" fill="#898989" fill-opacity="1"></use></g></g><g><g><use xlink:href="#a1EaC97rwT" opacity="1" fill="#9f9f9f" fill-opacity="1"></use></g><g><use xlink:href="#a45yfveGuQ" opacity="1" fill="#898989" fill-opacity="1"></use></g></g></g><g><g><g><use xlink:href="#a35KhjCdB4" opacity="1" fill="#649642" fill-opacity="1"></use></g><g><use xlink:href="#b3pCzA3fSl" opacity="1" fill="#538333" fill-opacity="1"></use></g></g><g><g><use xlink:href="#b28LCJctzO" opacity="1" fill="#649642" fill-opacity="1"></use></g><g><use xlink:href="#a4O3dLhZB" opacity="1" fill="#538333" fill-opacity="1"></use></g></g></g><g><g><g><use xlink:href="#dagihv5OoN" opacity="1" fill="#649642" fill-opacity="1"></use></g><g><use xlink:href="#bb6l2WXLT" opacity="1" fill="#538333" fill-opacity="1"></use></g></g><g><g><use xlink:href="#cwtFZMCDC" opacity="1" fill="#649642" fill-opacity="1"></use></g><g><use xlink:href="#a2FbNy674D" opacity="1" fill="#538333" fill-opacity="1"></use></g></g></g><g><g><g><use xlink:href="#hyH57ZxhV" opacity="1" fill="#88bf64" fill-opacity="1"></use></g><g><use xlink:href="#a94BN0wH" opacity="1" fill="#73a154" fill-opacity="1"></use></g></g><g><g><use xlink:href="#aq7ErnRXM" opacity="1" fill="#88bf64" fill-opacity="1"></use></g><g><use xlink:href="#a7nrKQVTn" opacity="1" fill="#73a154" fill-opacity="1"></use></g></g></g><g><g><use xlink:href="#g16UlMsp8" opacity="1" fill="#a8ef7a" fill-opacity="1"></use></g><g><use xlink:href="#e3e4IKY1Oe" opacity="1" fill="#79ba4e" fill-opacity="1"></use></g></g><g><g><use xlink:href="#bG8hOebC4" opacity="1" fill="#a8ef7a" fill-opacity="1"></use></g><g><use xlink:href="#a2cn7jnaXr" opacity="1" fill="#79ba4e" fill-opacity="1"></use></g></g><g><use xlink:href="#b14PweqL5o" opacity="1" fill="#e1e1e1" fill-opacity="1"></use></g><g><use xlink:href="#b2QSFtyHCJ" opacity="1" fill="#e1e1e1" fill-opacity="1"></use></g><g><use xlink:href="#k1fCYiZCUD" opacity="1" fill="#e1e1e1" fill-opacity="1"></use></g><g><g><g><use xlink:href="#ddvpvaw1E" opacity="1" fill="#88bf64" fill-opacity="1"></use></g><g><use xlink:href="#f3u6SeFkss" opacity="1" fill="#73a154" fill-opacity="1"></use></g></g></g><g><g><use xlink:href="#a19ndWqIZw" opacity="1" fill="#a8ef7a" fill-opacity="1"></use></g><g><use xlink:href="#a6pvN8NhsP" opacity="1" fill="#79ba4e" fill-opacity="1"></use></g></g><g><g><use xlink:href="#a1MebdEI5V" opacity="1" fill="#a8ef7a" fill-opacity="1"></use></g><g><use xlink:href="#iBwlzgdbm" opacity="1" fill="#79ba4e" fill-opacity="1"></use></g></g><g><g><g><use xlink:href="#n1FPjuc7Xh" opacity="1" fill="#8dd55f" fill-opacity="1"></use></g></g><g><use xlink:href="#f19OdSsDq0" opacity="1" fill="#9f9f9f" fill-opacity="1"></use></g><g><use xlink:href="#c58CYdUC7C" opacity="1" fill="#ffffff" fill-opacity="1"></use></g><g><use xlink:href="#aK2HqqKEy" opacity="1" fill="#ffffff" fill-opacity="1"></use></g><g><use xlink:href="#a1J6dBCmQs" opacity="1" fill="#ffffff" fill-opacity="1"></use></g><g><use xlink:href="#b5k8mDX5DZ" opacity="1" fill="#ffffff" fill-opacity="1"></use></g><g><use xlink:href="#a1kP0Ahb6" opacity="1" fill="#ffffff" fill-opacity="1"></use></g><g><use xlink:href="#a2DX1lhb" opacity="1" fill="#ffffff" fill-opacity="1"></use></g><g><use xlink:href="#d17FTwfO61" opacity="1" fill="#ffffff" fill-opacity="1"></use></g><g><use xlink:href="#gflyFoFtS" opacity="1" fill="#ffffff" fill-opacity="1"></use></g><g><use xlink:href="#f2BAp4B60O" opacity="1" fill="#ffffff" fill-opacity="1"></use></g></g><g><g><use xlink:href="#bC3Jl7TBS" opacity="1" fill="#874f4c" fill-opacity="1"></use></g><g><use xlink:href="#f1xDGRI8t" opacity="1" fill="#c52d23" fill-opacity="1"></use></g><g><use xlink:href="#b3vATpa3ZR" opacity="1" fill="#c52d23" fill-opacity="1"></use></g><g><use xlink:href="#m1nReEmP9m" opacity="1" fill="#d13529" fill-opacity="1"></use></g><g><use xlink:href="#b18e6DDlNE" opacity="1" fill="#aa231a" fill-opacity="1"></use></g><g><use xlink:href="#adZAWxeDn" opacity="1" fill="#4a4a4a" fill-opacity="1"></use></g><g><use xlink:href="#bbhXwb52c" opacity="1" fill="#4a4a4a" fill-opacity="1"></use></g><g><use xlink:href="#d1h7NrMXNc" opacity="1" fill="#c52d23" fill-opacity="1"></use></g><g><use xlink:href="#bzmSkM8J6" opacity="1" fill="#c52d23" fill-opacity="1"></use></g><g><use xlink:href="#a2mRJGBnC" opacity="1" fill="#4a4a4a" fill-opacity="1"></use></g></g><g><g><use xlink:href="#b16l146BcY" opacity="1" fill="#874f4c" fill-opacity="1"></use></g><g><use xlink:href="#a8EwUptabQ" opacity="1" fill="#c52d23" fill-opacity="1"></use></g><g><use xlink:href="#db7AqDEiU" opacity="1" fill="#c52d23" fill-opacity="1"></use></g><g><use xlink:href="#bJ3ewh5BD" opacity="1" fill="#d13529" fill-opacity="1"></use></g><g><use xlink:href="#at21NtCF2" opacity="1" fill="#aa231a" fill-opacity="1"></use></g><g><use xlink:href="#e3sU4S0Mh" opacity="1" fill="#4a4a4a" fill-opacity="1"></use></g><g><use xlink:href="#i1MNbZD7yw" opacity="1" fill="#4a4a4a" fill-opacity="1"></use></g><g><use xlink:href="#jn8itEV2q" opacity="1" fill="#c52d23" fill-opacity="1"></use></g><g><use xlink:href="#a2x2sQPHY3" opacity="1" fill="#c52d23" fill-opacity="1"></use></g><g><use xlink:href="#a9wVW2fdW" opacity="1" fill="#4a4a4a" fill-opacity="1"></use></g></g><g><use xlink:href="#cZzpFLdgq" opacity="1" fill="#e1e1e1" fill-opacity="1"></use></g></g><g><use xlink:href="#boFFTkAY" opacity="1" fill="#ffffff" fill-opacity="1"></use></g><g><use xlink:href="#aWNIjLBni" opacity="1" fill="#ffffff" fill-opacity="1"></use></g><g><use xlink:href="#a4bVNGoIZj" opacity="1" fill="#ffffff" fill-opacity="1"></use></g><g><use xlink:href="#gGhrVFWOY" opacity="1" fill="#ffffff" fill-opacity="1"></use></g><g><use xlink:href="#b9aDiOVA1" opacity="1" fill="#ffffff" fill-opacity="1"></use></g><g><use xlink:href="#aVn7TCqOG" opacity="1" fill="#ffffff" fill-opacity="1"></use></g><g><use xlink:href="#b2qAoWFBLH" opacity="1" fill="#ffffff" fill-opacity="1"></use></g><g><g><g><use xlink:href="#aTwM8BYF9" opacity="1" fill="#9f9f9f" fill-opacity="1"></use></g><g><use xlink:href="#d1cDLV064I" opacity="1" fill="#898989" fill-opacity="1"></use></g></g><g><g><use xlink:href="#b6zWGTSWw8" opacity="1" fill="#9f9f9f" fill-opacity="1"></use></g><g><use xlink:href="#coSZCWsHH" opacity="1" fill="#898989" fill-opacity="1"></use></g></g><g><g><use xlink:href="#bsjBcIOfe" opacity="1" fill="#9f9f9f" fill-opacity="1"></use></g><g><use xlink:href="#amHmcfkAE" opacity="1" fill="#898989" fill-opacity="1"></use></g></g></g><g><g><g><use xlink:href="#a7IGDScwhF" opacity="1" fill="#649642" fill-opacity="1"></use></g><g><use xlink:href="#a1kxQWwCCf" opacity="1" fill="#538333" fill-opacity="1"></use></g></g><g><g><use xlink:href="#b1o0BRZcXP" opacity="1" fill="#649642" fill-opacity="1"></use></g><g><use xlink:href="#a1yd7cf3E9" opacity="1" fill="#538333" fill-opacity="1"></use></g></g><g><g><use xlink:href="#b1rHzP0pPU" opacity="1" fill="#649642" fill-opacity="1"></use></g><g><use xlink:href="#a2aWBzM9Hu" opacity="1" fill="#538333" fill-opacity="1"></use></g></g></g><g><g><g><use xlink:href="#a2xgBZiJs4" opacity="1" fill="#88bf64" fill-opacity="1"></use></g><g><use xlink:href="#a4O1Z1UheG" opacity="1" fill="#73a154" fill-opacity="1"></use></g></g><g><g><use xlink:href="#c2DKPKPOjI" opacity="1" fill="#88bf64" fill-opacity="1"></use></g><g><use xlink:href="#aiMrnihbn" opacity="1" fill="#73a154" fill-opacity="1"></use></g></g></g><g><g><use xlink:href="#a25TxTdgpi" opacity="1" fill="#a8ef7a" fill-opacity="1"></use></g><g><use xlink:href="#bLlXiAnbw" opacity="1" fill="#79ba4e" fill-opacity="1"></use></g></g><g><g><use xlink:href="#a3WHjEM3uf" opacity="1" fill="#a8ef7a" fill-opacity="1"></use></g><g><use xlink:href="#fqgFyWPHX" opacity="1" fill="#79ba4e" fill-opacity="1"></use></g></g><g><use xlink:href="#bIfuEB2E" opacity="1" fill="#e1e1e1" fill-opacity="1"></use></g><g><use xlink:href="#a4tmiWeTm9" opacity="1" fill="#e1e1e1" fill-opacity="1"></use></g><g><use xlink:href="#b3CFUYRxIS" opacity="1" fill="#ffffff" fill-opacity="1"></use></g><g><use xlink:href="#g14LkxWFPo" opacity="1" fill="#e1e1e1" fill-opacity="1"></use></g><g><g><g><use xlink:href="#b2edobHxG7" opacity="1" fill="#9f9f9f" fill-opacity="1"></use></g><g><use xlink:href="#f2hjvpuVd" opacity="1" fill="#898989" fill-opacity="1"></use></g></g></g><g><g><g><use xlink:href="#bC9j0Lfsz" opacity="1" fill="#9f9f9f" fill-opacity="1"></use></g><g><use xlink:href="#d8rhq3kaS" opacity="1" fill="#898989" fill-opacity="1"></use></g></g><g><g><use xlink:href="#i34lR8KSaV" opacity="1" fill="#9f9f9f" fill-opacity="1"></use></g><g><use xlink:href="#g1NaRQdztn" opacity="1" fill="#898989" fill-opacity="1"></use></g></g><g><g><use xlink:href="#a1EaC97rwT" opacity="1" fill="#9f9f9f" fill-opacity="1"></use></g><g><use xlink:href="#a45yfveGuQ" opacity="1" fill="#898989" fill-opacity="1"></use></g></g></g><g><g><g><use xlink:href="#a35KhjCdB4" opacity="1" fill="#649642" fill-opacity="1"></use></g><g><use xlink:href="#b3pCzA3fSl" opacity="1" fill="#538333" fill-opacity="1"></use></g></g><g><g><use xlink:href="#b28LCJctzO" opacity="1" fill="#649642" fill-opacity="1"></use></g><g><use xlink:href="#a4O3dLhZB" opacity="1" fill="#538333" fill-opacity="1"></use></g></g></g><g><g><g><use xlink:href="#dagihv5OoN" opacity="1" fill="#649642" fill-opacity="1"></use></g><g><use xlink:href="#bb6l2WXLT" opacity="1" fill="#538333" fill-opacity="1"></use></g></g><g><g><use xlink:href="#cwtFZMCDC" opacity="1" fill="#649642" fill-opacity="1"></use></g><g><use xlink:href="#a2FbNy674D" opacity="1" fill="#538333" fill-opacity="1"></use></g></g></g><g><g><g><use xlink:href="#hyH57ZxhV" opacity="1" fill="#88bf64" fill-opacity="1"></use></g><g><use xlink:href="#a94BN0wH" opacity="1" fill="#73a154" fill-opacity="1"></use></g></g><g><g><use xlink:href="#aq7ErnRXM" opacity="1" fill="#88bf64" fill-opacity="1"></use></g><g><use xlink:href="#a7nrKQVTn" opacity="1" fill="#73a154" fill-opacity="1"></use></g></g></g><g><g><use xlink:href="#g16UlMsp8" opacity="1" fill="#a8ef7a" fill-opacity="1"></use></g><g><use xlink:href="#e3e4IKY1Oe" opacity="1" fill="#79ba4e" fill-opacity="1"></use></g></g><g><g><use xlink:href="#bG8hOebC4" opacity="1" fill="#a8ef7a" fill-opacity="1"></use></g><g><use xlink:href="#a2cn7jnaXr" opacity="1" fill="#79ba4e" fill-opacity="1"></use></g></g><g><use xlink:href="#b14PweqL5o" opacity="1" fill="#e1e1e1" fill-opacity="1"></use></g><g><use xlink:href="#b2QSFtyHCJ" opacity="1" fill="#e1e1e1" fill-opacity="1"></use></g><g><use xlink:href="#k1fCYiZCUD" opacity="1" fill="#e1e1e1" fill-opacity="1"></use></g><g><g><g><use xlink:href="#ddvpvaw1E" opacity="1" fill="#88bf64" fill-opacity="1"></use></g><g><use xlink:href="#f3u6SeFkss" opacity="1" fill="#73a154" fill-opacity="1"></use></g></g></g><g><g><use xlink:href="#a19ndWqIZw" opacity="1" fill="#a8ef7a" fill-opacity="1"></use></g><g><use xlink:href="#a6pvN8NhsP" opacity="1" fill="#79ba4e" fill-opacity="1"></use></g></g><g><g><use xlink:href="#a1MebdEI5V" opacity="1" fill="#a8ef7a" fill-opacity="1"></use></g><g><use xlink:href="#iBwlzgdbm" opacity="1" fill="#79ba4e" fill-opacity="1"></use></g></g><g><g><g><use xlink:href="#n1FPjuc7Xh" opacity="1" fill="#8dd55f" fill-opacity="1"></use></g></g><g><use xlink:href="#f19OdSsDq0" opacity="1" fill="#9f9f9f" fill-opacity="1"></use></g><g><use xlink:href="#c58CYdUC7C" opacity="1" fill="#ffffff" fill-opacity="1"></use></g><g><use xlink:href="#aK2HqqKEy" opacity="1" fill="#ffffff" fill-opacity="1"></use></g><g><use xlink:href="#a1J6dBCmQs" opacity="1" fill="#ffffff" fill-opacity="1"></use></g><g><use xlink:href="#b5k8mDX5DZ" opacity="1" fill="#ffffff" fill-opacity="1"></use></g><g><use xlink:href="#a1kP0Ahb6" opacity="1" fill="#ffffff" fill-opacity="1"></use></g><g><use xlink:href="#a2DX1lhb" opacity="1" fill="#ffffff" fill-opacity="1"></use></g><g><use xlink:href="#d17FTwfO61" opacity="1" fill="#ffffff" fill-opacity="1"></use></g><g><use xlink:href="#gflyFoFtS" opacity="1" fill="#ffffff" fill-opacity="1"></use></g><g><use xlink:href="#f2BAp4B60O" opacity="1" fill="#ffffff" fill-opacity="1"></use></g></g><g><g><use xlink:href="#bC3Jl7TBS" opacity="1" fill="#874f4c" fill-opacity="1"></use></g><g><use xlink:href="#f1xDGRI8t" opacity="1" fill="#c52d23" fill-opacity="1"></use></g><g><use xlink:href="#b3vATpa3ZR" opacity="1" fill="#c52d23" fill-opacity="1"></use></g><g><use xlink:href="#m1nReEmP9m" opacity="1" fill="#d13529" fill-opacity="1"></use></g><g><use xlink:href="#b18e6DDlNE" opacity="1" fill="#aa231a" fill-opacity="1"></use></g><g><use xlink:href="#adZAWxeDn" opacity="1" fill="#4a4a4a" fill-opacity="1"></use></g><g><use xlink:href="#bbhXwb52c" opacity="1" fill="#4a4a4a" fill-opacity="1"></use></g><g><use xlink:href="#d1h7NrMXNc" opacity="1" fill="#c52d23" fill-opacity="1"></use></g><g><use xlink:href="#bzmSkM8J6" opacity="1" fill="#c52d23" fill-opacity="1"></use></g><g><use xlink:href="#a2mRJGBnC" opacity="1" fill="#4a4a4a" fill-opacity="1"></use></g></g><g><g><use xlink:href="#b16l146BcY" opacity="1" fill="#874f4c" fill-opacity="1"></use></g><g><use xlink:href="#a8EwUptabQ" opacity="1" fill="#c52d23" fill-opacity="1"></use></g><g><use xlink:href="#db7AqDEiU" opacity="1" fill="#c52d23" fill-opacity="1"></use></g><g><use xlink:href="#bJ3ewh5BD" opacity="1" fill="#d13529" fill-opacity="1"></use></g><g><use xlink:href="#at21NtCF2" opacity="1" fill="#aa231a" fill-opacity="1"></use></g><g><use xlink:href="#e3sU4S0Mh" opacity="1" fill="#4a4a4a" fill-opacity="1"></use></g><g><use xlink:href="#i1MNbZD7yw" opacity="1" fill="#4a4a4a" fill-opacity="1"></use></g><g><use xlink:href="#jn8itEV2q" opacity="1" fill="#c52d23" fill-opacity="1"></use></g><g><use xlink:href="#a2x2sQPHY3" opacity="1" fill="#c52d23" fill-opacity="1"></use></g><g><use xlink:href="#a9wVW2fdW" opacity="1" fill="#4a4a4a" fill-opacity="1"></use></g></g><g><use xlink:href="#cZzpFLdgq" opacity="1" fill="#e1e1e1" fill-opacity="1"></use></g></g></svg>