<?xml version="1.0" encoding="UTF-8" standalone="no"?>
<!DOCTYPE svg PUBLIC "-//W3C//DTD SVG 1.1//EN" "http://www.w3.org/Graphics/SVG/1.1/DTD/svg11.dtd">
<svg version="1.1" xmlns="http://www.w3.org/2000/svg" xmlns:xlink="http://www.w3.org/1999/xlink" preserveAspectRatio="xMidYMid meet" viewBox="22.51097218826779 91.918 593.6953431967768 217.68960102272968" width="593.69" height="217.7"><defs><path d="M262.65 145.59L264.11 145.94L265.45 146.43L266.68 147.03L267.76 147.73L268.68 148.52L269.43 149.4L269.99 150.34L270.33 151.34L270.45 152.39L270.33 153.44L270.19 153.85L270.64 153.88L271.32 153.98L271.96 154.1L272.56 154.26L273.12 154.44L273.65 154.65L274.14 154.89L274.59 155.15L275.01 155.43L275.39 155.72L275.74 156.04L276.05 156.36L276.32 156.7L276.56 157.05L276.77 157.41L276.94 157.77L277.08 158.14L277.18 158.5L277.25 158.87L277.29 159.24L277.29 159.6L277.27 159.95L277.21 160.3L277.11 160.63L276.99 160.95L276.84 161.26L276.65 161.55L276.41 161.82L276.11 162.09L275.75 162.35L275.32 162.59L274.83 162.83L274.27 163.07L273.66 163.29L272.98 163.5L272.24 163.71L271.44 163.9L270.59 164.09L269.67 164.27L268.7 164.44L267.67 164.6L266.59 164.75L265.45 164.9L264.25 165.03L263 165.16L261.7 165.28L260.34 165.39L258.94 165.49L257.48 165.58L255.97 165.67L254.41 165.75L252.8 165.82L251.15 165.88L249.44 165.93L247.69 165.97L245.9 166.01L244.05 166.04L242.17 166.06L240.24 166.07L238.26 166.07L236.29 166.07L234.36 166.07L232.48 166.06L230.65 166.04L228.86 166.02L227.13 166L225.44 165.96L223.8 165.92L222.2 165.88L220.66 165.82L219.17 165.75L217.73 165.67L216.34 165.59L215 165.49L213.71 165.38L212.48 165.26L211.29 165.12L210.16 164.97L209.09 164.81L208.06 164.63L207.1 164.43L206.18 164.22L205.32 163.99L204.52 163.75L203.78 163.49L203.09 163.2L202.45 162.9L201.88 162.58L201.36 162.24L200.9 161.87L200.5 161.49L200.16 161.08L199.87 160.65L199.65 160.21L199.47 159.77L199.34 159.34L199.25 158.92L199.21 158.51L199.21 158.1L199.25 157.71L199.34 157.33L199.46 156.96L199.63 156.6L199.83 156.26L200.06 155.93L200.33 155.62L200.63 155.33L200.97 155.06L201.33 154.8L201.73 154.57L202.15 154.36L202.6 154.17L203.08 154L203.58 153.86L204.1 153.75L204.65 153.66L205.21 153.59L205.8 153.56L206.4 153.56L207.02 153.58L207.66 153.64L207.71 153.65L207.64 153.44L207.52 152.39L207.64 151.34L207.98 150.34L208.54 149.4L209.29 148.52L210.21 147.73L211.29 147.03L212.51 146.43L213.86 145.94L215.32 145.59L216.86 145.36L218.48 145.28L220.1 145.36L221.65 145.59L223.1 145.94L224.45 146.43L225.67 147.03L226.75 147.73L227.68 148.52L228.42 149.4L228.66 149.8L228.9 149.4L229.65 148.52L230.57 147.73L231.65 147.03L232.88 146.43L234.22 145.94L235.68 145.59L237.22 145.36L238.84 145.28L240.46 145.36L242.01 145.59L243.46 145.94L244.81 146.43L246.03 147.03L247.12 147.73L248.04 148.52L248.79 149.4L249.17 150.04L249.54 149.4L250.29 148.52L251.21 147.73L252.3 147.03L253.52 146.43L254.87 145.94L256.32 145.59L257.87 145.36L259.49 145.28L261.11 145.36L262.65 145.59Z" id="b1qSLWKRhH"></path><path d="M562.4 199L563.86 199.36L565.21 199.85L566.43 200.44L567.51 201.14L568.43 201.94L569.18 202.81L569.74 203.75L570.08 204.76L570.2 205.81L570.08 206.86L569.94 207.26L570.39 207.3L571.07 207.39L571.71 207.52L572.31 207.67L572.87 207.86L573.4 208.07L573.89 208.31L574.34 208.56L574.76 208.84L575.14 209.14L575.49 209.45L575.8 209.78L576.07 210.12L576.31 210.47L576.52 210.82L576.69 211.19L576.83 211.55L576.93 211.92L577 212.29L577.04 212.65L577.04 213.01L577.02 213.37L576.96 213.71L576.86 214.04L576.74 214.37L576.59 214.67L576.4 214.96L576.16 215.24L575.86 215.5L575.5 215.76L575.07 216.01L574.58 216.25L574.02 216.48L573.41 216.7L572.73 216.92L571.99 217.12L571.2 217.32L570.34 217.5L569.42 217.68L568.45 217.85L567.42 218.01L566.34 218.17L565.2 218.31L564 218.45L562.75 218.58L561.45 218.69L560.09 218.8L558.69 218.91L557.23 219L555.72 219.09L554.16 219.16L552.55 219.23L550.9 219.29L549.19 219.35L547.44 219.39L545.65 219.43L543.8 219.45L541.92 219.47L539.99 219.49L538.01 219.49L536.04 219.49L534.11 219.48L532.23 219.47L530.4 219.46L528.61 219.44L526.88 219.41L525.19 219.38L523.55 219.34L521.95 219.29L520.41 219.23L518.92 219.17L517.48 219.09L516.09 219L514.75 218.91L513.46 218.79L512.23 218.67L511.04 218.54L509.91 218.39L508.84 218.22L507.81 218.04L506.85 217.85L505.93 217.64L505.08 217.41L504.27 217.16L503.53 216.9L502.84 216.62L502.2 216.32L501.63 215.99L501.11 215.65L500.65 215.29L500.25 214.9L499.91 214.49L499.63 214.06L499.4 213.62L499.22 213.19L499.09 212.76L499 212.33L498.96 211.92L498.96 211.52L499 211.12L499.09 210.74L499.21 210.37L499.38 210.02L499.58 209.68L499.81 209.35L500.08 209.04L500.38 208.75L500.72 208.47L501.09 208.22L501.48 207.99L501.9 207.78L502.35 207.59L502.83 207.42L503.33 207.28L503.85 207.16L504.4 207.07L504.96 207.01L505.55 206.98L506.15 206.97L506.77 207L507.41 207.06L507.46 207.06L507.39 206.86L507.27 205.81L507.39 204.76L507.73 203.75L508.29 202.81L509.04 201.94L509.96 201.14L511.04 200.44L512.26 199.85L513.61 199.36L515.07 199L516.61 198.78L518.23 198.7L519.85 198.78L521.4 199L522.85 199.36L524.2 199.85L525.42 200.44L526.5 201.14L527.43 201.94L528.18 202.81L528.41 203.22L528.65 202.81L529.4 201.94L530.32 201.14L531.4 200.44L532.63 199.85L533.97 199.36L535.43 199L536.97 198.78L538.59 198.7L540.21 198.78L541.76 199L543.21 199.36L544.56 199.85L545.78 200.44L546.87 201.14L547.79 201.94L548.54 202.81L548.92 203.45L549.29 202.81L550.04 201.94L550.97 201.14L552.05 200.44L553.27 199.85L554.62 199.36L556.07 199L557.62 198.78L559.24 198.7L560.86 198.78L562.4 199Z" id="d7KBn6Cjxt"></path><path d="M457.6 154.35L459.06 154.71L460.41 155.19L461.63 155.79L462.71 156.49L463.63 157.29L464.38 158.16L464.94 159.1L465.28 160.11L465.4 161.15L465.28 162.2L465.14 162.61L465.59 162.65L466.27 162.74L466.91 162.87L467.51 163.02L468.07 163.21L468.6 163.42L469.09 163.65L469.54 163.91L469.96 164.19L470.34 164.49L470.69 164.8L471 165.13L471.27 165.47L471.51 165.82L471.72 166.17L471.89 166.53L472.03 166.9L472.13 167.27L472.2 167.64L472.24 168L472.24 168.36L472.22 168.71L472.16 169.06L472.06 169.39L471.94 169.71L471.79 170.02L471.6 170.31L471.36 170.59L471.06 170.85L470.7 171.11L470.27 171.36L469.78 171.6L469.22 171.83L468.61 172.05L467.93 172.27L467.19 172.47L466.4 172.67L465.54 172.85L464.62 173.03L463.65 173.2L462.62 173.36L461.54 173.52L460.4 173.66L459.2 173.8L457.95 173.92L456.65 174.04L455.29 174.15L453.89 174.26L452.43 174.35L450.92 174.43L449.36 174.51L447.75 174.58L446.1 174.64L444.39 174.69L442.64 174.74L440.85 174.77L439 174.8L437.12 174.82L435.19 174.84L433.21 174.84L431.24 174.84L429.31 174.83L427.43 174.82L425.6 174.81L423.81 174.79L422.08 174.76L420.39 174.73L418.75 174.69L417.15 174.64L415.61 174.58L414.12 174.52L412.68 174.44L411.29 174.35L409.95 174.25L408.66 174.14L407.43 174.02L406.24 173.88L405.11 173.74L404.04 173.57L403.01 173.39L402.05 173.2L401.13 172.99L400.27 172.76L399.47 172.51L398.73 172.25L398.04 171.97L397.4 171.67L396.83 171.34L396.31 171L395.85 170.64L395.45 170.25L395.11 169.84L394.83 169.41L394.6 168.97L394.42 168.53L394.29 168.1L394.2 167.68L394.16 167.27L394.16 166.87L394.2 166.47L394.29 166.09L394.41 165.72L394.58 165.37L394.78 165.02L395.01 164.7L395.28 164.39L395.58 164.1L395.92 163.82L396.28 163.57L396.68 163.34L397.1 163.12L397.55 162.93L398.03 162.77L398.53 162.63L399.05 162.51L399.6 162.42L400.16 162.36L400.75 162.33L401.35 162.32L401.97 162.35L402.61 162.41L402.66 162.41L402.59 162.2L402.47 161.15L402.59 160.11L402.93 159.1L403.49 158.16L404.24 157.29L405.16 156.49L406.24 155.79L407.46 155.19L408.81 154.71L410.27 154.35L411.81 154.13L413.43 154.05L415.05 154.13L416.6 154.35L418.05 154.71L419.4 155.19L420.62 155.79L421.7 156.49L422.63 157.29L423.38 158.16L423.61 158.56L423.85 158.16L424.6 157.29L425.52 156.49L426.6 155.79L427.83 155.19L429.17 154.71L430.63 154.35L432.17 154.13L433.79 154.05L435.41 154.13L436.96 154.35L438.41 154.71L439.76 155.19L440.98 155.79L442.07 156.49L442.99 157.29L443.74 158.16L444.12 158.8L444.49 158.16L445.24 157.29L446.16 156.49L447.25 155.79L448.47 155.19L449.82 154.71L451.27 154.35L452.82 154.13L454.44 154.05L456.06 154.13L457.6 154.35Z" id="b1zGOZJQtj"></path><path d="M138.93 186.53L140.39 186.89L141.74 187.37L142.96 187.97L144.04 188.67L144.96 189.47L145.71 190.34L146.27 191.28L146.61 192.28L146.73 193.33L146.61 194.38L146.47 194.79L146.92 194.83L147.6 194.92L148.24 195.05L148.84 195.2L149.4 195.39L149.93 195.6L150.42 195.83L150.87 196.09L151.29 196.37L151.67 196.67L152.02 196.98L152.33 197.31L152.6 197.65L152.84 198L153.05 198.35L153.22 198.71L153.36 199.08L153.46 199.45L153.53 199.82L153.57 200.18L153.57 200.54L153.55 200.89L153.49 201.24L153.4 201.57L153.27 201.89L153.12 202.2L152.93 202.49L152.69 202.77L152.39 203.03L152.03 203.29L151.6 203.54L151.11 203.78L150.55 204.01L149.94 204.23L149.26 204.44L148.52 204.65L147.73 204.85L146.87 205.03L145.95 205.21L144.98 205.38L143.95 205.54L142.87 205.7L141.73 205.84L140.53 205.98L139.28 206.1L137.98 206.22L136.62 206.33L135.22 206.44L133.76 206.53L132.25 206.61L130.69 206.69L129.08 206.76L127.43 206.82L125.72 206.87L123.97 206.92L122.18 206.95L120.33 206.98L118.45 207L116.52 207.01L114.54 207.02L112.57 207.02L110.64 207.01L108.76 207L106.93 206.99L105.14 206.97L103.41 206.94L101.72 206.91L100.08 206.87L98.48 206.82L96.94 206.76L95.45 206.7L94.01 206.62L92.62 206.53L91.28 206.43L89.99 206.32L88.76 206.2L87.57 206.06L86.44 205.92L85.37 205.75L84.34 205.57L83.38 205.38L82.46 205.17L81.61 204.94L80.8 204.69L80.06 204.43L79.37 204.15L78.73 203.85L78.16 203.52L77.64 203.18L77.18 202.82L76.78 202.43L76.44 202.02L76.16 201.59L75.93 201.15L75.75 200.71L75.62 200.28L75.53 199.86L75.49 199.45L75.49 199.05L75.53 198.65L75.62 198.27L75.74 197.9L75.91 197.55L76.11 197.2L76.34 196.88L76.61 196.57L76.91 196.28L77.25 196L77.62 195.75L78.01 195.52L78.43 195.3L78.88 195.11L79.36 194.95L79.86 194.81L80.38 194.69L80.93 194.6L81.49 194.54L82.08 194.51L82.68 194.5L83.3 194.53L83.94 194.59L83.99 194.59L83.92 194.38L83.8 193.33L83.92 192.28L84.26 191.28L84.82 190.34L85.57 189.47L86.49 188.67L87.57 187.97L88.79 187.37L90.14 186.89L91.6 186.53L93.14 186.31L94.76 186.23L96.38 186.31L97.93 186.53L99.38 186.89L100.73 187.37L101.95 187.97L103.04 188.67L103.96 189.47L104.71 190.34L104.94 190.74L105.18 190.34L105.93 189.47L106.85 188.67L107.93 187.97L109.16 187.37L110.5 186.89L111.96 186.53L113.5 186.31L115.12 186.23L116.74 186.31L118.29 186.53L119.74 186.89L121.09 187.37L122.32 187.97L123.4 188.67L124.32 189.47L125.07 190.34L125.45 190.98L125.82 190.34L126.57 189.47L127.5 188.67L128.58 187.97L129.8 187.37L131.15 186.89L132.6 186.53L134.15 186.31L135.77 186.23L137.39 186.31L138.93 186.53Z" id="a8ZFkve6eG"></path><path d="M410.39 106.63L411.85 106.99L413.19 107.47L414.42 108.07L415.5 108.77L416.42 109.57L417.17 110.44L417.72 111.38L418.07 112.39L418.19 113.43L418.07 114.48L417.93 114.89L418.38 114.93L419.06 115.02L419.7 115.15L420.3 115.3L420.86 115.49L421.39 115.7L421.88 115.93L422.33 116.19L422.75 116.47L423.13 116.77L423.47 117.08L423.78 117.41L424.06 117.75L424.3 118.1L424.51 118.45L424.68 118.82L424.82 119.18L424.92 119.55L424.99 119.92L425.03 120.28L425.03 120.64L425.01 120.99L424.94 121.34L424.85 121.67L424.73 121.99L424.57 122.3L424.39 122.59L424.15 122.87L423.85 123.13L423.49 123.39L423.06 123.64L422.57 123.88L422.01 124.11L421.4 124.33L420.72 124.55L419.98 124.75L419.18 124.95L418.33 125.13L417.41 125.31L416.44 125.48L415.41 125.64L414.33 125.8L413.18 125.94L411.99 126.08L410.74 126.2L409.44 126.32L408.08 126.43L406.67 126.54L405.22 126.63L403.71 126.72L402.15 126.79L400.54 126.86L398.89 126.92L397.18 126.97L395.43 127.02L393.63 127.06L391.79 127.08L389.91 127.1L387.97 127.12L386 127.12L384.03 127.12L382.1 127.11L380.22 127.1L378.39 127.09L376.6 127.07L374.86 127.04L373.18 127.01L371.53 126.97L369.94 126.92L368.4 126.86L366.91 126.8L365.47 126.72L364.08 126.63L362.74 126.53L361.45 126.42L360.21 126.3L359.03 126.17L357.9 126.02L356.82 125.85L355.8 125.67L354.83 125.48L353.92 125.27L353.06 125.04L352.26 124.79L351.51 124.53L350.82 124.25L350.19 123.95L349.62 123.62L349.1 123.28L348.64 122.92L348.24 122.53L347.9 122.12L347.61 121.69L347.39 121.25L347.21 120.81L347.07 120.38L346.99 119.96L346.95 119.55L346.95 119.15L346.99 118.75L347.08 118.37L347.2 118L347.36 117.65L347.56 117.3L347.8 116.98L348.07 116.67L348.37 116.38L348.71 116.1L349.07 115.85L349.47 115.62L349.89 115.4L350.34 115.21L350.82 115.05L351.32 114.91L351.84 114.79L352.39 114.7L352.95 114.64L353.54 114.61L354.14 114.6L354.76 114.63L355.39 114.69L355.45 114.69L355.38 114.48L355.26 113.43L355.38 112.39L355.72 111.38L356.28 110.44L357.02 109.57L357.95 108.77L359.03 108.07L360.25 107.47L361.6 106.99L363.06 106.63L364.6 106.41L366.22 106.33L367.84 106.41L369.39 106.63L370.84 106.99L372.19 107.47L373.41 108.07L374.49 108.77L375.42 109.57L376.16 110.44L376.4 110.84L376.64 110.44L377.39 109.57L378.31 108.77L379.39 108.07L380.61 107.47L381.96 106.99L383.42 106.63L384.96 106.41L386.58 106.33L388.2 106.41L389.75 106.63L391.2 106.99L392.55 107.47L393.77 108.07L394.85 108.77L395.78 109.57L396.53 110.44L396.9 111.08L397.28 110.44L398.03 109.57L398.95 108.77L400.03 108.07L401.26 107.47L402.61 106.99L404.06 106.63L405.61 106.41L407.23 106.33L408.85 106.41L410.39 106.63Z" id="b2PM1a5DCF"></path><path d="M157.07 112.33L158.53 112.69L159.87 113.18L161.1 113.78L162.18 114.48L163.1 115.27L163.85 116.14L164.4 117.09L164.75 118.09L164.87 119.14L164.75 120.19L164.61 120.59L165.06 120.63L165.74 120.72L166.38 120.85L166.98 121.01L167.54 121.19L168.07 121.4L168.56 121.64L169.01 121.9L169.43 122.18L169.81 122.47L170.15 122.79L170.46 123.11L170.74 123.45L170.98 123.8L171.19 124.16L171.36 124.52L171.5 124.89L171.6 125.25L171.67 125.62L171.71 125.98L171.71 126.35L171.69 126.7L171.63 127.04L171.53 127.38L171.41 127.7L171.25 128L171.07 128.29L170.83 128.57L170.53 128.84L170.17 129.09L169.74 129.34L169.25 129.58L168.69 129.81L168.08 130.04L167.4 130.25L166.66 130.45L165.86 130.65L165.01 130.84L164.09 131.02L163.12 131.19L162.09 131.35L161.01 131.5L159.86 131.64L158.67 131.78L157.42 131.91L156.12 132.03L154.76 132.14L153.35 132.24L151.9 132.33L150.39 132.42L148.83 132.5L147.22 132.57L145.57 132.63L143.86 132.68L142.11 132.72L140.31 132.76L138.47 132.79L136.59 132.81L134.65 132.82L132.68 132.82L130.71 132.82L128.78 132.82L126.9 132.81L125.07 132.79L123.28 132.77L121.54 132.75L119.86 132.71L118.21 132.67L116.62 132.62L115.08 132.57L113.59 132.5L112.15 132.42L110.76 132.34L109.42 132.24L108.13 132.13L106.89 132L105.71 131.87L104.58 131.72L103.51 131.56L102.48 131.38L101.51 131.18L100.6 130.97L99.74 130.74L98.94 130.5L98.19 130.23L97.5 129.95L96.87 129.65L96.3 129.33L95.78 128.98L95.32 128.62L94.92 128.23L94.58 127.83L94.29 127.39L94.07 126.95L93.89 126.52L93.75 126.09L93.67 125.67L93.63 125.25L93.63 124.85L93.67 124.46L93.76 124.07L93.88 123.71L94.04 123.35L94.24 123.01L94.48 122.68L94.75 122.37L95.05 122.08L95.39 121.81L95.75 121.55L96.15 121.32L96.57 121.11L97.02 120.92L97.5 120.75L98 120.61L98.52 120.49L99.07 120.41L99.63 120.34L100.22 120.31L100.82 120.31L101.44 120.33L102.07 120.39L102.13 120.4L102.06 120.19L101.94 119.14L102.06 118.09L102.4 117.09L102.96 116.14L103.7 115.27L104.63 114.48L105.71 113.78L106.93 113.18L108.28 112.69L109.74 112.33L111.28 112.11L112.9 112.03L114.52 112.11L116.07 112.33L117.52 112.69L118.87 113.18L120.09 113.78L121.17 114.48L122.1 115.27L122.84 116.14L123.08 116.55L123.32 116.14L124.07 115.27L124.99 114.48L126.07 113.78L127.29 113.18L128.64 112.69L130.1 112.33L131.64 112.11L133.26 112.03L134.88 112.11L136.43 112.33L137.88 112.69L139.23 113.18L140.45 113.78L141.53 114.48L142.46 115.27L143.21 116.14L143.58 116.79L143.96 116.14L144.71 115.27L145.63 114.48L146.72 113.78L147.94 113.18L149.29 112.69L150.74 112.33L152.29 112.11L153.91 112.03L155.53 112.11L157.07 112.33Z" id="gxXDYMLIB"></path><path d="M572.73 106.16L574.19 106.52L575.54 107.01L576.76 107.61L577.84 108.31L578.77 109.1L579.51 109.97L580.07 110.92L580.41 111.92L580.53 112.97L580.41 114.02L580.27 114.43L580.73 114.46L581.4 114.55L582.04 114.68L582.64 114.84L583.2 115.02L583.73 115.23L584.22 115.47L584.67 115.73L585.09 116.01L585.47 116.3L585.82 116.62L586.13 116.94L586.4 117.28L586.64 117.63L586.85 117.99L587.02 118.35L587.16 118.72L587.26 119.08L587.33 119.45L587.37 119.82L587.38 120.18L587.35 120.53L587.29 120.87L587.2 121.21L587.07 121.53L586.92 121.84L586.73 122.13L586.5 122.4L586.2 122.67L585.83 122.92L585.4 123.17L584.91 123.41L584.36 123.64L583.74 123.87L583.06 124.08L582.32 124.28L581.53 124.48L580.67 124.67L579.76 124.85L578.78 125.02L577.75 125.18L576.67 125.33L575.53 125.48L574.33 125.61L573.08 125.74L571.78 125.86L570.42 125.97L569.02 126.07L567.56 126.16L566.05 126.25L564.49 126.33L562.88 126.4L561.23 126.46L559.53 126.51L557.77 126.55L555.98 126.59L554.14 126.62L552.25 126.64L550.32 126.65L548.34 126.65L546.37 126.65L544.44 126.65L542.56 126.64L540.73 126.62L538.95 126.6L537.21 126.58L535.52 126.54L533.88 126.5L532.29 126.45L530.74 126.4L529.25 126.33L527.81 126.25L526.42 126.17L525.08 126.07L523.79 125.96L522.56 125.84L521.37 125.7L520.24 125.55L519.17 125.39L518.15 125.21L517.18 125.01L516.26 124.8L515.41 124.57L514.6 124.33L513.86 124.06L513.17 123.78L512.53 123.48L511.96 123.16L511.44 122.82L510.98 122.45L510.58 122.07L510.24 121.66L509.96 121.23L509.73 120.78L509.55 120.35L509.42 119.92L509.33 119.5L509.29 119.08L509.29 118.68L509.34 118.29L509.42 117.91L509.55 117.54L509.71 117.18L509.91 116.84L510.14 116.51L510.41 116.2L510.72 115.91L511.05 115.64L511.42 115.38L511.81 115.15L512.24 114.94L512.69 114.75L513.16 114.58L513.66 114.44L514.18 114.33L514.73 114.24L515.3 114.17L515.88 114.14L516.48 114.14L517.1 114.16L517.74 114.22L517.79 114.23L517.72 114.02L517.6 112.97L517.72 111.92L518.06 110.92L518.62 109.97L519.37 109.1L520.29 108.31L521.37 107.61L522.6 107.01L523.94 106.52L525.4 106.16L526.94 105.94L528.56 105.86L530.18 105.94L531.73 106.16L533.18 106.52L534.53 107.01L535.75 107.61L536.84 108.31L537.76 109.1L538.51 109.97L538.74 110.38L538.98 109.97L539.73 109.1L540.65 108.31L541.73 107.61L542.96 107.01L544.31 106.52L545.76 106.16L547.31 105.94L548.93 105.86L550.54 105.94L552.09 106.16L553.55 106.52L554.89 107.01L556.12 107.61L557.2 108.31L558.12 109.1L558.87 109.97L559.25 110.62L559.63 109.97L560.37 109.1L561.3 108.31L562.38 107.61L563.6 107.01L564.95 106.52L566.4 106.16L567.95 105.94L569.57 105.86L571.19 105.94L572.73 106.16Z" id="df3VOUvTw"></path><path d="M184.37 189.93L211.85 255.87L156.9 255.87L101.94 255.87L129.42 189.93L156.9 123.98L184.37 189.93Z" id="a6aFyMtvMR"></path><path d="M211.85 255.87L156.9 255.87L156.9 123.99L184.37 189.93L211.85 255.87Z" id="ddjminyVN"></path><path d="M329.86 171.15L351.49 245.04L308.23 245.04L264.97 245.04L286.6 171.15L308.23 97.26L329.86 171.15Z" id="d1GFzJ17uh"></path><path d="M351.49 245.04L308.23 245.04L308.23 97.26L329.86 171.15L351.49 245.04Z" id="bJLcIoU6a"></path><path d="M274.96 213.35L291.54 250.3L258.38 250.3L225.21 250.3L241.79 213.35L258.38 176.4L274.96 213.35Z" id="bZeBwfii4"></path><path d="M291.54 250.3L258.38 250.3L258.38 176.4L274.96 213.35L291.54 250.3Z" id="c2v4LkeeBb"></path><path d="M253.01 260.13C258.97 262.45 229.76 268.45 202.29 268.45C174.82 268.45 126.38 264.08 146.1 257.18C165.82 250.28 177.6 207.84 205.06 207.84C232.53 207.84 247.04 257.82 253.01 260.13Z" id="aCc777LwV"></path><path d="M209.09 208.21L211.03 208.64L212.92 209.24L214.76 209.99L216.56 210.89L218.32 211.91L220.02 213.06L221.69 214.32L223.3 215.69L224.88 217.15L226.41 218.7L227.89 220.33L229.33 222.02L230.73 223.78L232.09 225.58L233.4 227.43L234.68 229.3L235.91 231.21L237.1 233.12L238.25 235.04L239.36 236.95L240.43 238.85L241.47 240.73L242.46 242.57L243.41 244.37L244.33 246.12L245.21 247.82L246.06 249.44L246.86 250.98L247.63 252.44L248.37 253.8L249.07 255.06L249.73 256.2L250.36 257.22L250.96 258.11L251.52 258.85L252.05 259.44L252.54 259.87L253.01 260.13L253.39 260.31L253.64 260.51L253.77 260.71L253.78 260.93L253.67 261.15L253.44 261.39L253.1 261.63L252.66 261.89L252.11 262.14L251.46 262.41L250.71 262.68L249.87 262.95L248.94 263.22L247.92 263.5L246.82 263.78L245.64 264.06L244.38 264.34L243.05 264.61L241.65 264.89L240.18 265.16L238.65 265.42L237.07 265.68L235.42 265.94L233.72 266.19L231.98 266.43L230.19 266.66L228.35 266.88L226.48 267.09L224.58 267.29L222.64 267.47L220.67 267.65L218.68 267.8L216.67 267.95L214.64 268.07L212.6 268.18L210.54 268.28L208.48 268.35L206.42 268.4L204.35 268.44L202.29 268.45L201.81 268.45L201.81 208.06L203.03 207.92L205.06 207.84L207.1 207.93L209.09 208.21Z" id="d4EIJOyq9q"></path><path d="M342.98 265.61C367.29 277.1 323.86 265.61 296.39 265.61C268.92 265.61 235.16 275.52 247.54 267.7C259.93 259.88 266.88 196.81 294.35 196.81C321.81 196.81 318.67 254.12 342.98 265.61Z" id="c7zzlaD4Yk"></path><path d="M298.25 197.22L300.04 197.73L301.73 198.42L303.33 199.29L304.84 200.33L306.27 201.52L307.62 202.86L308.9 204.34L310.12 205.94L311.27 207.66L312.37 209.5L313.42 211.43L314.43 213.45L315.4 215.55L316.33 217.72L317.24 219.94L318.12 222.23L318.99 224.55L319.85 226.9L320.7 229.27L321.55 231.66L322.41 234.05L323.27 236.43L324.15 238.79L325.06 241.13L325.99 243.43L326.95 245.68L327.95 247.88L328.99 250.01L330.08 252.07L331.23 254.04L332.43 255.92L333.7 257.69L335.04 259.35L336.45 260.89L337.95 262.29L339.53 263.55L341.21 264.66L342.98 265.61L344.68 266.43L346.13 267.16L347.34 267.82L348.33 268.4L349.09 268.91L349.63 269.34L349.97 269.71L350.11 270.02L350.06 270.27L349.82 270.45L349.41 270.59L348.83 270.67L348.09 270.71L347.2 270.7L346.17 270.66L344.99 270.57L343.69 270.45L342.27 270.3L340.74 270.12L339.1 269.92L337.37 269.69L335.54 269.45L333.64 269.19L331.66 268.92L329.61 268.64L327.51 268.35L325.36 268.07L323.16 267.78L320.93 267.5L318.68 267.22L316.4 266.96L314.12 266.71L311.83 266.48L309.55 266.27L307.28 266.08L305.03 265.92L302.81 265.79L300.62 265.69L298.48 265.63L296.39 265.61L294.32 265.63L292.81 265.66L292.81 196.89L294.35 196.81L296.35 196.91L298.25 197.22Z" id="bgHMQ7TO"></path><path d="M161.48 269.05C161.48 287.42 147.86 277.82 120.4 277.82C92.93 277.82 48.61 279.42 56.41 265.64C64.21 251.85 87.67 186.49 115.14 186.49C142.61 186.49 161.48 250.68 161.48 269.05Z" id="inELpC1mn"></path><path d="M119.2 186.95L121.17 187.52L123.11 188.3L125.02 189.28L126.89 190.45L128.72 191.79L130.51 193.31L132.26 194.98L133.97 196.8L135.64 198.76L137.26 200.85L138.85 203.05L140.38 205.36L141.87 207.77L143.32 210.26L144.72 212.82L146.07 215.46L147.36 218.15L148.61 220.88L149.81 223.65L150.95 226.44L152.04 229.24L153.08 232.05L154.06 234.85L154.99 237.64L155.86 240.39L156.66 243.11L157.41 245.78L158.1 248.4L158.73 250.94L159.3 253.41L159.8 255.78L160.24 258.06L160.62 260.23L160.93 262.27L161.17 264.19L161.34 265.96L161.45 267.59L161.48 269.05L161.46 270.37L161.38 271.6L161.25 272.72L161.07 273.76L160.84 274.7L160.56 275.55L160.23 276.32L159.85 277.01L159.41 277.63L158.93 278.17L158.39 278.64L157.8 279.04L157.16 279.39L156.47 279.67L155.73 279.9L154.93 280.07L154.09 280.2L153.19 280.28L152.24 280.32L151.24 280.32L150.19 280.29L149.09 280.23L147.93 280.14L146.72 280.02L145.47 279.89L144.16 279.74L142.8 279.57L141.38 279.4L139.92 279.22L138.4 279.03L136.84 278.85L135.22 278.67L133.55 278.5L131.82 278.34L130.05 278.2L128.22 278.07L126.34 277.97L124.41 277.89L122.43 277.84L120.4 277.82L118.31 277.82L116.16 277.83L114.66 277.84L114.66 186.51L115.14 186.49L117.19 186.6L119.2 186.95Z" id="c2Dm8FOWxt"></path><path d="M255.94 228.54L255.94 279.68L255.19 279.64L252.65 279.45L250.07 279.21L247.47 278.93L244.84 278.61L242.21 278.25L239.57 277.85L236.94 277.42L234.33 276.97L231.74 276.48L229.19 275.97L226.69 275.45L224.23 274.9L221.84 274.34L219.52 273.77L217.28 273.19L215.14 272.61L213.09 272.02L211.15 271.44L209.32 270.86L207.63 270.28L206.07 269.72L204.65 269.17L203.39 268.63L202.29 268.11L201.36 267.62L200.62 267.15L200.06 266.71L199.7 266.3L199.56 265.92L199.63 265.58L199.93 265.28L200.46 265.03L201.24 264.82L202.27 264.65L203.57 264.55L205.14 264.49L206.99 264.5L208.92 264.46L210.71 264.3L212.37 264.01L213.91 263.6L215.35 263.08L216.67 262.46L217.9 261.74L219.04 260.92L220.1 260.03L221.09 259.06L222 258.02L222.86 256.92L223.67 255.76L224.43 254.55L225.15 253.3L225.85 252.01L226.52 250.7L227.18 249.36L227.84 248.01L228.49 246.65L229.15 245.29L229.83 243.94L230.54 242.6L231.27 241.28L232.04 239.99L232.86 238.73L233.73 237.51L234.67 236.34L235.67 235.22L236.75 234.16L237.91 233.17L239.16 232.26L240.52 231.43L241.98 230.68L243.55 230.03L245.25 229.49L247.07 229.05L249.03 228.73L251.14 228.53L253.39 228.47L255.63 228.52L255.94 228.54Z" id="b2fUvnlIyD"></path><path d="M259.97 228.9L261.68 229.22L263.23 229.62L264.64 230.1L265.9 230.65L267.03 231.27L268.03 231.95L268.92 232.69L269.7 233.47L270.38 234.31L270.96 235.18L271.47 236.09L271.9 237.04L272.26 238.01L272.57 239L272.83 240.01L273.04 241.04L273.23 242.07L273.38 243.1L273.53 244.13L273.67 245.16L273.8 246.17L273.95 247.16L274.12 248.13L274.31 249.08L274.54 249.99L274.81 250.87L275.13 251.71L275.52 252.5L275.97 253.23L276.5 253.92L277.11 254.54L277.82 255.09L278.63 255.57L279.55 255.98L280.59 256.31L281.76 256.55L283.07 256.7L283.39 256.69L283.72 256.61L284.06 256.48L284.41 256.29L284.77 256.05L285.15 255.76L285.54 255.42L285.94 255.05L286.35 254.64L286.78 254.2L287.23 253.73L287.69 253.23L288.17 252.72L288.67 252.19L289.18 251.65L289.72 251.1L290.27 250.55L290.84 250L291.44 249.45L292.06 248.91L292.7 248.38L293.36 247.87L294.04 247.38L294.76 246.92L295.49 246.48L296.25 246.08L297.04 245.71L297.86 245.39L298.7 245.11L299.57 244.87L300.47 244.7L301.4 244.57L302.37 244.51L303.36 244.52L304.38 244.59L305.44 244.73L306.53 244.96L307.66 245.26L308.82 245.65L310.01 246.13L311.2 246.67L312.35 247.24L313.45 247.84L314.5 248.46L315.51 249.11L316.47 249.78L317.39 250.48L318.27 251.19L319.1 251.92L319.89 252.67L320.63 253.43L321.33 254.21L321.99 255L322.6 255.8L323.17 256.61L323.7 257.42L324.19 258.24L324.63 259.06L325.04 259.89L325.4 260.72L325.72 261.54L326 262.37L326.24 263.19L326.44 264L326.6 264.8L326.71 265.6L326.79 266.39L326.83 267.16L326.83 267.92L326.79 268.67L326.72 269.39L326.6 270.1L326.45 270.79L326.25 271.46L326.02 272.1L325.76 272.72L325.45 273.31L325.11 273.87L324.73 274.4L324.32 274.91L323.57 275.65L322.73 276.34L321.79 276.97L320.75 277.56L319.63 278.09L318.43 278.57L317.15 279L315.8 279.39L314.38 279.74L312.9 280.04L311.36 280.31L309.77 280.54L308.12 280.73L306.44 280.89L304.71 281.02L302.95 281.12L301.17 281.2L299.35 281.25L297.52 281.27L295.67 281.27L293.81 281.26L291.95 281.22L290.08 281.18L288.22 281.11L286.37 281.04L284.53 280.96L282.71 280.87L280.91 280.77L279.14 280.67L277.41 280.57L275.71 280.47L274.05 280.37L272.44 280.27L270.88 280.18L269.38 280.1L267.94 280.03L266.57 279.98L265.26 279.93L264.03 279.91L262.89 279.9L260.52 279.87L258.08 279.78L255.59 279.64L253.79 279.51L253.79 228.47L256.03 228.52L258.09 228.66L259.97 228.9Z" id="j1jayDbAjA"></path><path d="M189.92 265.65C208.27 267.03 186.2 279.89 155.06 279.89C123.92 279.89 72.96 267.03 99.56 267.49C126.16 267.95 116.2 217.7 147.34 217.7C178.48 217.7 171.57 264.28 189.92 265.65Z" id="alzn6MvON"></path><path d="M153.73 218.45L155.6 219.01L157.36 219.7L159 220.53L160.53 221.49L161.96 222.56L163.3 223.73L164.55 225L165.71 226.36L166.8 227.8L167.82 229.31L168.77 230.88L169.66 232.51L170.5 234.18L171.29 235.89L172.03 237.63L172.75 239.39L173.43 241.16L174.09 242.93L174.73 244.7L175.35 246.45L175.97 248.18L176.6 249.88L177.22 251.53L177.86 253.14L178.52 254.69L179.2 256.17L179.91 257.58L180.65 258.91L181.44 260.14L182.27 261.27L183.16 262.29L184.1 263.2L185.11 263.98L186.19 264.62L187.35 265.12L188.59 265.47L189.92 265.65L191.22 265.78L192.37 265.94L193.38 266.15L194.24 266.39L194.97 266.66L195.56 266.97L196.01 267.3L196.33 267.66L196.52 268.05L196.59 268.46L196.54 268.89L196.37 269.34L196.08 269.8L195.68 270.28L195.16 270.77L194.54 271.26L193.82 271.76L192.99 272.27L192.07 272.78L191.05 273.29L189.93 273.8L188.73 274.3L187.44 274.79L186.07 275.28L184.61 275.75L183.08 276.21L181.47 276.65L179.79 277.08L178.04 277.48L176.22 277.86L174.35 278.22L172.41 278.55L170.41 278.84L168.36 279.11L166.25 279.34L164.1 279.53L161.9 279.69L159.66 279.8L157.38 279.87L155.06 279.89L152.69 279.87L150.44 279.81L150.44 217.89L151.73 218.04L153.73 218.45Z" id="b1GTE3kbe4"></path><path d="M255.48 276.02C286.67 282.12 234.35 280.3 206.63 280.3C178.91 280.3 127.97 285.33 155.03 276.02C182.09 266.7 173.86 230.09 201.58 230.09C229.3 230.09 224.29 269.91 255.48 276.02Z" id="bYMPWr6JA"></path><path d="M206.88 230.34L208.67 230.69L210.36 231.17L211.95 231.77L213.46 232.49L214.87 233.32L216.21 234.24L217.48 235.26L218.69 236.37L219.83 237.56L220.93 238.82L221.98 240.15L222.99 241.53L223.97 242.97L224.92 244.46L225.86 245.99L226.78 247.54L227.69 249.13L228.61 250.73L229.53 252.34L230.46 253.96L231.41 255.57L232.39 257.18L233.4 258.77L234.45 260.33L235.55 261.87L236.7 263.37L237.9 264.82L239.17 266.23L240.51 267.58L241.93 268.86L243.44 270.07L245.03 271.21L246.72 272.26L248.51 273.21L250.42 274.07L252.44 274.82L254.58 275.46L256.85 275.98L259.04 276.43L260.92 276.84L262.51 277.23L263.81 277.59L264.85 277.92L265.62 278.23L266.14 278.51L266.41 278.77L266.46 279.01L266.28 279.23L265.89 279.42L265.3 279.6L264.51 279.76L263.55 279.9L262.41 280.02L261.12 280.13L259.67 280.22L258.08 280.3L256.36 280.36L254.52 280.42L252.57 280.46L250.52 280.49L248.38 280.51L246.16 280.52L243.87 280.52L241.52 280.52L239.12 280.51L236.68 280.5L234.21 280.48L231.72 280.46L229.22 280.43L226.72 280.41L224.24 280.38L221.77 280.36L219.34 280.34L216.95 280.31L214.61 280.3L212.33 280.28L210.13 280.27L208 280.27L205.88 280.28L203.92 280.3L203.92 230.09L204.98 230.12L206.88 230.34Z" id="b152NRiYCP"></path><path d="M147.69 273.58C173.37 276.12 113.62 277.67 86.91 277.67C69.29 277.67 45.37 282.41 36.23 277.67C31.52 275.23 39.9 241.68 54.12 255.19C68.34 268.71 67.54 229.97 94.25 229.97C106.67 229.97 122 271.05 147.69 273.58Z" id="dzeufcV4s"></path><path d="M96.32 230.26L97.28 230.63L98.26 231.12L99.25 231.74L100.25 232.47L101.27 233.31L102.3 234.26L103.35 235.3L104.41 236.42L105.5 237.63L106.6 238.91L107.72 240.25L108.87 241.65L110.03 243.1L111.21 244.59L112.42 246.11L113.65 247.67L114.9 249.24L116.18 250.82L117.48 252.41L118.81 254L120.16 255.58L121.54 257.13L122.95 258.67L124.39 260.17L125.86 261.63L127.35 263.04L128.88 264.4L130.43 265.7L132.02 266.92L133.65 268.07L135.3 269.14L136.99 270.11L138.71 270.98L140.47 271.75L142.27 272.4L144.1 272.92L145.97 273.32L147.87 273.58L149.64 273.77L151.1 273.96L152.26 274.14L153.14 274.31L153.73 274.49L154.07 274.66L154.14 274.82L153.98 274.98L153.59 275.14L152.97 275.29L152.14 275.44L151.12 275.58L149.91 275.72L148.53 275.86L146.97 275.99L145.27 276.12L143.42 276.24L141.44 276.36L139.34 276.47L137.13 276.58L134.83 276.68L132.43 276.78L129.96 276.87L127.43 276.96L124.84 277.04L122.21 277.12L119.54 277.2L116.86 277.27L114.17 277.33L111.47 277.39L108.8 277.44L106.14 277.49L103.52 277.53L100.95 277.57L98.43 277.6L95.98 277.62L94.44 277.64L94.44 229.97L95.37 230.04L96.32 230.26Z" id="hiciP9Nbs"></path><path d="M171.55 155.03L170.93 155.11L170.62 155.09L170.32 155.01L170.04 154.88L169.76 154.71L169.47 154.5L169.17 154.26L168.86 154L168.52 153.74L168.15 153.48L167.75 153.22L167.29 152.98L166.79 152.77L166.23 152.59L165.6 152.45L164.9 152.37L164.12 152.35L163.34 152.4L162.65 152.51L162.02 152.68L161.47 152.9L160.97 153.15L160.53 153.43L160.14 153.73L159.79 154.04L159.47 154.35L159.18 154.64L158.92 154.92L158.67 155.17L158.43 155.38L158.19 155.54L157.95 155.64L157.7 155.68L157.41 155.63L157.1 155.51L156.76 155.32L156.41 155.06L156.03 154.77L155.62 154.43L155.2 154.08L154.74 153.72L154.26 153.35L153.75 153L153.21 152.68L152.64 152.39L152.04 152.15L151.41 151.97L150.75 151.86L150.06 151.83L149.39 151.89L148.81 152.03L148.3 152.23L147.86 152.49L147.48 152.79L147.14 153.12L146.85 153.47L146.59 153.83L146.35 154.19L146.14 154.53L145.93 154.85L145.72 155.13L145.5 155.37L145.27 155.55L145.01 155.65L144.72 155.68L144.2 155.6L143.69 155.42L143.47 155.31L156.54 123.93L157.84 121.51L171.78 154.98L171.55 155.03Z" id="b4aZX7AFaW"></path><path d="M319.08 127.82L318.53 127.92L318.24 127.89L317.98 127.77L317.72 127.58L317.46 127.33L317.19 127.04L316.9 126.72L316.58 126.39L316.22 126.07L315.81 125.78L315.35 125.52L314.81 125.33L314.2 125.2L313.5 125.17L312.8 125.24L312.19 125.4L311.66 125.65L311.2 125.95L310.8 126.3L310.45 126.67L310.15 127.05L309.88 127.42L309.64 127.76L309.41 128.05L309.2 128.29L308.98 128.44L308.75 128.5L308.49 128.43L308.2 128.24L307.88 127.96L307.54 127.61L307.17 127.2L306.78 126.76L306.35 126.31L305.89 125.87L305.4 125.47L304.88 125.12L304.33 124.86L303.74 124.69L303.11 124.64L302.51 124.73L302.01 124.93L301.58 125.22L301.22 125.58L300.92 125.99L300.66 126.42L300.44 126.87L300.24 127.3L300.04 127.69L299.85 128.03L299.65 128.29L299.43 128.45L299.17 128.5L298.69 128.38L298.24 128.13L307.9 96.75L308.86 94.33L319.16 127.8L319.08 127.82Z" id="f3KVSsIYI6"></path><path d="M269.53 196.19L268.93 196.26L268.63 196.24L268.34 196.15L268.07 196L267.78 195.82L267.48 195.61L267.15 195.39L266.79 195.16L266.36 194.95L265.88 194.77L265.31 194.62L264.66 194.53L263.9 194.5L263.15 194.55L262.5 194.67L261.94 194.85L261.46 195.07L261.05 195.32L260.7 195.58L260.4 195.84L260.13 196.08L259.88 196.3L259.64 196.47L259.41 196.58L259.16 196.62L258.87 196.57L258.55 196.44L258.21 196.23L257.83 195.97L257.42 195.68L256.97 195.37L256.49 195.07L255.98 194.78L255.42 194.53L254.83 194.33L254.19 194.2L253.52 194.17L252.87 194.23L252.34 194.38L251.89 194.59L251.52 194.85L251.21 195.14L250.95 195.44L250.72 195.75L250.52 196.03L250.31 196.28L250.09 196.47L249.85 196.59L249.58 196.62L249.06 196.54L248.65 196.39L258.31 176.38L259.26 174.84L269.57 196.18L269.53 196.19Z" id="frCK3bSGd"></path><path d="M408.24 187L435.72 252.94L380.76 252.94L325.81 252.94L353.28 187L380.76 121.05L408.24 187Z" id="c32yqAUumW"></path><path d="M435.72 252.94L380.77 252.94L380.77 121.05L408.24 187L435.72 252.94Z" id="a3onH5Lnp"></path><path d="M553.73 178.8L575.36 263.27L532.1 263.27L488.84 263.27L510.47 178.8L532.1 94.33L553.73 178.8Z" id="a19Un34O9D"></path><path d="M575.36 263.27L532.1 263.27L532.1 94.33L553.73 178.8L575.36 263.27Z" id="a41ZoQNfA"></path><path d="M498.83 210.42L515.41 247.37L482.24 247.37L449.08 247.37L465.66 210.42L482.24 173.46L498.83 210.42Z" id="f1nVCYl4WI"></path><path d="M515.41 247.37L482.24 247.37L482.24 173.46L498.83 210.42L515.41 247.37Z" id="b1wB575wYe"></path><path d="M476.88 257.72C482.84 260.04 453.62 266.04 426.16 266.04C398.69 266.04 350.25 261.67 369.97 254.77C389.69 247.87 401.46 205.43 428.93 205.43C456.4 205.43 470.91 255.41 476.88 257.72Z" id="a2ESFC5D73"></path><path d="M432.96 205.8L434.9 206.24L436.79 206.84L438.63 207.59L440.43 208.48L442.19 209.5L443.89 210.65L445.55 211.91L447.17 213.28L448.74 214.74L450.27 216.29L451.76 217.92L453.2 219.61L454.6 221.37L455.96 223.17L457.27 225.02L458.54 226.9L459.78 228.8L460.97 230.71L462.12 232.63L463.23 234.54L464.3 236.44L465.33 238.32L466.33 240.16L467.28 241.96L468.2 243.72L469.08 245.41L469.92 247.03L470.73 248.58L471.5 250.03L472.24 251.4L472.94 252.65L473.6 253.79L474.23 254.81L474.83 255.7L475.39 256.44L475.92 257.03L476.41 257.46L476.88 257.72L477.26 257.9L477.51 258.1L477.64 258.3L477.65 258.52L477.53 258.75L477.31 258.98L476.97 259.23L476.53 259.48L475.98 259.74L475.33 260L474.58 260.27L473.74 260.54L472.81 260.82L471.79 261.09L470.69 261.37L469.51 261.65L468.25 261.93L466.92 262.2L465.52 262.48L464.05 262.75L462.52 263.01L460.93 263.28L459.29 263.53L457.59 263.78L455.85 264.02L454.06 264.25L452.22 264.47L450.35 264.68L448.45 264.88L446.51 265.06L444.54 265.24L442.55 265.4L440.54 265.54L438.51 265.67L436.47 265.78L434.41 265.87L432.35 265.94L430.29 265.99L428.22 266.03L426.16 266.04L425.68 266.04L425.68 205.66L426.9 205.51L428.93 205.43L430.97 205.53L432.96 205.8Z" id="fTwhybZ8B"></path><path d="M566.85 263.2C591.16 274.69 547.73 263.2 520.26 263.2C492.79 263.2 459.03 273.11 471.41 265.29C483.8 257.47 490.75 194.4 518.22 194.4C545.68 194.4 542.54 251.71 566.85 263.2Z" id="d23QRzsatL"></path><path d="M522.11 194.81L523.9 195.32L525.6 196.01L527.19 196.88L528.71 197.92L530.14 199.11L531.49 200.45L532.77 201.93L533.98 203.53L535.14 205.26L536.24 207.09L537.29 209.02L538.3 211.04L539.26 213.14L540.2 215.31L541.11 217.54L541.99 219.82L542.86 222.14L543.72 224.49L544.57 226.86L545.42 229.25L546.27 231.64L547.14 234.02L548.02 236.38L548.92 238.72L549.85 241.02L550.82 243.27L551.82 245.47L552.86 247.6L553.95 249.66L555.09 251.63L556.3 253.51L557.57 255.28L558.91 256.94L560.32 258.48L561.82 259.88L563.4 261.14L565.08 262.25L566.85 263.2L568.55 264.02L570 264.75L571.21 265.41L572.2 265.99L572.96 266.5L573.5 266.93L573.84 267.3L573.98 267.61L573.92 267.86L573.69 268.05L573.28 268.18L572.7 268.27L571.96 268.3L571.07 268.3L570.03 268.25L568.86 268.16L567.56 268.04L566.14 267.89L564.61 267.71L562.97 267.51L561.24 267.28L559.41 267.04L557.51 266.78L555.53 266.51L553.48 266.23L551.38 265.94L549.23 265.66L547.03 265.37L544.8 265.09L542.55 264.81L540.27 264.55L537.99 264.3L535.7 264.07L533.42 263.86L531.15 263.67L528.9 263.51L526.67 263.38L524.49 263.28L522.35 263.22L520.26 263.2L518.19 263.22L516.68 263.26L516.68 194.49L518.22 194.4L520.22 194.5L522.11 194.81Z" id="c1SzJGk4z"></path><path d="M479.8 226.13L479.8 277.27L479.06 277.23L476.52 277.04L473.94 276.81L471.34 276.52L468.71 276.2L466.08 275.84L463.44 275.44L460.81 275.02L458.2 274.56L455.61 274.07L453.06 273.57L450.55 273.04L448.1 272.49L445.71 271.93L443.39 271.36L441.15 270.78L439.01 270.2L436.96 269.61L435.02 269.03L433.19 268.45L431.5 267.87L429.93 267.31L428.52 266.76L427.26 266.22L426.16 265.71L425.23 265.21L424.48 264.74L423.93 264.3L423.57 263.89L423.43 263.51L423.5 263.17L423.79 262.87L424.33 262.62L425.11 262.41L426.14 262.25L427.44 262.14L429.01 262.08L430.86 262.09L432.78 262.05L434.58 261.89L436.24 261.6L437.78 261.19L439.21 260.67L440.54 260.05L441.77 259.33L442.91 258.52L443.97 257.62L444.95 256.65L445.87 255.61L446.73 254.51L447.54 253.35L448.3 252.14L449.02 250.89L449.72 249.6L450.39 248.29L451.05 246.95L451.71 245.6L452.36 244.24L453.02 242.89L453.7 241.53L454.4 240.19L455.14 238.87L455.91 237.58L456.73 236.32L457.6 235.1L458.54 233.93L459.54 232.81L460.62 231.75L461.78 230.76L463.03 229.85L464.39 229.02L465.85 228.27L467.42 227.63L469.11 227.08L470.94 226.64L472.9 226.32L475.01 226.13L477.26 226.06L479.5 226.11L479.8 226.13Z" id="bTZkkeT3V"></path><path d="M481.95 226.25L483.84 226.49L485.55 226.81L487.1 227.22L488.51 227.7L489.77 228.25L490.9 228.86L491.9 229.54L492.79 230.28L493.57 231.06L494.25 231.9L494.83 232.77L495.34 233.68L495.77 234.63L496.13 235.6L496.44 236.59L496.69 237.6L496.91 238.63L497.09 239.66L497.25 240.69L497.4 241.72L497.53 242.75L497.67 243.76L497.82 244.75L497.99 245.73L498.18 246.67L498.41 247.58L498.68 248.46L499 249.3L499.38 250.09L499.84 250.83L500.36 251.51L500.98 252.13L501.69 252.68L502.5 253.16L503.42 253.57L504.46 253.9L505.63 254.14L506.94 254.29L507.26 254.28L507.59 254.21L507.93 254.07L508.28 253.88L508.64 253.64L509.02 253.35L509.41 253.01L509.81 252.64L510.22 252.23L510.65 251.79L511.1 251.32L511.56 250.82L512.04 250.31L512.54 249.78L513.05 249.24L513.59 248.69L514.14 248.14L514.71 247.59L515.31 247.04L515.92 246.5L516.56 245.97L517.23 245.46L517.91 244.97L518.62 244.51L519.36 244.07L520.12 243.67L520.91 243.3L521.72 242.98L522.57 242.7L523.44 242.47L524.34 242.29L525.27 242.16L526.23 242.1L527.23 242.11L528.25 242.18L529.31 242.33L530.4 242.55L531.53 242.85L532.69 243.24L533.88 243.72L535.07 244.26L536.22 244.83L537.32 245.43L538.37 246.05L539.38 246.7L540.34 247.37L541.26 248.07L542.14 248.78L542.97 249.51L543.76 250.26L544.5 251.02L545.2 251.8L545.86 252.59L546.47 253.39L547.04 254.2L547.57 255.01L548.06 255.83L548.5 256.66L548.91 257.48L549.27 258.31L549.59 259.13L549.87 259.96L550.11 260.78L550.31 261.59L550.46 262.4L550.58 263.19L550.66 263.98L550.7 264.75L550.7 265.51L550.66 266.26L550.59 266.98L550.47 267.69L550.32 268.38L550.12 269.05L549.89 269.69L549.63 270.31L549.32 270.9L548.98 271.46L548.6 272L548.19 272.5L547.44 273.24L546.6 273.93L545.65 274.57L544.62 275.15L543.5 275.68L542.3 276.16L541.02 276.59L539.67 276.98L538.25 277.33L536.77 277.63L535.23 277.9L533.63 278.13L531.99 278.32L530.31 278.48L528.58 278.61L526.82 278.72L525.03 278.79L523.22 278.84L521.39 278.86L519.54 278.86L517.68 278.85L515.82 278.82L513.95 278.77L512.09 278.7L510.24 278.63L508.4 278.55L506.58 278.46L504.78 278.36L503.01 278.26L501.28 278.16L499.58 278.06L497.92 277.96L496.31 277.86L494.75 277.78L493.25 277.7L491.81 277.63L490.43 277.57L489.13 277.52L487.9 277.5L486.75 277.49L484.38 277.46L481.95 277.37L479.46 277.23L477.66 277.1L477.66 226.06L479.9 226.11L481.95 226.25Z" id="a1KF92k6Ou"></path><path d="M413.79 263.25C432.14 264.62 410.07 277.49 378.93 277.49C347.79 277.49 296.83 264.62 323.43 265.08C350.03 265.54 340.07 215.29 371.21 215.29C402.35 215.29 395.44 261.87 413.79 263.25Z" id="e1HTa1J4Uo"></path><path d="M377.6 216.04L379.47 216.6L381.23 217.3L382.87 218.13L384.4 219.08L385.83 220.15L387.17 221.32L388.42 222.59L389.58 223.95L390.67 225.39L391.69 226.9L392.64 228.47L393.53 230.1L394.37 231.78L395.15 233.49L395.9 235.22L396.61 236.98L397.3 238.75L397.95 240.52L398.59 242.29L399.22 244.04L399.84 245.77L400.46 247.47L401.09 249.12L401.73 250.73L402.39 252.28L403.07 253.76L403.78 255.17L404.52 256.5L405.31 257.73L406.14 258.86L407.02 259.88L407.97 260.79L408.98 261.57L410.06 262.21L411.22 262.71L412.46 263.06L413.79 263.25L415.09 263.37L416.24 263.54L417.25 263.74L418.11 263.98L418.84 264.25L419.42 264.56L419.88 264.89L420.2 265.26L420.39 265.64L420.46 266.05L420.41 266.48L420.24 266.93L419.95 267.39L419.55 267.87L419.03 268.36L418.41 268.85L417.69 269.36L416.86 269.86L415.94 270.37L414.92 270.88L413.8 271.39L412.6 271.89L411.31 272.38L409.94 272.87L408.48 273.34L406.95 273.8L405.34 274.25L403.66 274.67L401.91 275.07L400.09 275.45L398.21 275.81L396.27 276.14L394.28 276.43L392.22 276.7L390.12 276.93L387.97 277.12L385.77 277.28L383.53 277.39L381.25 277.46L378.93 277.49L376.56 277.46L374.31 277.4L374.31 215.48L375.6 215.63L377.6 216.04Z" id="asBGy3RNm"></path><path d="M496.52 270.97C470.84 273.5 530.59 275.05 557.3 275.05C574.92 275.05 598.84 279.79 607.98 275.05C612.69 272.61 604.31 239.06 590.09 252.58C575.87 266.09 576.67 227.35 549.96 227.35C537.54 227.35 522.21 268.43 496.52 270.97Z" id="f2Px6KrgW"></path><path d="M560.27 229.99L561.68 230.75L563.03 231.6L564.3 232.53L565.5 233.52L566.64 234.57L567.72 235.68L568.75 236.83L569.72 238.01L570.65 239.22L571.53 240.45L572.38 241.69L573.18 242.92L573.96 244.15L574.71 245.36L575.44 246.55L576.15 247.7L576.84 248.81L577.52 249.86L578.19 250.86L578.86 251.79L579.53 252.65L580.2 253.42L580.89 254.09L581.58 254.67L582.29 255.13L583.03 255.47L583.78 255.69L584.57 255.77L585.38 255.7L586.24 255.48L587.13 255.1L588.07 254.55L589.06 253.82L590.1 252.9L591.15 251.98L592.18 251.22L593.19 250.62L594.18 250.18L595.14 249.89L596.08 249.74L596.99 249.71L597.87 249.82L598.72 250.04L599.55 250.37L600.35 250.81L601.12 251.34L601.86 251.96L602.57 252.66L603.25 253.43L603.89 254.27L604.5 255.17L605.08 256.13L605.63 257.12L606.14 258.16L606.61 259.22L607.05 260.31L607.45 261.41L607.82 262.52L608.14 263.63L608.43 264.74L608.68 265.82L608.88 266.89L609.05 267.93L609.18 268.94L609.26 269.9L609.3 270.81L609.29 271.66L609.24 272.44L609.15 273.16L609.01 273.79L608.83 274.34L608.59 274.79L608.31 275.14L607.98 275.38L607.27 275.72L606.51 276.02L605.69 276.29L604.82 276.53L603.91 276.74L602.94 276.92L601.94 277.07L600.9 277.2L599.81 277.3L598.69 277.38L597.53 277.44L596.34 277.47L595.11 277.49L593.86 277.48L592.58 277.46L591.27 277.43L589.94 277.38L588.59 277.32L587.22 277.24L585.82 277.16L584.42 277.06L583 276.96L581.57 276.86L580.12 276.75L578.67 276.63L577.22 276.51L575.76 276.39L574.29 276.28L572.83 276.16L571.37 276.05L569.91 275.94L568.46 275.84L567.02 275.74L565.59 275.65L564.16 275.57L562.76 275.51L561.36 275.45L559.99 275.41L558.63 275.39L557.3 275.38L557.3 275.38L557.3 228.79L558.77 229.32L560.27 229.99Z" id="beeMEZ9o"></path><path d="M479.35 273.61C510.54 279.71 458.22 277.9 430.5 277.9C402.78 277.9 351.83 282.92 378.9 273.61C405.96 264.29 397.73 227.68 425.45 227.68C453.17 227.68 448.16 267.5 479.35 273.61Z" id="aPbnImfBb"></path><path d="M430.75 227.93L432.54 228.28L434.23 228.76L435.82 229.36L437.32 230.08L438.74 230.91L440.08 231.83L441.35 232.85L442.56 233.96L443.7 235.15L444.8 236.41L445.85 237.74L446.86 239.12L447.84 240.56L448.79 242.05L449.72 243.58L450.65 245.13L451.56 246.72L452.47 248.32L453.39 249.93L454.33 251.55L455.28 253.16L456.26 254.77L457.27 256.36L458.32 257.92L459.42 259.46L460.57 260.96L461.77 262.42L463.04 263.82L464.38 265.17L465.8 266.45L467.3 267.66L468.9 268.8L470.59 269.85L472.38 270.8L474.29 271.66L476.31 272.41L478.45 273.05L480.72 273.57L482.91 274.02L484.79 274.43L486.38 274.82L487.68 275.18L488.72 275.51L489.49 275.82L490 276.1L490.28 276.36L490.32 276.6L490.15 276.82L489.76 277.02L489.16 277.19L488.38 277.35L487.42 277.49L486.28 277.61L484.98 277.72L483.54 277.81L481.95 277.89L480.23 277.95L478.39 278.01L476.44 278.05L474.39 278.08L472.25 278.1L470.03 278.11L467.73 278.11L465.38 278.11L462.98 278.1L460.54 278.09L458.07 278.07L455.59 278.05L453.09 278.03L450.59 278L448.11 277.98L445.64 277.95L443.21 277.93L440.82 277.91L438.48 277.89L436.2 277.87L434 277.86L431.87 277.86L429.75 277.87L427.79 277.89L427.79 227.68L428.85 227.71L430.75 227.93Z" id="bcUeoRFhf"></path><path d="M371.56 271.17C397.24 273.71 337.49 275.26 310.78 275.26C293.16 275.26 269.24 280 260.1 275.26C255.39 272.82 263.77 239.27 277.99 252.78C292.21 266.3 291.41 227.56 318.12 227.56C330.54 227.56 345.87 268.64 371.56 271.17Z" id="a6gNQe5lw"></path><path d="M321.15 228.22L322.13 228.71L323.11 229.33L324.12 230.06L325.13 230.9L326.17 231.85L327.22 232.89L328.28 234.02L329.37 235.22L330.47 236.5L331.59 237.84L332.74 239.24L333.9 240.69L335.08 242.18L336.29 243.71L337.52 245.26L338.77 246.83L340.05 248.41L341.35 250L342.68 251.59L344.03 253.17L345.41 254.73L346.82 256.26L348.26 257.76L349.72 259.22L351.22 260.63L352.75 261.99L354.3 263.29L355.89 264.52L357.51 265.66L359.17 266.73L360.86 267.7L362.58 268.57L364.34 269.34L366.13 269.99L367.97 270.51L369.84 270.91L371.74 271.17L373.51 271.36L374.97 271.55L376.13 271.73L377 271.91L377.6 272.08L377.93 272.25L378.01 272.41L377.85 272.57L377.45 272.73L376.84 272.88L376.01 273.03L374.99 273.18L373.78 273.32L372.39 273.45L370.84 273.58L369.14 273.71L367.29 273.83L365.31 273.95L363.21 274.06L361 274.17L358.7 274.27L356.3 274.37L353.83 274.46L351.3 274.55L348.71 274.64L346.07 274.71L343.41 274.79L340.73 274.86L338.03 274.92L335.34 274.98L332.66 275.03L330.01 275.08L327.39 275.12L324.82 275.16L322.3 275.19L319.85 275.21L318.31 275.23L318.31 227.56L319.24 227.63L320.19 227.86L321.15 228.22Z" id="axRVlzr4l"></path><path d="M395.42 152.63L394.8 152.7L394.49 152.68L394.19 152.6L393.91 152.47L393.62 152.3L393.34 152.09L393.04 151.85L392.73 151.6L392.39 151.33L392.02 151.07L391.62 150.81L391.16 150.57L390.66 150.36L390.1 150.18L389.47 150.05L388.77 149.96L387.99 149.94L387.21 149.99L386.51 150.11L385.89 150.28L385.33 150.49L384.84 150.74L384.4 151.03L384.01 151.32L383.66 151.63L383.34 151.94L383.05 152.24L382.79 152.51L382.54 152.76L382.3 152.97L382.06 153.13L381.82 153.23L381.57 153.27L381.28 153.23L380.97 153.1L380.63 152.91L380.28 152.65L379.9 152.36L379.49 152.03L379.06 151.67L378.61 151.31L378.13 150.94L377.62 150.59L377.08 150.27L376.51 149.98L375.91 149.74L375.28 149.56L374.62 149.45L373.93 149.42L373.26 149.48L372.68 149.62L372.17 149.82L371.73 150.08L371.34 150.38L371.01 150.71L370.72 151.06L370.46 151.42L370.22 151.78L370 152.12L369.8 152.44L369.59 152.73L369.37 152.96L369.14 153.14L368.88 153.25L368.59 153.27L368.06 153.19L367.55 153.01L367.34 152.9L380.41 121.52L381.71 119.1L395.65 152.57L395.42 152.63Z" id="a9DoNDscF"></path><path d="M542.91 129.7L542.39 129.8L542.13 129.77L541.88 129.66L541.65 129.47L541.41 129.22L541.16 128.92L540.9 128.6L540.62 128.26L540.3 127.92L539.95 127.59L539.55 127.3L539.1 127.04L538.6 126.85L538.02 126.73L537.36 126.69L536.71 126.76L536.14 126.93L535.63 127.17L535.19 127.47L534.8 127.82L534.46 128.2L534.16 128.6L533.9 128.99L533.66 129.37L533.44 129.72L533.24 130.01L533.04 130.24L532.83 130.39L532.62 130.45L532.37 130.38L532.11 130.2L531.82 129.92L531.51 129.57L531.18 129.15L530.82 128.7L530.43 128.23L530.03 127.77L529.59 127.32L529.13 126.92L528.63 126.57L528.11 126.31L527.56 126.15L526.98 126.11L526.42 126.19L525.94 126.39L525.53 126.67L525.19 127.04L524.89 127.45L524.63 127.9L524.41 128.36L524.22 128.82L524.04 129.26L523.86 129.66L523.68 129.99L523.49 130.25L523.28 130.41L523.04 130.45L522.59 130.33L522.17 130.08L522.11 130.03L531.77 94.65L532.72 91.92L543.03 129.66L542.91 129.7Z" id="ejkgYBHXu"></path><path d="M493.4 193.78L492.8 193.85L492.5 193.83L492.21 193.74L491.93 193.59L491.65 193.41L491.35 193.2L491.02 192.98L490.65 192.75L490.23 192.54L489.74 192.36L489.18 192.21L488.53 192.12L487.77 192.09L487.02 192.14L486.37 192.27L485.81 192.44L485.33 192.66L484.92 192.91L484.57 193.17L484.27 193.43L483.99 193.67L483.75 193.89L483.51 194.06L483.27 194.17L483.03 194.21L482.74 194.17L482.42 194.03L482.07 193.82L481.7 193.56L481.29 193.27L480.84 192.96L480.36 192.66L479.85 192.37L479.29 192.12L478.7 191.92L478.06 191.79L477.39 191.76L476.74 191.82L476.21 191.97L475.76 192.18L475.39 192.44L475.08 192.73L474.82 193.04L474.59 193.34L474.38 193.62L474.18 193.87L473.96 194.06L473.72 194.18L473.44 194.21L472.93 194.13L472.52 193.98L482.18 173.98L483.13 172.43L493.43 193.77L493.4 193.78Z" id="a1uaUynDcl"></path><path d="M606.47 271.08C611.85 271.08 616.21 275.44 616.21 280.82C616.21 286.58 616.21 294.11 616.21 299.87C616.21 305.25 611.85 309.61 606.47 309.61C489.68 309.61 149.04 309.61 32.25 309.61C26.87 309.61 22.51 305.25 22.51 299.87C22.51 294.11 22.51 286.58 22.51 280.82C22.51 275.44 26.87 271.08 32.25 271.08C149.04 271.08 489.68 271.08 606.47 271.08Z" id="ctv8b5mPR"></path><path d="M22.51 281.27L616.21 281.27L616.21 299.42L22.51 299.42L22.51 281.27Z" id="b3mm5IVOAJ"></path><path d="M49.31 287.84L75.79 287.84L75.79 292.85L49.31 292.85L49.31 287.84Z" id="a3yIihqo9d"></path><path d="M115.51 287.84L141.99 287.84L141.99 292.85L115.51 292.85L115.51 287.84Z" id="aAnsGpXwf"></path><path d="M179.75 287.84L206.23 287.84L206.23 292.85L179.75 292.85L179.75 287.84Z" id="a5ACTDPicB"></path><path d="M243.19 287.84L269.67 287.84L269.67 292.85L243.19 292.85L243.19 287.84Z" id="c1dTI625p"></path><path d="M308.95 287.84L335.42 287.84L335.42 292.85L308.95 292.85L308.95 287.84Z" id="e2JbunJdh3"></path><path d="M375.15 287.84L401.63 287.84L401.63 292.85L375.15 292.85L375.15 287.84Z" id="aaSuxqwtC"></path><path d="M442.3 287.84L468.78 287.84L468.78 292.85L442.3 292.85L442.3 287.84Z" id="qio19ryUI"></path><path d="M505.59 287.84L532.07 287.84L532.07 292.85L505.59 292.85L505.59 287.84Z" id="d1kyIrCtDS"></path><path d="M567.02 287.84L593.5 287.84L593.5 292.85L567.02 292.85L567.02 287.84Z" id="a5IdOEwO"></path><path d="M29.01 226.57C29.52 226.57 29.93 226.99 29.93 227.5C29.93 237.38 29.93 266.12 29.93 276C29.93 276.51 29.52 276.92 29.01 276.92C28.82 276.92 29.19 276.92 29.01 276.92C28.5 276.92 28.08 276.51 28.08 276C28.08 266.12 28.08 237.38 28.08 227.5C28.08 226.99 28.5 226.57 29.01 226.57C29.19 226.57 28.82 226.57 29.01 226.57Z" id="f3fwUEp4w1"></path><path d="M27.09 231.4L30.92 231.4L30.92 234.37L27.09 234.37L27.09 231.4Z" id="a6syvgc9UO"></path><path d="M49.32 221.75L59.95 221.75L59.95 236.18L49.32 236.18L49.32 221.75Z" id="c3UZyr2bZm"></path><path d="M26.61 218.06L54.18 218.06L54.18 233.67L26.61 233.67L26.61 218.06Z" id="icPbgaU27"></path><path d="M54.18 233.67L49.32 236.13L49.32 233.67L54.18 233.67Z" id="a3qZuoWGn"></path><path d="M30.14 269.69C30.57 269.69 30.92 270.04 30.92 270.47C30.92 270.63 30.92 270.32 30.92 270.47C30.92 270.9 30.57 271.25 30.14 271.25C29.53 271.25 28.48 271.25 27.87 271.25C27.44 271.25 27.09 270.9 27.09 270.47C27.09 270.32 27.09 270.63 27.09 270.47C27.09 270.04 27.44 269.69 27.87 269.69C28.48 269.69 29.53 269.69 30.14 269.69Z" id="a37XxkToB4"></path><path d="M30.14 271.63C30.57 271.63 30.92 271.98 30.92 272.41C30.92 272.57 30.92 272.26 30.92 272.41C30.92 272.85 30.57 273.19 30.14 273.19C29.53 273.19 28.48 273.19 27.87 273.19C27.44 273.19 27.09 272.85 27.09 272.41C27.09 272.26 27.09 272.57 27.09 272.41C27.09 271.98 27.44 271.63 27.87 271.63C28.48 271.63 29.53 271.63 30.14 271.63Z" id="aqOPRgI8"></path><path d="M58.01 226.84L67.66 236.18L58.01 236.18L58.01 226.84Z" id="a1LdblpBW2"></path><path d="M58.82 231.09L68.46 221.75L58.82 221.75L58.82 231.09Z" id="etReT7kIs"></path><path d="M30.14 275.85C30.57 275.85 30.92 276.2 30.92 276.63C30.92 277.15 30.92 277.95 30.92 278.47C30.92 278.9 30.57 279.25 30.14 279.25C29.53 279.25 28.48 279.25 27.87 279.25C27.44 279.25 27.09 278.9 27.09 278.47C27.09 277.95 27.09 277.15 27.09 276.63C27.09 276.2 27.44 275.85 27.87 275.85C28.48 275.85 29.53 275.85 30.14 275.85Z" id="b1IQf2MMIO"></path><path d="M610.55 225.11C610.04 225.11 609.63 225.53 609.63 226.04C609.63 235.92 609.63 264.66 609.63 274.54C609.63 275.05 610.04 275.47 610.55 275.47C610.73 275.47 610.36 275.47 610.55 275.47C611.06 275.47 611.47 275.05 611.47 274.54C611.47 264.66 611.47 235.92 611.47 226.04C611.47 225.53 611.06 225.11 610.55 225.11C610.36 225.11 610.73 225.11 610.55 225.11Z" id="a29nUrNlU4"></path><path d="M612.46 229.94L608.63 229.94L608.63 232.91L612.46 232.91L612.46 229.94Z" id="b1hooqfmu"></path><path d="M590.24 220.29L579.6 220.29L579.6 234.72L590.24 234.72L590.24 220.29Z" id="c5ru4Og3sC"></path><path d="M612.95 216.6L585.37 216.6L585.37 232.21L612.95 232.21L612.95 216.6Z" id="aY5IOrR9"></path><path d="M585.37 232.21L590.24 234.67L590.24 232.21L585.37 232.21Z" id="ekkSxa1lF"></path><path d="M609.41 268.23C608.98 268.23 608.63 268.58 608.63 269.01C608.63 269.17 608.63 268.86 608.63 269.01C608.63 269.44 608.98 269.79 609.41 269.79C610.02 269.79 611.07 269.79 611.68 269.79C612.11 269.79 612.46 269.44 612.46 269.01C612.46 268.86 612.46 269.17 612.46 269.01C612.46 268.58 612.11 268.23 611.68 268.23C611.07 268.23 610.02 268.23 609.41 268.23Z" id="b9Nvw2dcVf"></path><path d="M609.41 270.17C608.98 270.17 608.63 270.52 608.63 270.95C608.63 271.11 608.63 270.8 608.63 270.95C608.63 271.39 608.98 271.73 609.41 271.73C610.02 271.73 611.07 271.73 611.68 271.73C612.11 271.73 612.46 271.39 612.46 270.95C612.46 270.8 612.46 271.11 612.46 270.95C612.46 270.52 612.11 270.17 611.68 270.17C611.07 270.17 610.02 270.17 609.41 270.17Z" id="acg0vf9ke"></path><path d="M581.54 225.38L571.9 234.72L581.54 234.72L581.54 225.38Z" id="bRa8M9mh"></path><path d="M580.73 229.63L571.09 220.29L580.73 220.29L580.73 229.63Z" id="g45Mu7UxKs"></path><path d="M609.41 274.39C608.98 274.39 608.63 274.74 608.63 275.17C608.63 275.69 608.63 276.49 608.63 277.01C608.63 277.44 608.98 277.79 609.41 277.79C610.02 277.79 611.07 277.79 611.68 277.79C612.11 277.79 612.46 277.44 612.46 277.01C612.46 276.49 612.46 275.69 612.46 275.17C612.46 274.74 612.11 274.39 611.68 274.39C611.07 274.39 610.02 274.39 609.41 274.39Z" id="e8WzbUaRy"></path></defs><g><g><use xlink:href="#b1qSLWKRhH" opacity="1" fill="#ffffff" fill-opacity="1"></use></g><g><use xlink:href="#d7KBn6Cjxt" opacity="1" fill="#ffffff" fill-opacity="1"></use></g><g><use xlink:href="#b1zGOZJQtj" opacity="1" fill="#ffffff" fill-opacity="1"></use></g><g><use xlink:href="#a8ZFkve6eG" opacity="1" fill="#ffffff" fill-opacity="1"></use></g><g><use xlink:href="#b2PM1a5DCF" opacity="1" fill="#ffffff" fill-opacity="1"></use></g><g><use xlink:href="#gxXDYMLIB" opacity="1" fill="#ffffff" fill-opacity="1"></use></g><g><use xlink:href="#df3VOUvTw" opacity="1" fill="#ffffff" fill-opacity="1"></use></g><g><g><g><g><g><use xlink:href="#a6aFyMtvMR" opacity="1" fill="#9f9f9f" fill-opacity="1"></use></g><g><use xlink:href="#ddjminyVN" opacity="1" fill="#898989" fill-opacity="1"></use></g></g><g><g><use xlink:href="#d1GFzJ17uh" opacity="1" fill="#9f9f9f" fill-opacity="1"></use></g><g><use xlink:href="#bJLcIoU6a" opacity="1" fill="#898989" fill-opacity="1"></use></g></g><g><g><use xlink:href="#bZeBwfii4" opacity="1" fill="#9f9f9f" fill-opacity="1"></use></g><g><use xlink:href="#c2v4LkeeBb" opacity="1" fill="#898989" fill-opacity="1"></use></g></g></g><g><g><g><use xlink:href="#aCc777LwV" opacity="1" fill="#649642" fill-opacity="1"></use></g><g><use xlink:href="#d4EIJOyq9q" opacity="1" fill="#538333" fill-opacity="1"></use></g></g><g><g><use xlink:href="#c7zzlaD4Yk" opacity="1" fill="#649642" fill-opacity="1"></use></g><g><use xlink:href="#bgHMQ7TO" opacity="1" fill="#538333" fill-opacity="1"></use></g></g><g><g><use xlink:href="#inELpC1mn" opacity="1" fill="#649642" fill-opacity="1"></use></g><g><use xlink:href="#c2Dm8FOWxt" opacity="1" fill="#538333" fill-opacity="1"></use></g></g></g><g><g><g><use xlink:href="#b2fUvnlIyD" opacity="1" fill="#88bf64" fill-opacity="1"></use></g><g><use xlink:href="#j1jayDbAjA" opacity="1" fill="#73a154" fill-opacity="1"></use></g></g><g><g><use xlink:href="#alzn6MvON" opacity="1" fill="#88bf64" fill-opacity="1"></use></g><g><use xlink:href="#b1GTE3kbe4" opacity="1" fill="#73a154" fill-opacity="1"></use></g></g></g><g><g><g><use xlink:href="#bYMPWr6JA" opacity="1" fill="#a8ef7a" fill-opacity="1"></use></g><g><use xlink:href="#b152NRiYCP" opacity="1" fill="#79ba4e" fill-opacity="1"></use></g></g><g><g><use xlink:href="#dzeufcV4s" opacity="1" fill="#a8ef7a" fill-opacity="1"></use></g><g><use xlink:href="#hiciP9Nbs" opacity="1" fill="#79ba4e" fill-opacity="1"></use></g></g></g></g><g><use xlink:href="#b4aZX7AFaW" opacity="1" fill="#e1e1e1" fill-opacity="1"></use></g><g><use xlink:href="#f3KVSsIYI6" opacity="1" fill="#e1e1e1" fill-opacity="1"></use></g><g><use xlink:href="#frCK3bSGd" opacity="1" fill="#e1e1e1" fill-opacity="1"></use></g></g><g><g><g><g><g><use xlink:href="#c32yqAUumW" opacity="1" fill="#9f9f9f" fill-opacity="1"></use></g><g><use xlink:href="#a3onH5Lnp" opacity="1" fill="#898989" fill-opacity="1"></use></g></g><g><g><use xlink:href="#a19Un34O9D" opacity="1" fill="#9f9f9f" fill-opacity="1"></use></g><g><use xlink:href="#a41ZoQNfA" opacity="1" fill="#898989" fill-opacity="1"></use></g></g><g><g><use xlink:href="#f1nVCYl4WI" opacity="1" fill="#9f9f9f" fill-opacity="1"></use></g><g><use xlink:href="#b1wB575wYe" opacity="1" fill="#898989" fill-opacity="1"></use></g></g></g><g><g><g><use xlink:href="#a2ESFC5D73" opacity="1" fill="#649642" fill-opacity="1"></use></g><g><use xlink:href="#fTwhybZ8B" opacity="1" fill="#538333" fill-opacity="1"></use></g></g><g><g><use xlink:href="#d23QRzsatL" opacity="1" fill="#649642" fill-opacity="1"></use></g><g><use xlink:href="#c1SzJGk4z" opacity="1" fill="#538333" fill-opacity="1"></use></g></g></g><g><g><g><use xlink:href="#bTZkkeT3V" opacity="1" fill="#88bf64" fill-opacity="1"></use></g><g><use xlink:href="#a1KF92k6Ou" opacity="1" fill="#73a154" fill-opacity="1"></use></g></g><g><g><use xlink:href="#e1HTa1J4Uo" opacity="1" fill="#88bf64" fill-opacity="1"></use></g><g><use xlink:href="#asBGy3RNm" opacity="1" fill="#73a154" fill-opacity="1"></use></g></g></g><g><g><g><use xlink:href="#f2Px6KrgW" opacity="1" fill="#a8ef7a" fill-opacity="1"></use></g><g><use xlink:href="#beeMEZ9o" opacity="1" fill="#79ba4e" fill-opacity="1"></use></g></g><g><g><use xlink:href="#aPbnImfBb" opacity="1" fill="#a8ef7a" fill-opacity="1"></use></g><g><use xlink:href="#bcUeoRFhf" opacity="1" fill="#79ba4e" fill-opacity="1"></use></g></g><g><g><use xlink:href="#a6gNQe5lw" opacity="1" fill="#a8ef7a" fill-opacity="1"></use></g><g><use xlink:href="#axRVlzr4l" opacity="1" fill="#79ba4e" fill-opacity="1"></use></g></g></g></g><g><use xlink:href="#a9DoNDscF" opacity="1" fill="#e1e1e1" fill-opacity="1"></use></g><g><use xlink:href="#ejkgYBHXu" opacity="1" fill="#e1e1e1" fill-opacity="1"></use></g><g><use xlink:href="#a1uaUynDcl" opacity="1" fill="#e1e1e1" fill-opacity="1"></use></g></g><g><g><g><use xlink:href="#ctv8b5mPR" opacity="1" fill="#8dd55f" fill-opacity="1"></use></g></g><g><use xlink:href="#b3mm5IVOAJ" opacity="1" fill="#9f9f9f" fill-opacity="1"></use></g><g><use xlink:href="#a3yIihqo9d" opacity="1" fill="#ffffff" fill-opacity="1"></use></g><g><use xlink:href="#aAnsGpXwf" opacity="1" fill="#ffffff" fill-opacity="1"></use></g><g><use xlink:href="#a5ACTDPicB" opacity="1" fill="#ffffff" fill-opacity="1"></use></g><g><use xlink:href="#c1dTI625p" opacity="1" fill="#ffffff" fill-opacity="1"></use></g><g><use xlink:href="#e2JbunJdh3" opacity="1" fill="#ffffff" fill-opacity="1"></use></g><g><use xlink:href="#aaSuxqwtC" opacity="1" fill="#ffffff" fill-opacity="1"></use></g><g><use xlink:href="#qio19ryUI" opacity="1" fill="#ffffff" fill-opacity="1"></use></g><g><use xlink:href="#d1kyIrCtDS" opacity="1" fill="#ffffff" fill-opacity="1"></use></g><g><use xlink:href="#a5IdOEwO" opacity="1" fill="#ffffff" fill-opacity="1"></use></g></g><g><g><use xlink:href="#f3fwUEp4w1" opacity="1" fill="#874f4c" fill-opacity="1"></use></g><g><use xlink:href="#a6syvgc9UO" opacity="1" fill="#c52d23" fill-opacity="1"></use></g><g><use xlink:href="#c3UZyr2bZm" opacity="1" fill="#c52d23" fill-opacity="1"></use></g><g><use xlink:href="#icPbgaU27" opacity="1" fill="#d13529" fill-opacity="1"></use></g><g><use xlink:href="#a3qZuoWGn" opacity="1" fill="#aa231a" fill-opacity="1"></use></g><g><use xlink:href="#a37XxkToB4" opacity="1" fill="#4a4a4a" fill-opacity="1"></use></g><g><use xlink:href="#aqOPRgI8" opacity="1" fill="#4a4a4a" fill-opacity="1"></use></g><g><use xlink:href="#a1LdblpBW2" opacity="1" fill="#c52d23" fill-opacity="1"></use></g><g><use xlink:href="#etReT7kIs" opacity="1" fill="#c52d23" fill-opacity="1"></use></g><g><use xlink:href="#b1IQf2MMIO" opacity="1" fill="#4a4a4a" fill-opacity="1"></use></g></g><g><g><use xlink:href="#a29nUrNlU4" opacity="1" fill="#874f4c" fill-opacity="1"></use></g><g><use xlink:href="#b1hooqfmu" opacity="1" fill="#c52d23" fill-opacity="1"></use></g><g><use xlink:href="#c5ru4Og3sC" opacity="1" fill="#c52d23" fill-opacity="1"></use></g><g><use xlink:href="#aY5IOrR9" opacity="1" fill="#d13529" fill-opacity="1"></use></g><g><use xlink:href="#ekkSxa1lF" opacity="1" fill="#aa231a" fill-opacity="1"></use></g><g><use xlink:href="#b9Nvw2dcVf" opacity="1" fill="#4a4a4a" fill-opacity="1"></use></g><g><use xlink:href="#acg0vf9ke" opacity="1" fill="#4a4a4a" fill-opacity="1"></use></g><g><use xlink:href="#bRa8M9mh" opacity="1" fill="#c52d23" fill-opacity="1"></use></g><g><use xlink:href="#g45Mu7UxKs" opacity="1" fill="#c52d23" fill-opacity="1"></use></g><g><use xlink:href="#e8WzbUaRy" opacity="1" fill="#4a4a4a" fill-opacity="1"></use></g></g></g></svg>