<?xml version="1.0" encoding="UTF-8" standalone="no"?>
<!DOCTYPE svg PUBLIC "-//W3C//DTD SVG 1.1//EN" "http://www.w3.org/Graphics/SVG/1.1/DTD/svg11.dtd">
<svg version="1.1" xmlns="http://www.w3.org/2000/svg" xmlns:xlink="http://www.w3.org/1999/xlink" preserveAspectRatio="xMidYMid meet" viewBox="98.34306569343079 382.6496350364964 446.6861313868613 79.18248175182475" width="442.69" height="75.18"><defs><path d="M101.53 383.65L540.22 383.65L540.22 457.37L101.53 457.37L101.53 383.65Z" id="c2yBZuumSr"></path><path d="M123.68 433.93L125.11 434.37L126.4 434.96L127.51 435.68L128.41 436.51L129.1 437.44L129.52 438.45L129.67 439.52L129.52 440.59L129.46 440.74L129.88 440.78L130.54 440.87L131.16 441.01L131.73 441.18L132.26 441.38L132.75 441.61L133.2 441.87L133.6 442.15L133.97 442.45L134.29 442.77L134.57 443.1L134.81 443.44L135.01 443.8L135.17 444.16L135.29 444.52L135.37 444.88L135.41 445.25L135.42 445.6L135.38 445.95L135.31 446.29L135.2 446.61L135.06 446.92L134.88 447.21L134.64 447.48L134.32 447.74L133.93 447.99L133.47 448.23L132.93 448.46L132.33 448.68L131.65 448.89L130.9 449.09L130.08 449.28L129.19 449.46L128.23 449.63L127.21 449.79L126.12 449.94L124.97 450.08L123.76 450.21L122.48 450.33L121.14 450.44L119.74 450.54L118.29 450.63L116.77 450.71L115.19 450.78L113.56 450.84L111.88 450.89L110.14 450.93L108.34 450.97L106.49 450.99L104.59 451L102.64 451.01L100.7 451.01L99.34 451L99.34 434.1L99.92 433.93L101.48 433.65L103.13 433.55L104.79 433.65L106.34 433.93L107.78 434.37L109.06 434.96L110.17 435.68L111.08 436.51L111.76 437.44L111.8 437.53L111.84 437.44L112.52 436.51L113.43 435.68L114.54 434.96L115.82 434.37L117.26 433.93L118.81 433.65L120.47 433.55L122.12 433.65L123.68 433.93Z" id="fh2Ex4vf5"></path><path d="M115.68 458.83L122.12 442.55L123.15 440.51L130.39 458.83L115.68 458.83Z" id="f57eUMxqK"></path><path d="M323.97 432.93L325.4 433.37L326.69 433.96L327.8 434.68L328.7 435.51L329.39 436.44L329.81 437.45L329.96 438.52L329.81 439.59L329.75 439.74L330.17 439.78L330.83 439.87L331.45 440.01L332.02 440.18L332.55 440.38L333.04 440.61L333.49 440.87L333.9 441.15L334.26 441.45L334.58 441.77L334.86 442.1L335.1 442.44L335.3 442.8L335.46 443.16L335.58 443.52L335.66 443.88L335.7 444.25L335.71 444.6L335.67 444.95L335.6 445.29L335.49 445.61L335.35 445.92L335.17 446.21L334.93 446.48L334.61 446.74L334.22 446.99L333.76 447.23L333.22 447.46L332.62 447.68L331.94 447.89L331.19 448.09L330.37 448.28L329.48 448.46L328.52 448.63L327.5 448.79L326.41 448.94L325.26 449.08L324.05 449.21L322.77 449.33L321.43 449.44L320.03 449.54L318.58 449.63L317.06 449.71L315.48 449.78L313.85 449.84L312.17 449.89L310.43 449.93L308.63 449.97L306.78 449.99L304.88 450L302.93 450.01L300.99 450.01L299.09 450L297.25 449.99L295.47 449.97L293.74 449.95L292.07 449.91L290.45 449.87L288.89 449.82L287.39 449.76L285.95 449.69L284.57 449.6L283.24 449.51L281.98 449.39L280.78 449.27L279.64 449.12L278.56 448.97L277.55 448.79L276.6 448.59L275.71 448.38L274.89 448.15L274.13 447.89L273.44 447.62L272.81 447.32L272.25 446.99L271.76 446.65L271.34 446.27L270.99 445.88L270.7 445.45L270.48 445.02L270.32 444.59L270.21 444.16L270.15 443.75L270.14 443.35L270.19 442.96L270.28 442.59L270.41 442.22L270.59 441.88L270.81 441.55L271.08 441.24L271.38 440.96L271.72 440.69L272.09 440.45L272.5 440.23L272.94 440.04L273.41 439.87L273.91 439.73L274.43 439.63L274.98 439.55L275.55 439.51L276.15 439.5L276.76 439.52L277.27 439.58L277.12 438.52L277.27 437.45L277.7 436.44L278.38 435.51L279.29 434.68L280.4 433.96L281.68 433.37L283.12 432.93L284.67 432.65L286.33 432.55L287.98 432.65L289.54 432.93L290.97 433.37L292.26 433.96L293.37 434.68L294.27 435.51L294.87 436.33L295.47 435.51L296.38 434.68L297.49 433.96L298.78 433.37L300.21 432.93L301.77 432.65L303.42 432.55L305.08 432.65L306.63 432.93L308.07 433.37L309.35 433.96L310.46 434.68L311.37 435.51L312.05 436.44L312.09 436.53L312.13 436.44L312.81 435.51L313.72 434.68L314.83 433.96L316.11 433.37L317.55 432.93L319.1 432.65L320.76 432.55L322.41 432.65L323.97 432.93Z" id="bkElybOn"></path><path d="M472.69 427.75L474.12 428.19L475.41 428.78L476.52 429.5L477.43 430.33L478.11 431.26L478.53 432.27L478.68 433.34L478.53 434.41L478.47 434.56L478.89 434.6L479.55 434.69L480.17 434.83L480.74 435L481.28 435.2L481.77 435.43L482.21 435.69L482.62 435.97L482.98 436.27L483.3 436.59L483.58 436.92L483.82 437.26L484.02 437.62L484.18 437.98L484.3 438.34L484.38 438.7L484.42 439.07L484.43 439.42L484.39 439.77L484.32 440.11L484.21 440.43L484.07 440.74L483.89 441.03L483.65 441.3L483.34 441.56L482.95 441.81L482.48 442.05L481.95 442.28L481.34 442.5L480.66 442.71L479.91 442.91L479.09 443.1L478.2 443.28L477.24 443.45L476.22 443.61L475.14 443.76L473.98 443.9L472.77 444.03L471.49 444.15L470.15 444.26L468.76 444.36L467.3 444.45L465.78 444.53L464.21 444.6L462.58 444.66L460.89 444.71L459.15 444.75L457.35 444.79L455.51 444.81L453.61 444.82L451.66 444.83L449.71 444.83L447.81 444.82L445.97 444.81L444.19 444.79L442.46 444.77L440.79 444.73L439.17 444.69L437.61 444.64L436.11 444.58L434.67 444.51L433.29 444.42L431.97 444.33L430.7 444.21L429.5 444.09L428.36 443.94L427.29 443.79L426.27 443.61L425.32 443.41L424.43 443.2L423.61 442.97L422.85 442.71L422.16 442.44L421.53 442.14L420.98 441.81L420.49 441.47L420.06 441.09L419.71 440.7L419.42 440.27L419.2 439.84L419.04 439.41L418.93 438.98L418.87 438.57L418.86 438.17L418.91 437.78L419 437.41L419.13 437.04L419.31 436.7L419.54 436.37L419.8 436.06L420.1 435.78L420.44 435.51L420.81 435.27L421.22 435.05L421.66 434.86L422.13 434.69L422.63 434.55L423.15 434.45L423.7 434.37L424.27 434.33L424.87 434.32L425.48 434.34L425.99 434.4L425.84 433.34L425.99 432.27L426.42 431.26L427.1 430.33L428.01 429.5L429.12 428.78L430.4 428.19L431.84 427.75L433.39 427.47L435.05 427.37L436.7 427.47L438.26 427.75L439.69 428.19L440.98 428.78L442.09 429.5L443 430.33L443.6 431.15L444.2 430.33L445.1 429.5L446.21 428.78L447.5 428.19L448.93 427.75L450.49 427.47L452.14 427.37L453.8 427.47L455.35 427.75L456.79 428.19L458.07 428.78L459.18 429.5L460.09 430.33L460.77 431.26L460.81 431.35L460.85 431.26L461.53 430.33L462.44 429.5L463.55 428.78L464.83 428.19L466.27 427.75L467.82 427.47L469.48 427.37L471.13 427.47L472.69 427.75Z" id="a3VkIjv73"></path><path d="M241.72 458.83L253.04 420.15L264.37 458.83L241.72 458.83Z" id="be0CLc4wM"></path><path d="M252.04 420.15L263.37 458.83L252.04 458.83L252.04 458.83L252.04 420.15Z" id="b3ih5u2MqY"></path><path d="M432.48 458.83L443.02 417.69L453.55 458.83L432.48 458.83Z" id="a5HuTVNzRS"></path><path d="M260.98 445.89L260.71 445.86L260.47 445.72L260.22 445.5L259.97 445.22L259.7 444.91L259.39 444.59L259.04 444.27L258.63 443.99L258.15 443.77L257.59 443.62L256.93 443.58L256.28 443.66L255.72 443.85L255.24 444.12L254.84 444.45L254.51 444.81L254.22 445.19L253.97 445.55L253.75 445.87L253.54 446.14L253.33 446.31L253.11 446.38L252.86 446.3L252.58 446.09L252.27 445.77L251.93 445.38L251.56 444.95L251.15 444.51L250.71 444.08L250.23 443.7L249.72 443.39L249.17 443.2L248.57 443.14L248.02 443.24L247.56 443.46L247.18 443.78L246.87 444.17L246.62 444.6L246.41 445.04L246.22 445.46L246.04 445.84L245.85 446.13L245.65 446.32L245.4 446.38L244.95 446.25L244.66 446.06L252.43 419.72L253.2 417.69L261.49 445.79L260.98 445.89Z" id="a2y1PCrzWT"></path><path d="M443.02 458.83L443.02 417.69L453.55 458.83L443.02 458.83Z" id="bQ5W7jQ8J"></path><path d="M306.02 458.83L313.65 440.52L314.74 438.49L323.22 458.83L306.02 458.83Z" id="c6Hcr0z2m"></path><path d="M452.16 447.37L451.66 447.47L451.4 447.44L451.17 447.31L450.93 447.09L450.69 446.82L450.44 446.51L450.17 446.18L449.86 445.85L449.5 445.53L449.09 445.26L448.62 445.04L448.07 444.9L447.44 444.86L446.8 444.94L446.26 445.12L445.79 445.38L445.39 445.71L445.04 446.08L444.75 446.46L444.49 446.85L444.26 447.21L444.06 447.53L443.86 447.79L443.66 447.95L443.45 448.01L443.21 447.94L442.94 447.74L442.65 447.43L442.34 447.05L441.99 446.61L441.62 446.16L441.22 445.7L440.78 445.27L440.32 444.9L439.82 444.61L439.28 444.42L438.72 444.37L438.18 444.46L437.73 444.68L437.35 444.99L437.04 445.38L436.78 445.81L436.56 446.26L436.37 446.71L436.2 447.13L436.02 447.5L435.84 447.78L435.64 447.96L435.41 448.01L434.97 447.89L434.63 447.66L442.74 417.96L443.54 415.66L452.19 447.35L452.16 447.37Z" id="d1DhmqRkAu"></path><path d="M542.03 458.83L531.63 458.83L537.81 442.54L538.8 440.51L542.03 449.01L542.03 458.83Z" id="a1fBogMzes"></path></defs><g><g><use xlink:href="#c2yBZuumSr" opacity="1" fill="#c7f3f1" fill-opacity="1"></use></g><g><use xlink:href="#fh2Ex4vf5" opacity="1" fill="#ffffff" fill-opacity="1"></use></g><g><use xlink:href="#f57eUMxqK" opacity="1" fill="#e1e1e1" fill-opacity="1"></use></g><g><use xlink:href="#bkElybOn" opacity="1" fill="#ffffff" fill-opacity="1"></use></g><g><use xlink:href="#a3VkIjv73" opacity="1" fill="#ffffff" fill-opacity="1"></use></g><g><use xlink:href="#be0CLc4wM" opacity="1" fill="#9f9f9f" fill-opacity="1"></use></g><g><use xlink:href="#b3ih5u2MqY" opacity="1" fill="#898989" fill-opacity="1"></use></g><g><use xlink:href="#a5HuTVNzRS" opacity="1" fill="#9f9f9f" fill-opacity="1"></use></g><g><use xlink:href="#a2y1PCrzWT" opacity="1" fill="#e1e1e1" fill-opacity="1"></use></g><g><use xlink:href="#bQ5W7jQ8J" opacity="1" fill="#898989" fill-opacity="1"></use></g><g><use xlink:href="#c6Hcr0z2m" opacity="1" fill="#e1e1e1" fill-opacity="1"></use></g><g><use xlink:href="#d1DhmqRkAu" opacity="1" fill="#e1e1e1" fill-opacity="1"></use></g><g><use xlink:href="#a1fBogMzes" opacity="1" fill="#e1e1e1" fill-opacity="1"></use></g></g></svg>