<?xml version="1.0" encoding="UTF-8" standalone="no"?>
<!DOCTYPE svg PUBLIC "-//W3C//DTD SVG 1.1//EN" "http://www.w3.org/Graphics/SVG/1.1/DTD/svg11.dtd">
<svg version="1.1" xmlns="http://www.w3.org/2000/svg" xmlns:xlink="http://www.w3.org/1999/xlink" preserveAspectRatio="xMidYMid meet" viewBox="51.013918101109155 285.59611027083275 548.3037851921637 166.57985815331392" width="548.3" height="166.58"><defs><path d="M465.24 355.45C463.82 360.26 452.81 361.25 440.65 357.67C428.5 354.1 419.78 347.29 421.19 342.48C422.61 337.68 433.62 336.68 445.78 340.26C457.93 343.84 466.65 350.65 465.24 355.45Z" id="aa7ALom4g"></path><path d="M479.77 354.72L482.3 354.98L484.87 355.29L487.48 355.65L490.14 356.06L492.83 356.53L495.56 357.05L498.32 357.62L501.11 358.25L503.93 358.93L506.78 359.66L509.65 360.45L512.53 361.29L515.44 362.19L518.36 363.14L521.27 364.13L524.13 365.16L526.94 366.23L529.71 367.32L532.43 368.44L535.09 369.59L537.7 370.77L540.25 371.97L542.74 373.2L545.18 374.44L547.55 375.71L549.85 376.99L552.09 378.29L554.26 379.6L556.36 380.93L558.39 382.27L560.35 383.62L562.22 384.97L564.02 386.34L565.74 387.7L567.38 389.08L568.93 390.45L570.39 391.82L571.77 393.19L573.05 394.56L574.25 395.93L575.34 397.28L576.35 398.63L577.25 399.97L577.31 400.07L577.82 400.57L578.92 401.75L580.02 403.01L581.1 404.33L582.17 405.71L583.22 407.16L584.24 408.67L585.21 410.2L586.12 411.74L586.97 413.27L587.74 414.79L588.45 416.3L589.1 417.78L589.67 419.24L590.17 420.67L590.6 422.06L590.95 423.41L591.24 424.72L591.44 425.97L591.58 427.17L591.63 428.3L591.61 429.37L591.58 429.75L591.6 429.76L592.69 430.03L593.7 430.31L594.63 430.6L595.49 430.89L596.27 431.19L596.96 431.5L597.58 431.82L598.1 432.14L598.53 432.47L598.87 432.81L599.12 433.15L599.27 433.49L599.32 433.84L599.27 434.19L599.14 434.54L598.93 434.87L598.63 435.21L598.26 435.53L597.8 435.85L597.27 436.17L596.66 436.47L595.97 436.77L595.21 437.06L594.38 437.34L593.48 437.61L592.51 437.88L591.48 438.13L590.37 438.37L589.21 438.6L587.98 438.82L586.68 439.03L585.33 439.23L583.92 439.41L582.46 439.58L580.94 439.74L579.36 439.89L577.73 440.02L576.05 440.13L574.33 440.23L572.55 440.32L570.73 440.39L568.86 440.44L566.95 440.48L565 440.5L563.01 440.5L561 440.48L559.01 440.45L557.03 440.4L555.07 440.34L553.13 440.25L551.21 440.16L549.33 440.04L547.48 439.92L545.66 439.78L543.89 439.62L542.15 439.45L540.46 439.27L538.82 439.08L537.24 438.87L535.7 438.65L534.23 438.42L532.83 438.18L531.48 437.93L530.21 437.67L529.01 437.4L527.89 437.12L526.85 436.84L525.89 436.54L525.01 436.24L524.23 435.93L523.54 435.61L522.95 435.29L522.46 434.96L522.07 434.62L521.79 434.28L521.62 433.94L521.56 433.59L521.61 433.24L521.76 432.9L522.01 432.56L522.36 432.23L522.79 431.9L523.32 431.58L523.93 431.27L524.63 430.96L525.41 430.66L526.27 430.37L527.2 430.09L528.22 429.82L529.3 429.56L530.23 429.36L529.53 428.81L528.85 428.16L528.28 427.49L527.82 426.79L527.49 426.08L527.29 425.35L527.21 424.6L527.27 423.85L527.31 423.67L525.97 423.44L523.24 422.92L520.48 422.35L517.68 421.72L514.86 421.04L512.02 420.3L509.15 419.51L506.26 418.67L503.35 417.78L500.43 416.83L497.53 415.83L494.67 414.8L491.85 413.74L489.08 412.64L486.37 411.52L483.7 410.37L481.1 409.19L478.54 407.99L476.05 406.77L473.62 405.52L471.25 404.26L468.94 402.98L466.7 401.68L464.53 400.36L462.43 399.04L460.4 397.7L458.45 396.35L456.57 394.99L454.77 393.63L453.06 392.26L451.42 390.89L449.87 389.52L448.4 388.14L447.03 386.77L445.74 385.4L444.55 384.04L443.45 382.68L442.45 381.33L441.54 379.99L440.74 378.66L440.04 377.35L439.44 376.05L438.95 374.76L438.57 373.5L438.3 372.25L438.14 371.02L438.09 369.82L438.17 368.64L438.36 367.49L438.67 366.36L439.09 365.28L439.64 364.24L440.29 363.25L441.05 362.32L441.91 361.43L442.88 360.6L443.94 359.82L445.11 359.09L446.37 358.4L447.72 357.77L449.16 357.2L450.68 356.67L452.3 356.19L453.99 355.77L455.76 355.39L457.61 355.07L459.54 354.8L461.53 354.59L463.6 354.42L465.73 354.31L467.93 354.24L470.18 354.24L472.5 354.28L474.87 354.37L477.29 354.52L477.29 354.52L479.77 354.72Z" id="b1UM7PNoVa"></path><path d="M431.19 369.24L525.34 369.24L525.34 431.67L431.19 431.67L431.19 369.24Z" id="b2Y7Ndz7eG"></path><path d="M263.81 288.63L425.76 344.48L423.59 350.77L261.64 294.92L263.81 288.63Z" id="j9bAk0RLp"></path><path d="M142.62 431.67L142.62 423.89L101.82 423.89L101.82 369.24L193.99 369.24L193.99 431.67L142.62 431.67Z" id="f6gqGab6Y8"></path><path d="M183.53 414.59C183.53 435.34 166.69 452.18 145.95 452.18C125.21 452.18 108.37 435.34 108.37 414.59C108.37 393.85 125.21 377.01 145.95 377.01C166.69 377.01 183.53 393.85 183.53 414.59Z" id="aDONfX4o"></path><path d="M175.53 414.59C175.53 430.92 162.28 444.17 145.95 444.17C129.62 444.17 116.37 430.92 116.37 414.59C116.37 398.27 129.62 385.01 145.95 385.01C162.28 385.01 175.53 398.27 175.53 414.59Z" id="a28WVxw6jY"></path><path d="M193.99 357.28L435.4 357.28L435.4 437.7L193.99 437.7L193.99 357.28Z" id="eqbucwW97"></path><path d="M518.99 414.59C518.99 435.34 502.15 452.18 481.41 452.18C460.67 452.18 443.83 435.34 443.83 414.59C443.83 393.85 460.67 377.01 481.41 377.01C502.15 377.01 518.99 393.85 518.99 414.59Z" id="c3gfulrig8"></path><path d="M510.99 414.59C510.99 430.92 497.73 444.17 481.41 444.17C465.08 444.17 451.83 430.92 451.83 414.59C451.83 398.27 465.08 385.01 481.41 385.01C497.73 385.01 510.99 398.27 510.99 414.59Z" id="fIns4dhJh"></path><path d="M519.25 436.3L520.06 434.8L520.82 433.27L521.52 431.71L522.15 430.12L522.73 428.49L523.25 426.84L523.7 425.16L524.08 423.46L524.4 421.73L524.65 419.97L524.83 418.2L524.94 416.41L524.98 414.59L524.94 412.78L524.83 410.99L524.65 409.21L524.4 407.46L524.08 405.73L523.7 404.03L523.25 402.35L522.73 400.69L522.15 399.07L521.52 397.48L520.82 395.91L520.06 394.38L519.25 392.89L518.38 391.43L517.46 390L516.48 388.62L515.46 387.27L514.38 385.97L513.26 384.71L512.08 383.49L510.87 382.32L509.61 381.19L508.3 380.12L506.96 379.09L505.57 378.12L504.15 377.19L502.69 376.33L501.19 375.51L499.66 374.76L498.1 374.06L496.51 373.42L494.88 372.84L493.23 372.33L491.55 371.88L489.84 371.49L488.11 371.17L486.36 370.92L484.59 370.74L482.79 370.64L480.98 370.6L479.17 370.64L477.38 370.74L475.6 370.92L473.85 371.17L472.12 371.49L470.41 371.88L468.73 372.33L467.08 372.84L465.46 373.42L463.86 374.06L462.3 374.76L460.77 375.51L459.27 376.33L457.81 377.19L456.39 378.12L455.01 379.09L453.66 380.12L452.36 381.19L451.1 382.32L449.88 383.49L448.71 384.71L447.58 385.97L446.51 387.27L445.48 388.62L444.5 390L443.58 391.43L442.71 392.89L441.9 394.38L441.14 395.91L440.45 397.48L439.81 399.07L439.23 400.69L438.72 402.35L438.27 404.03L437.88 405.73L437.56 407.46L437.31 409.21L437.13 410.99L437.02 412.78L436.99 414.59L437.02 416.41L437.13 418.2L437.31 419.97L437.56 421.73L437.88 423.46L438.27 425.16L438.72 426.84L439.23 428.49L439.81 430.12L440.45 431.71L441.14 433.27L441.9 434.8L442.71 436.3L443.54 437.7L431.42 437.7L431.42 369.24L531.4 369.24L531.4 437.7L518.42 437.7L518.42 437.7L519.25 436.3Z" id="aJz7AU4B"></path><path d="M183.32 437.7L184.16 436.3L184.97 434.8L185.73 433.27L186.42 431.71L187.06 430.12L187.64 428.49L188.15 426.84L188.6 425.16L188.99 423.46L189.31 421.73L189.56 419.97L189.74 418.2L189.85 416.41L189.88 414.59L189.85 412.78L189.74 410.99L189.56 409.21L189.31 407.46L188.99 405.73L188.6 404.03L188.15 402.35L187.64 400.69L187.06 399.07L186.42 397.48L185.73 395.91L184.97 394.38L184.16 392.89L183.29 391.43L182.36 390L181.39 388.62L180.36 387.27L179.29 385.97L178.16 384.71L176.99 383.49L175.77 382.32L174.51 381.19L173.21 380.12L171.86 379.09L170.48 378.12L169.06 377.19L167.59 376.33L166.1 375.51L164.57 374.76L163.01 374.06L161.41 373.42L159.79 372.84L158.13 372.33L156.46 371.88L154.75 371.49L153.02 371.17L151.27 370.92L149.49 370.74L147.7 370.64L145.89 370.6L144.08 370.64L142.28 370.74L140.51 370.92L138.76 371.17L137.03 371.49L135.32 371.88L133.64 372.33L131.99 372.84L130.36 373.42L128.77 374.06L127.21 374.76L125.68 375.51L124.18 376.33L122.72 377.19L121.3 378.12L119.91 379.09L118.57 380.12L117.26 381.19L116 382.32L114.78 383.49L113.61 384.71L112.49 385.97L111.41 387.27L110.39 388.62L109.41 390L108.49 391.43L107.62 392.89L106.81 394.38L106.05 395.91L105.35 397.48L104.71 399.07L104.14 400.69L103.62 402.35L103.17 404.03L102.79 405.73L102.47 407.46L102.22 409.21L102.04 410.99L101.93 412.78L101.89 414.59L101.93 416.41L102.04 418.2L102.22 419.97L102.47 421.73L102.79 423.46L103.17 425.16L103.62 426.84L104.14 428.49L104.65 429.94L96.33 427.68L96.33 369.24L196.3 369.24L196.3 437.7L183.32 437.7Z" id="ay0QCcYQI"></path><path d="M141.32 331.67L141.64 331.74L141.96 331.83L142.26 331.95L142.56 332.09L142.84 332.25L143.1 332.43L143.35 332.63L143.59 332.84L143.81 333.08L144.01 333.32L144.19 333.59L144.36 333.86L144.5 334.15L144.63 334.45L144.73 334.76L144.8 335.07L144.85 335.4L144.88 335.73L144.88 336.07L144.86 336.41L144.8 336.75L144.72 337.1L144.51 337.83L144.51 337.83L144.51 337.83L144.47 338.12L144.31 338.41L144.01 338.72L143.59 339.04L143.05 339.37L142.4 339.7L141.63 340.05L140.75 340.39L139.77 340.74L138.69 341.1L137.51 341.46L136.25 341.81L134.9 342.17L133.46 342.53L131.95 342.88L131.02 343.09L137.92 361.63L123.25 367.09L115.31 345.77L113.56 345.99L111.58 346.23L109.63 346.44L107.73 346.63L105.88 346.79L104.08 346.93L102.33 347.05L100.64 347.15L99.02 347.22L97.47 347.27L96 347.3L94.6 347.31L93.28 347.29L92.06 347.25L90.92 347.18L89.88 347.1L88.94 346.99L88.11 346.86L87.39 346.71L86.78 346.53L86.3 346.33L86.06 346.19L85.68 346.24L84.93 344.16L84.85 343.91L84.78 343.66L84.74 343.41L84.72 343.16L84.71 342.91L84.72 342.67L84.74 342.42L84.78 342.18L84.84 341.95L84.91 341.72L85 341.49L85.1 341.28L85.22 341.07L85.35 340.87L85.49 340.67L85.65 340.49L85.82 340.32L86 340.15L86.19 340L86.39 339.86L86.6 339.74L86.82 339.63L87.05 339.53L87.29 339.45L87.54 339.39L87.8 339.34L139.94 331.66L140.29 331.62L140.64 331.61L140.98 331.63L141.32 331.67Z" id="dAyiqr9Ug"></path><path d="M264.48 315.17C270.34 327.92 250.58 349.53 220.39 363.39C190.2 377.26 160.94 378.15 155.08 365.4C149.22 352.64 168.98 331.03 199.17 317.17C229.36 303.31 258.62 302.41 264.48 315.17Z" id="a2GMshPYA9"></path><path d="M168.65 356.23L168.95 356.31L169 356.17L170.24 356.71L171 357L171.34 357.18L220.47 378.47L213.25 395.12L176.19 379.07L175.99 379.54L155.18 370.53L152.59 370.88L152.43 370.85L150.66 370.6L148.88 370.41L147.07 370.3L145.24 370.27L143.42 370.3L141.61 370.41L139.82 370.6L138.06 370.85L136.31 371.17L134.6 371.56L132.9 372.01L131.24 372.53L129.6 373.11L128 373.75L126.7 374.33L100.92 377.77L100.92 414.52L101.04 416.11L101.25 417.96L101.54 419.78L101.9 421.57L102.33 423.34L102.83 425.07L103.39 426.78L104.01 428.45L104.56 429.76L64.85 423.6L64.93 423.12L64.85 423.13L64.31 423.06L63.77 422.87L63.25 422.54L62.74 422.1L62.24 421.54L61.76 420.86L61.3 420.08L60.85 419.19L60.43 418.21L60.02 417.13L59.64 415.96L59.27 414.71L58.94 413.37L58.63 411.96L58.35 410.48L58.09 408.93L57.87 407.31L57.67 405.64L57.51 403.92L57.38 402.14L57.29 400.32L57.23 398.46L57.21 396.57L57.23 394.67L57.29 392.81L57.38 390.99L57.51 389.21L57.67 387.49L57.87 385.82L58.09 384.2L58.35 382.65L58.63 381.17L58.94 379.76L59.27 378.42L59.64 377.17L60.02 376L60.43 374.92L60.85 373.94L61.3 373.05L61.76 372.27L62.24 371.59L62.74 371.03L63.25 370.59L63.77 370.26L64.31 370.07L64.85 370L64.88 370L64.86 369.79L154.33 357.85L154.59 357.73L156.09 357.17L157.69 356.69L159.37 356.3L161.06 356.02L162.72 355.85L164.32 355.79L165.86 355.83L167.3 355.98L167.3 355.98L168.65 356.23Z" id="b5duGHVwz6"></path><path d="M75.83 380.25C80.73 380.25 84.71 384.22 84.71 389.13C84.71 391.39 84.71 389.31 84.71 391.58C84.71 396.48 80.73 400.45 75.83 400.45C70.87 400.45 64.85 400.45 59.89 400.45C54.99 400.45 51.01 396.48 51.01 391.58C51.01 389.31 51.01 391.39 51.01 389.13C51.01 384.22 54.99 380.25 59.89 380.25C64.85 380.25 70.87 380.25 75.83 380.25Z" id="b30CsZnH0h"></path><path d="M264.42 285.68L265.14 285.84L265.83 286.07L266.5 286.38L267.16 286.75L267.79 287.2L268.39 287.71L268.98 288.29L269.55 288.94L270.09 289.65L270.6 290.42L271.1 291.25L271.57 292.14L272.01 293.08L272.43 294.08L272.83 295.13L273.2 296.23L273.54 297.38L273.86 298.58L274.15 299.83L274.42 301.12L274.66 302.46L274.87 303.83L275.05 305.25L275.2 306.7L275.32 308.19L275.42 309.71L275.48 311.27L275.52 312.86L275.53 314.47L275.5 316.12L275.44 317.79L275.36 319.49L275.24 321.21L275.17 322.02L275.22 322.95L275.39 324.07L275.67 325.19L276.04 326.31L276.52 327.43L277.09 328.53L277.75 329.63L278.5 330.7L279.34 331.75L280.26 332.77L281.27 333.76L281.78 334.21L281.9 334.21L281.9 334.21L282.67 334.68L283.53 335.14L284.49 335.6L285.53 336.05L286.67 336.5L287.89 336.95L289.2 337.38L290.59 337.81L292.06 338.24L293.61 338.65L295.24 339.06L296.94 339.46L298.71 339.85L300.55 340.24L302.46 340.61L304.44 340.97L306.48 341.32L308.58 341.66L310.74 341.99L312.95 342.31L315.22 342.61L317.55 342.9L319.92 343.18L322.34 343.44L324.81 343.69L327.32 343.93L329.88 344.15L332.47 344.35L335.11 344.54L337.77 344.71L340.47 344.86L343.2 345L345.97 345.12L348.73 345.22L351.46 345.29L354.16 345.35L356.84 345.39L359.48 345.41L362.08 345.41L364.64 345.39L367.16 345.36L369.65 345.3L372.08 345.23L374.47 345.14L376.81 345.03L379.1 344.9L381.33 344.76L383.51 344.6L385.63 344.43L387.69 344.24L389.69 344.03L391.62 343.81L393.49 343.57L395.28 343.32L397.01 343.06L398.66 342.78L400.24 342.48L401.74 342.18L403.16 341.86L404.5 341.52L405.75 341.18L406.92 340.82L408 340.45L408.99 340.06L409.88 339.67L410.35 339.44L410.47 339.45L413.27 339.87L416 340.3L418.68 340.74L421.29 341.19L423.83 341.66L426.31 342.13L428.72 342.62L431.05 343.12L433.32 343.62L435.52 344.14L437.64 344.66L439.68 345.2L441.65 345.74L443.54 346.3L445.35 346.86L447.08 347.43L448.73 348.01L450.3 348.6L451.78 349.2L453.17 349.8L454.48 350.41L455.7 351.03L456.83 351.66L457.87 352.29L458.81 352.93L459.67 353.57L460.42 354.22L461.08 354.88L461.64 355.55L462.11 356.21L462.47 356.89L462.73 357.57L462.89 358.25L462.94 358.94L462.82 359.98L462.45 361.02L461.85 362.05L461.02 363.06L459.96 364.06L458.67 365.04L457.17 366.02L455.45 366.97L453.53 367.91L451.4 368.83L449.07 369.73L446.55 370.62L443.83 371.48L440.94 372.33L437.86 373.15L434.6 373.95L431.18 374.73L427.59 375.48L423.84 376.21L419.93 376.92L415.87 377.59L411.66 378.24L407.31 378.86L402.82 379.46L398.2 380.02L393.45 380.56L388.58 381.06L383.59 381.53L378.48 381.96L373.27 382.37L367.95 382.74L362.53 383.07L357.02 383.37L351.41 383.63L345.72 383.85L339.95 384.03L334.11 384.18L328.19 384.28L322.2 384.35L316.16 384.37L310.11 384.35L304.13 384.28L298.21 384.18L292.36 384.03L286.59 383.85L280.9 383.63L275.3 383.37L269.78 383.07L264.36 382.74L259.05 382.37L253.83 381.96L248.73 381.53L243.73 381.06L238.86 380.56L234.11 380.02L229.49 379.46L225 378.86L220.65 378.24L216.45 377.59L212.39 376.92L208.48 376.21L204.73 375.48L201.14 374.73L197.71 373.95L194.46 373.15L191.38 372.33L188.48 371.48L185.77 370.62L183.25 369.73L180.92 368.83L178.79 367.91L176.86 366.97L175.15 366.02L173.64 365.04L172.36 364.06L171.3 363.06L170.46 362.05L169.86 361.02L169.5 359.98L169.37 358.94L169.5 357.89L169.86 356.85L170.46 355.83L171.3 354.81L172.36 353.81L173.64 352.83L175.15 351.86L176.86 350.9L178.79 349.96L180.92 349.04L183.25 348.14L185.77 347.25L188.48 346.39L191.38 345.54L194.46 344.72L197.71 343.92L201.14 343.14L204.73 342.39L208.48 341.66L212.39 340.96L216.45 340.28L220.65 339.63L225 339.01L229.49 338.41L229.9 338.36L230.11 337.39L230.52 335.59L230.96 333.77L231.44 331.94L231.95 330.09L232.5 328.23L233.07 326.36L233.67 324.5L234.3 322.66L234.94 320.86L235.6 319.08L236.28 317.34L236.97 315.63L237.68 313.95L238.41 312.31L239.15 310.7L239.9 309.13L240.66 307.61L241.43 306.12L242.22 304.67L243.01 303.27L243.81 301.91L244.61 300.59L245.43 299.33L246.24 298.11L247.06 296.94L247.89 295.82L248.71 294.76L249.54 293.74L250.36 292.79L251.19 291.89L252.01 291.04L252.83 290.26L253.65 289.53L254.46 288.86L255.26 288.26L256.06 287.72L256.85 287.25L257.63 286.84L258.4 286.51L259.16 286.23L259.91 286.04L260.64 285.91L261.36 285.85L261.37 285.85L261.49 285.82L262.23 285.67L262.96 285.6L263.7 285.6L264.42 285.68Z" id="d6NRDzy7d"></path><path d="M203.88 378.1L428.44 378.1L428.44 399.15L203.88 399.15L203.88 378.1Z" id="a2Kn0xm3gO"></path><path d="M320.94 356.03L322.72 356.28L324.51 356.59L326.32 356.95L328.13 357.36L329.94 357.82L331.74 358.32L333.52 358.88L335.25 359.47L336.96 360.1L338.63 360.77L340.27 361.48L341.86 362.22L343.42 363L344.94 363.81L346.42 364.65L347.86 365.52L349.26 366.43L350.61 367.36L351.91 368.31L353.17 369.3L354.39 370.3L355.55 371.33L356.66 372.38L357.72 373.45L358.73 374.54L359.69 375.65L360.59 376.78L361.44 377.91L362.23 379.07L362.96 380.23L363.63 381.41L364.24 382.59L364.79 383.78L365.28 384.98L365.7 386.19L366.06 387.4L366.35 388.61L366.58 389.83L366.74 391.05L366.82 392.26L366.84 393.48L366.78 394.69L366.65 395.89L366.45 397.09L366.17 398.28L365.81 399.45L365.39 400.6L364.9 401.7L364.34 402.78L363.72 403.82L363.04 404.83L362.3 405.81L361.5 406.75L361.34 406.92L361.07 407.28L360.37 408.18L359.62 409.07L358.8 409.96L357.94 410.84L357.02 411.71L356.06 412.57L355.04 413.43L353.97 414.27L352.86 415.09L351.7 415.9L350.5 416.7L349.26 417.48L347.97 418.24L346.64 418.99L345.28 419.71L343.87 420.41L342.43 421.09L340.95 421.74L339.44 422.37L337.9 422.98L336.32 423.55L334.72 424.1L333.08 424.61L331.44 425.1L329.8 425.53L328.17 425.93L326.55 426.29L324.94 426.61L323.35 426.89L321.78 427.13L320.22 427.32L318.68 427.48L317.17 427.6L315.67 427.69L314.2 427.73L312.76 427.74L311.35 427.71L309.96 427.64L308.61 427.53L307.29 427.39L306.01 427.21L304.76 427L303.55 426.75L302.39 426.47L301.26 426.14L300.18 425.79L299.14 425.4L298.15 424.98L297.21 424.52L296.33 424.02L295.49 423.5L294.71 422.94L293.98 422.35L293.31 421.73L292.7 421.07L292.15 420.38L291.67 419.66L291.25 418.91L290.89 418.13L290.61 417.32L290.39 416.48L290.25 415.64L290.18 414.78L290.19 414.18L290.75 414.67L291.49 415.17L292.3 415.59L293.18 415.93L294.12 416.19L295.11 416.37L296.17 416.48L297.27 416.51L298.41 416.46L299.6 416.34L300.83 416.15L302.09 415.88L303.38 415.55L304.7 415.14L306.03 414.65L307.39 414.1L308.76 413.48L308.87 413.43L307.54 412.93L305.87 412.26L304.24 411.55L302.64 410.81L301.08 410.03L299.56 409.22L298.08 408.38L296.64 407.51L295.25 406.6L293.9 405.67L292.59 404.72L291.33 403.73L290.12 402.73L288.95 401.7L287.84 400.65L286.78 399.58L285.77 398.49L284.81 397.38L283.91 396.26L283.06 395.12L282.27 393.97L281.54 392.8L280.87 391.63L280.26 390.44L279.71 389.25L279.22 388.05L278.8 386.84L278.44 385.63L278.15 384.42L277.92 383.2L277.77 381.98L277.68 380.77L277.67 379.56L277.72 378.35L277.82 377.47L278.55 377.95L279.79 378.7L281.07 379.44L282.4 380.14L283.77 380.82L285.18 381.48L286.64 382.1L288.13 382.7L289.65 383.26L291.21 383.79L292.81 384.29L294.44 384.75L296.07 385.16L297.7 385.53L299.32 385.85L300.92 386.13L302.51 386.36L304.08 386.54L305.63 386.68L307.16 386.78L308.66 386.83L310.14 386.84L311.59 386.8L313 386.72L314.39 386.6L315.74 386.44L317.05 386.24L318.32 386L319.55 385.72L320.74 385.4L321.88 385.03L322.97 384.64L324.01 384.2L325 383.72L325.94 383.21L326.81 382.66L327.63 382.08L328.39 381.46L329.09 380.81L329.72 380.12L330.28 379.39L330.78 378.64L331.2 377.85L331.55 377.02L331.82 376.17L332.01 375.29L332.12 374.41L332.15 373.51L332.1 372.61L331.97 371.7L331.77 370.79L331.5 369.88L331.15 368.96L330.73 368.04L330.25 367.13L329.69 366.22L329.07 365.31L328.39 364.41L327.64 363.52L326.83 362.64L325.97 361.77L325.04 360.91L324.06 360.06L323.03 359.23L321.94 358.42L320.8 357.62L319.61 356.85L318.38 356.09L317.67 355.69L319.17 355.82L320.94 356.03Z" id="apFRDX1qR"></path><path d="M339.72 370.55L341.19 371.06L342.63 371.63L344.03 372.24L345.38 372.89L346.7 373.59L347.96 374.32L349.18 375.09L350.35 375.89L351.47 376.73L352.54 377.59L353.55 378.49L354.51 379.41L355.4 380.35L356.24 381.31L357.01 382.3L357.72 383.3L358.36 384.31L358.94 385.34L359.44 386.38L359.88 387.43L360.23 388.48L360.52 389.53L360.72 390.59L360.85 391.65L360.89 392.71L360.86 393.76L360.73 394.8L360.52 395.83L360.23 396.84L359.85 397.81L359.4 398.74L358.87 399.63L358.27 400.48L357.65 401.24L357.01 402.1L356.22 403.03L355.34 403.95L354.37 404.86L353.32 405.74L352.18 406.6L350.97 407.43L349.68 408.23L348.32 408.99L346.9 409.72L345.41 410.41L343.86 411.05L342.26 411.64L340.61 412.17L338.93 412.65L337.27 413.05L335.63 413.38L334.01 413.64L332.42 413.83L330.87 413.95L329.36 414L327.88 413.98L326.46 413.9L325.1 413.75L323.79 413.54L322.54 413.27L321.37 412.93L320.27 412.54L319.25 412.08L318.31 411.56L317.46 410.99L316.71 410.35L316.05 409.66L315.5 408.92L315.06 408.12L314.74 407.27L314.53 406.38L314.45 405.47L314.46 405.27L314.68 405.5L315.46 406.04L316.37 406.44L317.38 406.69L318.49 406.8L319.68 406.77L320.94 406.61L322.26 406.31L323.63 405.87L325.03 405.31L325.8 404.94L324.85 404.57L323.46 403.96L322.1 403.31L320.79 402.61L319.52 401.88L318.3 401.11L317.13 400.31L316.01 399.47L314.94 398.61L313.93 397.71L312.98 396.79L312.08 395.85L311.25 394.89L310.47 393.9L309.76 392.9L309.12 391.89L308.55 390.86L308.46 390.68L309.64 391.31L310.87 391.88L312.15 392.39L313.47 392.83L314.83 393.2L316.23 393.49L317.67 393.71L319.14 393.86L320.61 393.92L322.05 393.9L323.47 393.79L324.86 393.61L326.21 393.36L327.52 393.03L328.79 392.64L330.02 392.17L331.19 391.64L332.31 391.05L333.38 390.4L334.38 389.7L335.32 388.93L336.19 388.12L336.99 387.26L337.72 386.35L338.37 385.39L338.93 384.4L339.41 383.36L339.8 382.29L340.1 381.18L340.3 380.04L340.4 378.87L340.4 377.7L340.29 376.54L340.09 375.4L339.79 374.28L339.4 373.18L338.92 372.11L338.35 371.08L337.71 370.07L337.59 369.92L338.21 370.08L339.72 370.55Z" id="ceTmmVSaj"></path><path d="M343.87 382.99L345.39 383.31L346.85 383.7L348.24 384.18L349.55 384.73L350.78 385.34L351.93 386.02L352.98 386.75L353.93 387.54L354.77 388.37L355.5 389.25L356.11 390.16L356.59 391.11L356.95 392.08L357.16 393.07L357.23 394.07L357.15 395.09L356.92 396.09L356.55 397.05L356.04 397.96L355.76 398.35L355.62 398.6L354.94 399.61L354.09 400.62L353.09 401.62L351.95 402.6L350.69 403.54L349.3 404.45L347.8 405.3L346.2 406.08L344.55 406.77L342.92 407.34L341.33 407.79L339.78 408.11L338.29 408.32L336.88 408.41L335.57 408.38L334.36 408.24L333.27 407.97L332.32 407.59L331.52 407.09L330.88 406.48L330.43 405.75L330.18 404.92L330.16 404.63L330.66 404.94L331.66 405.16L332.82 405.11L334.1 404.8L335.47 404.24L336.88 403.45L336.93 403.41L335.96 403.21L334.51 402.82L333.12 402.34L331.8 401.8L330.57 401.18L329.43 400.5L328.38 399.77L327.43 398.98L326.58 398.15L325.86 397.27L325.7 397.04L326.39 397.28L327.76 397.62L329.21 397.83L330.72 397.91L332.28 397.84L333.83 397.63L335.31 397.28L336.72 396.81L338.04 396.23L339.26 395.54L340.37 394.76L341.36 393.9L342.21 392.96L342.93 391.96L343.48 390.9L343.88 389.79L344.09 388.65L344.12 387.48L343.95 386.33L343.6 385.24L343.08 384.22L342.41 383.27L341.9 382.74L342.29 382.77L343.87 382.99Z" id="fpzgYk6d"></path></defs><g><g><g><use xlink:href="#aa7ALom4g" opacity="1" fill="#992929" fill-opacity="1"></use></g><g><use xlink:href="#b1UM7PNoVa" opacity="1" fill="#d84949" fill-opacity="1"></use></g><g><use xlink:href="#b2Y7Ndz7eG" opacity="1" fill="#64717e" fill-opacity="1"></use></g><g><use xlink:href="#j9bAk0RLp" opacity="1" fill="#505b66" fill-opacity="1"></use></g><g><use xlink:href="#f6gqGab6Y8" opacity="1" fill="#64717e" fill-opacity="1"></use></g><g><use xlink:href="#aDONfX4o" opacity="1" fill="#505b66" fill-opacity="1"></use></g><g><use xlink:href="#a28WVxw6jY" opacity="1" fill="#8d9ba8" fill-opacity="1"></use></g><g><use xlink:href="#eqbucwW97" opacity="1" fill="#d84949" fill-opacity="1"></use></g><g><use xlink:href="#c3gfulrig8" opacity="1" fill="#505b66" fill-opacity="1"></use></g><g><use xlink:href="#fIns4dhJh" opacity="1" fill="#8d9ba8" fill-opacity="1"></use></g><g><use xlink:href="#aJz7AU4B" opacity="1" fill="#d84949" fill-opacity="1"></use></g><g><use xlink:href="#ay0QCcYQI" opacity="1" fill="#d84949" fill-opacity="1"></use></g><g><use xlink:href="#dAyiqr9Ug" opacity="1" fill="#505b66" fill-opacity="1"></use></g><g><use xlink:href="#a2GMshPYA9" opacity="1" fill="#992929" fill-opacity="1"></use></g><g><use xlink:href="#b5duGHVwz6" opacity="1" fill="#d84949" fill-opacity="1"></use></g><g><use xlink:href="#b30CsZnH0h" opacity="1" fill="#a23636" fill-opacity="1"></use></g><g><use xlink:href="#d6NRDzy7d" opacity="1" fill="#b93c3c" fill-opacity="1"></use></g><g><use xlink:href="#a2Kn0xm3gO" opacity="1" fill="#d84949" fill-opacity="1"></use></g><g><g><use xlink:href="#apFRDX1qR" opacity="1" fill="#e38538" fill-opacity="1"></use></g><g><use xlink:href="#ceTmmVSaj" opacity="1" fill="#e3af38" fill-opacity="1"></use></g><g><use xlink:href="#fpzgYk6d" opacity="1" fill="#e3c738" fill-opacity="1"></use></g></g></g></g></svg>