<?xml version="1.0" encoding="UTF-8" standalone="no"?>
<!DOCTYPE svg PUBLIC "-//W3C//DTD SVG 1.1//EN" "http://www.w3.org/Graphics/SVG/1.1/DTD/svg11.dtd">
<svg version="1.1" xmlns="http://www.w3.org/2000/svg" xmlns:xlink="http://www.w3.org/1999/xlink" preserveAspectRatio="xMidYMid meet" viewBox="182.3538420075153 454.04395260839556 310.8259357587826 85.69051553133318" width="306.83" height="81.69"><defs><path d="M423.74 455.14L425.48 455.25L427.19 455.41L428.89 455.61L430.56 455.86L432.2 456.14L433.82 456.47L435.41 456.83L436.97 457.24L438.5 457.68L440 458.16L441.46 458.68L442.89 459.23L444.29 459.82L445.64 460.43L446.96 461.09L448.24 461.77L449.47 462.48L450.66 463.23L451.81 464L452.91 464.8L453.97 465.63L454.97 466.48L455.93 467.36L456.83 468.26L457.68 469.19L458.47 470.14L459.22 471.11L459.9 472.1L460.52 473.11L461.09 474.14L461.59 475.19L462.03 476.26L462.41 477.34L462.72 478.44L462.97 479.55L463.14 480.68L463.25 481.82L463.29 482.97L463.25 484.12L463.14 485.25L462.97 486.38L462.72 487.49L462.41 488.59L462.38 488.68L462.94 488.72L465.19 488.97L467.34 489.31L469.39 489.73L471.34 490.24L473.19 490.82L474.94 491.48L476.59 492.2L478.14 492.98L479.6 493.83L480.96 494.73L482.22 495.68L483.39 496.67L484.46 497.7L485.44 498.77L486.33 499.88L487.12 501L487.82 502.15L488.43 503.32L488.94 504.5L489.37 505.69L489.7 506.88L489.95 508.07L490.11 509.26L490.18 510.43L490.16 511.6L490.06 512.74L489.87 513.86L489.59 514.95L489.23 516.01L488.78 517.03L488.25 518.01L487.64 518.94L486.9 519.83L485.98 520.71L484.89 521.55L483.63 522.38L482.19 523.18L480.59 523.96L478.82 524.71L476.88 525.44L474.79 526.14L472.52 526.83L470.1 527.48L467.52 528.12L464.78 528.73L461.88 529.32L458.83 529.89L455.62 530.43L452.26 530.95L448.76 531.45L445.1 531.92L441.3 532.38L437.35 532.8L433.26 533.21L429.03 533.59L424.65 533.96L420.14 534.29L415.49 534.61L410.7 534.91L405.78 535.18L400.73 535.43L395.54 535.66L390.23 535.86L384.78 536.05L379.21 536.21L373.52 536.35L367.7 536.47L361.76 536.56L355.7 536.64L349.52 536.69L343.22 536.72L336.81 536.73L330.4 536.73L324.12 536.72L317.96 536.69L311.92 536.65L306.01 536.6L300.23 536.54L294.58 536.46L289.05 536.36L283.65 536.24L278.39 536.1L273.26 535.94L268.26 535.75L263.39 535.54L258.66 535.3L254.06 535.04L249.6 534.75L245.28 534.42L241.09 534.07L237.05 533.68L233.14 533.26L229.38 532.8L225.76 532.3L222.28 531.77L218.94 531.19L215.76 530.58L212.71 529.92L209.82 529.22L207.07 528.47L204.47 527.67L202.02 526.83L199.72 525.93L197.58 524.98L195.58 523.99L193.74 522.93L192.06 521.83L190.53 520.66L189.15 519.44L187.94 518.15L186.88 516.81L185.98 515.4L185.23 513.97L184.61 512.56L184.11 511.16L183.74 509.77L183.5 508.41L183.37 507.07L183.35 505.76L183.45 504.47L183.66 503.22L183.98 501.99L184.41 500.8L184.93 499.65L185.56 498.53L186.28 497.46L187.09 496.43L188 495.44L188.99 494.5L190.07 493.61L191.24 492.77L192.48 491.98L193.8 491.26L195.19 490.59L196.66 489.98L198.19 489.43L199.79 488.95L201.45 488.53L203.17 488.19L204.95 487.91L206.79 487.71L208.67 487.59L210.61 487.54L212.59 487.58L214.62 487.69L216.68 487.89L216.69 487.9L216.58 487.49L216.33 486.38L216.16 485.25L216.05 484.12L216.01 482.97L216.05 481.82L216.16 480.68L216.33 479.55L216.58 478.44L216.89 477.34L217.27 476.26L217.71 475.19L218.21 474.14L218.78 473.11L219.4 472.1L220.09 471.11L220.83 470.14L221.62 469.19L222.47 468.26L223.38 467.36L224.33 466.48L225.34 465.63L226.39 464.8L227.49 464L228.64 463.23L229.83 462.48L231.06 461.77L232.34 461.09L233.66 460.43L235.01 459.82L236.41 459.23L237.84 458.68L239.3 458.16L240.8 457.68L242.33 457.24L243.89 456.83L245.48 456.47L247.1 456.14L248.74 455.86L250.41 455.61L252.11 455.41L253.82 455.25L255.56 455.14L257.32 455.07L259.09 455.04L260.87 455.07L262.62 455.14L264.36 455.25L266.07 455.41L267.77 455.61L269.44 455.86L271.08 456.14L272.7 456.47L274.29 456.83L275.85 457.24L277.38 457.68L278.88 458.16L280.34 458.68L281.77 459.23L283.17 459.82L284.52 460.43L285.84 461.09L287.12 461.77L288.35 462.48L289.54 463.23L290.69 464L291.79 464.8L292.85 465.63L293.85 466.48L294.81 467.36L295.71 468.26L296.56 469.19L297.36 470.14L298.1 471.11L298.78 472.1L299.09 472.61L299.41 472.1L300.09 471.11L300.83 470.14L301.63 469.19L302.48 468.26L303.38 467.36L304.34 466.48L305.34 465.63L306.39 464.8L307.49 464L308.64 463.23L309.83 462.48L311.07 461.77L312.35 461.09L313.66 460.43L315.02 459.82L316.41 459.23L317.84 458.68L319.31 458.16L320.8 457.68L322.34 457.24L323.9 456.83L325.49 456.47L327.1 456.14L328.75 455.86L330.42 455.61L332.11 455.41L333.83 455.25L335.56 455.14L337.32 455.07L339.1 455.04L340.87 455.07L342.63 455.14L344.36 455.25L346.08 455.41L347.77 455.61L349.44 455.86L351.09 456.14L352.7 456.47L354.3 456.83L355.86 457.24L357.39 457.68L358.88 458.16L360.35 458.68L361.78 459.23L363.17 459.82L364.53 460.43L365.85 461.09L367.12 461.77L368.36 462.48L369.55 463.23L370.7 464L371.8 464.8L372.85 465.63L373.86 466.48L374.81 467.36L375.71 468.26L376.56 469.19L377.36 470.14L378.1 471.11L378.78 472.1L379.41 473.11L379.65 473.56L379.9 473.11L380.52 472.1L381.2 471.11L381.94 470.14L382.74 469.19L383.59 468.26L384.49 467.36L385.45 466.48L386.45 465.63L387.51 464.8L388.61 464L389.76 463.23L390.95 462.48L392.18 461.77L393.46 461.09L394.78 460.43L396.13 459.82L397.53 459.23L398.96 458.68L400.42 458.16L401.92 457.68L403.45 457.24L405.01 456.83L406.6 456.47L408.22 456.14L409.86 455.86L411.53 455.61L413.23 455.41L414.94 455.25L416.68 455.14L418.44 455.07L420.21 455.04L421.98 455.07L423.74 455.14Z" id="e1MTNR3dlX"></path></defs><g><g><use xlink:href="#e1MTNR3dlX" opacity="1" fill="#f6f6f6" fill-opacity="1"></use></g></g></svg>