<?xml version="1.0" encoding="UTF-8" standalone="no"?>
<!DOCTYPE svg PUBLIC "-//W3C//DTD SVG 1.1//EN" "http://www.w3.org/Graphics/SVG/1.1/DTD/svg11.dtd">
<svg version="1.1" xmlns="http://www.w3.org/2000/svg" xmlns:xlink="http://www.w3.org/1999/xlink" preserveAspectRatio="xMidYMid meet" viewBox="307.9012872629897 264.26293071058535 310.8259357587827 85.69051553133318" width="306.83" height="81.69"><defs><path d="M549.29 265.36L551.02 265.47L552.74 265.63L554.43 265.83L556.1 266.07L557.75 266.36L559.37 266.69L560.96 267.05L562.52 267.46L564.05 267.9L565.55 268.38L567.01 268.9L568.44 269.45L569.83 270.03L571.19 270.65L572.51 271.3L573.78 271.99L575.02 272.7L576.21 273.44L577.36 274.22L578.46 275.02L579.51 275.85L580.52 276.7L581.47 277.58L582.38 278.48L583.23 279.41L584.02 280.36L584.76 281.33L585.45 282.32L586.07 283.33L586.64 284.36L587.14 285.41L587.58 286.48L587.96 287.56L588.27 288.66L588.51 289.77L588.69 290.9L588.8 292.03L588.83 293.18L588.8 294.33L588.69 295.47L588.51 296.6L588.27 297.71L587.96 298.81L587.93 298.9L588.49 298.94L590.74 299.19L592.89 299.52L594.94 299.95L596.89 300.46L598.74 301.04L600.49 301.69L602.14 302.42L603.69 303.2L605.15 304.05L606.51 304.95L607.77 305.9L608.94 306.89L610.01 307.92L610.99 308.99L611.87 310.09L612.67 311.22L613.37 312.37L613.97 313.54L614.49 314.72L614.92 315.91L615.25 317.1L615.5 318.29L615.66 319.48L615.73 320.65L615.71 321.82L615.61 322.96L615.41 324.08L615.14 325.17L614.78 326.23L614.33 327.25L613.8 328.23L613.19 329.16L612.45 330.05L611.53 330.93L610.44 331.77L609.17 332.6L607.74 333.4L606.14 334.17L604.37 334.93L602.43 335.66L600.33 336.36L598.07 337.04L595.65 337.7L593.06 338.34L590.32 338.95L587.43 339.54L584.37 340.11L581.17 340.65L577.81 341.17L574.31 341.67L570.65 342.14L566.85 342.59L562.9 343.02L558.81 343.43L554.57 343.81L550.2 344.17L545.69 344.51L541.04 344.83L536.25 345.12L531.33 345.4L526.27 345.65L521.09 345.87L515.77 346.08L510.33 346.26L504.76 346.43L499.06 346.57L493.25 346.69L487.31 346.78L481.25 346.86L475.07 346.91L468.77 346.94L462.36 346.95L455.95 346.95L449.67 346.94L443.51 346.91L437.47 346.87L431.56 346.82L425.78 346.76L420.12 346.68L414.6 346.58L409.2 346.46L403.94 346.32L398.8 346.15L393.8 345.97L388.94 345.76L384.2 345.52L379.61 345.26L375.15 344.97L370.82 344.64L366.64 344.29L362.59 343.9L358.69 343.48L354.93 343.02L351.3 342.52L347.83 341.99L344.49 341.41L341.3 340.8L338.26 340.14L335.36 339.43L332.62 338.69L330.02 337.89L327.57 337.04L325.27 336.15L323.12 335.2L321.13 334.21L319.29 333.15L317.6 332.04L316.07 330.88L314.7 329.66L313.49 328.37L312.43 327.03L311.53 325.62L310.78 324.19L310.16 322.78L309.66 321.37L309.29 319.99L309.04 318.63L308.91 317.29L308.9 315.98L309 314.69L309.21 313.44L309.53 312.21L309.95 311.02L310.48 309.87L311.1 308.75L311.83 307.68L312.64 306.64L313.55 305.66L314.54 304.72L315.62 303.83L316.78 302.99L318.03 302.2L319.35 301.47L320.74 300.8L322.2 300.19L323.74 299.65L325.34 299.17L327 298.75L328.72 298.41L330.5 298.13L332.34 297.93L334.22 297.81L336.16 297.76L338.14 297.79L340.16 297.91L342.23 298.11L342.24 298.12L342.13 297.71L341.88 296.6L341.7 295.47L341.6 294.33L341.56 293.18L341.6 292.03L341.7 290.9L341.88 289.77L342.13 288.66L342.44 287.56L342.81 286.48L343.26 285.41L343.76 284.36L344.32 283.33L344.95 282.32L345.63 281.33L346.37 280.36L347.17 279.41L348.02 278.48L348.92 277.58L349.88 276.7L350.88 275.85L351.94 275.02L353.04 274.22L354.18 273.44L355.38 272.7L356.61 271.99L357.89 271.3L359.2 270.65L360.56 270.03L361.95 269.45L363.38 268.9L364.85 268.38L366.35 267.9L367.88 267.46L369.44 267.05L371.03 266.69L372.65 266.36L374.29 266.07L375.96 265.83L377.65 265.63L379.37 265.47L381.11 265.36L382.86 265.29L384.64 265.26L386.41 265.29L388.17 265.36L389.91 265.47L391.62 265.63L393.32 265.83L394.98 266.07L396.63 266.36L398.25 266.69L399.84 267.05L401.4 267.46L402.93 267.9L404.43 268.38L405.89 268.9L407.32 269.45L408.72 270.03L410.07 270.65L411.39 271.3L412.67 271.99L413.9 272.7L415.09 273.44L416.24 274.22L417.34 275.02L418.39 275.85L419.4 276.7L420.35 277.58L421.26 278.48L422.11 279.41L422.9 280.36L423.64 281.33L424.33 282.32L424.64 282.83L424.95 282.32L425.64 281.33L426.38 280.36L427.17 279.41L428.02 278.48L428.93 277.58L429.88 276.7L430.89 275.85L431.94 275.02L433.04 274.22L434.19 273.44L435.38 272.7L436.62 271.99L437.89 271.3L439.21 270.65L440.57 270.03L441.96 269.45L443.39 268.9L444.85 268.38L446.35 267.9L447.88 267.46L449.44 267.05L451.03 266.69L452.65 266.36L454.3 266.07L455.97 265.83L457.66 265.63L459.38 265.47L461.11 265.36L462.87 265.29L464.64 265.26L466.42 265.29L468.17 265.36L469.91 265.47L471.63 265.63L473.32 265.83L474.99 266.07L476.63 266.36L478.25 266.69L479.84 267.05L481.4 267.46L482.93 267.9L484.43 268.38L485.9 268.9L487.33 269.45L488.72 270.03L490.08 270.65L491.39 271.3L492.67 271.99L493.9 272.7L495.1 273.44L496.24 274.22L497.34 275.02L498.4 275.85L499.4 276.7L500.36 277.58L501.26 278.48L502.11 279.41L502.91 280.36L503.65 281.33L504.33 282.32L504.96 283.33L505.2 283.78L505.44 283.33L506.07 282.32L506.75 281.33L507.49 280.36L508.29 279.41L509.14 278.48L510.04 277.58L511 276.7L512 275.85L513.06 275.02L514.16 274.22L515.3 273.44L516.5 272.7L517.73 271.99L519.01 271.3L520.32 270.65L521.68 270.03L523.07 269.45L524.5 268.9L525.97 268.38L527.47 267.9L529 267.46L530.56 267.05L532.15 266.69L533.77 266.36L535.41 266.07L537.08 265.83L538.77 265.63L540.49 265.47L542.23 265.36L543.98 265.29L545.76 265.26L547.53 265.29L549.29 265.36Z" id="deP81w5Zp"></path></defs><g><g><use xlink:href="#deP81w5Zp" opacity="1" fill="#ffffff" fill-opacity="1"></use></g></g></svg>