<?xml version="1.0" encoding="UTF-8" standalone="no"?>
<!DOCTYPE svg PUBLIC "-//W3C//DTD SVG 1.1//EN" "http://www.w3.org/Graphics/SVG/1.1/DTD/svg11.dtd">
<svg version="1.1" xmlns="http://www.w3.org/2000/svg" xmlns:xlink="http://www.w3.org/1999/xlink" preserveAspectRatio="xMidYMid meet" viewBox="60.45033230850232 394.06226609212524 502.21119728261317 207.1056171195537" width="502.21" height="207.11"><defs><path d="M529.22 402.08L557.04 402.08L532.31 445.01L504.49 445.01L529.22 402.08Z" id="aqHTXuzq4"></path><path d="M537.93 455.25L510.11 455.25L534.84 476.72L562.66 476.72L537.93 455.25Z" id="k1QLgyqd5L"></path><path d="M297.11 403.93L234.85 402.11L172.58 403.93L60.45 407.22L60.45 394.06L172.58 397.35L234.85 399.18L297.11 397.35L409.24 394.06L409.24 407.22L297.11 403.93Z" id="j774cYx1Pg"></path><path d="M238.64 404.32C238.64 408.92 236.94 412.66 234.84 412.66C232.75 412.66 231.05 408.92 231.05 404.32C231.05 399.71 232.75 395.97 234.84 395.97C236.94 395.97 238.64 399.71 238.64 404.32Z" id="a2fx30JDQS"></path><path d="M243.9 420.74C243.9 430.43 239.84 438.29 234.84 438.29C229.85 438.29 225.79 430.43 225.79 420.74C225.79 411.05 229.85 403.18 234.84 403.18C239.84 403.18 243.9 411.05 243.9 420.74Z" id="agR390J93"></path><path d="M288.49 446.06C288.49 459.65 264.45 470.69 234.84 470.69C205.23 470.69 181.2 459.65 181.2 446.06C181.2 432.46 205.23 421.42 234.84 421.42C264.45 421.42 288.49 432.46 288.49 446.06Z" id="aCMUgj3P"></path><path d="M536.21 436.02C541.73 435.81 546.36 440.12 546.56 445.64C546.64 447.98 546.54 445.01 546.62 447.35C546.82 453.06 542.74 458.02 537.1 458.91C495.45 465.49 378.44 483.98 336.3 490.64C331.7 491.37 327.07 489.52 324.22 485.83C317.93 477.66 303.69 459.16 297.4 450.99C295.47 448.48 297.18 444.84 300.34 444.72C349.51 442.9 487.52 437.81 536.21 436.02Z" id="e1K4nP5YH"></path><path d="M546.59 448.62L546.55 449.04L546.5 449.45L546.43 449.86L546.35 450.26L546.25 450.66L546.14 451.05L546.01 451.44L545.87 451.82L545.72 452.2L545.55 452.57L545.37 452.93L545.18 453.28L544.98 453.63L544.76 453.97L544.54 454.3L544.3 454.62L544.05 454.94L543.79 455.24L543.52 455.54L543.24 455.82L542.94 456.1L542.64 456.37L542.33 456.62L542.01 456.87L541.68 457.1L541.34 457.32L540.99 457.53L540.64 457.73L540.27 457.91L539.9 458.09L539.52 458.24L539.13 458.39L538.74 458.52L538.34 458.64L537.93 458.74L537.52 458.83L537.1 458.91L336.3 490.64L335.96 490.69L335.61 490.73L335.27 490.76L334.92 490.78L334.58 490.79L334.24 490.8L333.89 490.79L333.55 490.77L333.21 490.75L332.87 490.71L332.54 490.67L332.2 490.62L331.87 490.56L331.54 490.49L331.21 490.41L330.88 490.32L330.56 490.23L330.24 490.12L329.92 490.01L329.6 489.89L329.29 489.76L328.98 489.63L328.68 489.48L328.38 489.33L328.08 489.17L327.79 489L327.5 488.82L327.22 488.63L326.94 488.44L326.66 488.24L326.39 488.03L326.13 487.82L325.87 487.59L325.62 487.36L325.37 487.13L325.13 486.88L324.89 486.63L324.66 486.37L324.44 486.1L324.22 485.83L311.32 469.07L546.58 446.36L546.62 447.35L546.63 447.78L546.62 448.2L546.62 448.2L546.59 448.62Z" id="afptNj95y"></path><path d="M273.66 558.24C274.95 558.24 276 559.29 276 560.59C276 567.71 276 586.73 276 593.85C276 595.15 274.95 596.2 273.66 596.2C272.6 596.2 271.8 596.2 270.75 596.2C269.45 596.2 268.4 595.15 268.4 593.85C268.4 586.73 268.4 567.71 268.4 560.59C268.4 559.29 269.45 558.24 270.75 558.24C271.8 558.24 272.6 558.24 273.66 558.24Z" id="d2Py2fxvwK"></path><path d="M182.65 561.39C183.94 561.39 184.99 562.44 184.99 563.73C184.99 570.85 184.99 589.88 184.99 597C184.99 598.29 183.94 599.34 182.65 599.34C181.6 599.34 180.79 599.34 179.74 599.34C178.45 599.34 177.4 598.29 177.4 597C177.4 589.88 177.4 570.85 177.4 563.73C177.4 562.44 178.45 561.39 179.74 561.39C180.79 561.39 181.6 561.39 182.65 561.39Z" id="b1N5Sz2LxC"></path><path d="M128.55 593L138.55 593L148.35 593L157.97 593L167.39 593L176.62 593L185.65 593L194.49 593L203.14 593L211.6 593L219.86 593L227.93 593L235.81 593L243.5 593L250.99 593L258.29 593L265.39 593L272.31 593L279.03 593L285.55 593L291.89 593L298.03 593L303.98 593L309.73 593L315.29 593L320.66 593L325.84 593L330.83 593L335.62 593L340.21 593L344.62 593L348.83 593L352.85 593L356.68 593L360.31 593L363.75 593L367 593L370.05 593L372.91 593L375.58 593L375.75 593L375.92 593.01L376.08 593.03L376.25 593.05L376.41 593.08L376.56 593.11L376.72 593.16L376.87 593.2L377.03 593.26L377.17 593.32L377.32 593.38L377.46 593.45L377.6 593.53L377.74 593.61L377.87 593.69L378 593.78L378.12 593.88L378.24 593.98L378.36 594.08L378.47 594.19L378.58 594.31L378.69 594.42L378.79 594.54L378.88 594.67L378.97 594.8L379.06 594.93L379.14 595.06L379.21 595.2L379.28 595.35L379.35 595.49L379.41 595.64L379.46 595.79L379.51 595.94L379.55 596.1L379.59 596.26L379.62 596.42L379.64 596.58L379.66 596.75L379.67 596.91L379.67 597.08L379.67 597.25L379.66 597.42L379.64 597.58L379.62 597.74L379.59 597.91L379.55 598.06L379.51 598.22L379.46 598.37L379.41 598.52L379.35 598.67L379.28 598.82L379.21 598.96L379.14 599.1L379.06 599.23L378.97 599.37L378.88 599.49L378.79 599.62L378.69 599.74L378.58 599.86L378.47 599.97L378.36 600.08L378.24 600.18L378.12 600.28L378 600.38L377.87 600.47L377.74 600.56L377.6 600.64L377.46 600.71L377.32 600.78L377.17 600.85L377.03 600.91L376.87 600.96L376.72 601.01L376.56 601.05L376.41 601.08L376.25 601.11L376.08 601.14L375.92 601.15L375.75 601.16L375.58 601.17L372.9 601.17L370.02 601.17L366.95 601.17L363.68 601.17L360.22 601.17L356.57 601.17L352.72 601.17L348.68 601.17L344.44 601.17L340.01 601.17L335.39 601.17L330.57 601.17L325.56 601.17L320.35 601.17L314.95 601.17L309.36 601.17L303.57 601.17L297.59 601.17L291.41 601.17L285.04 601.17L278.48 601.17L271.72 601.17L264.77 601.17L257.62 601.17L250.28 601.17L242.75 601.17L235.02 601.17L227.1 601.17L218.98 601.17L210.67 601.17L202.16 601.17L193.47 601.17L184.57 601.17L175.49 601.17L166.21 601.17L156.73 601.17L147.06 601.17L137.2 601.17L127.15 601.17L116.9 601.17L115.22 600.57L113.58 599.99L111.97 599.42L110.39 598.86L108.85 598.31L107.33 597.78L105.85 597.25L104.4 596.73L102.98 596.23L101.59 595.74L100.24 595.26L98.91 594.79L97.62 594.33L96.36 593.88L95.13 593.44L93.93 593.02L92.77 592.61L91.63 592.2L90.53 591.81L89.46 591.43L88.42 591.06L87.41 590.71L86.43 590.36L85.49 590.02L84.58 589.7L83.7 589.39L82.85 589.09L82.03 588.8L81.24 588.52L80.49 588.25L79.76 587.99L79.07 587.75L78.41 587.51L77.79 587.29L77.19 587.08L76.63 586.88L76.09 586.69L75.59 586.51L75.12 586.35L74.68 586.19L74.53 586.13L74.37 586.06L74.22 585.99L74.07 585.92L73.93 585.83L73.79 585.75L73.66 585.66L73.53 585.56L73.4 585.46L73.28 585.35L73.16 585.24L73.05 585.13L72.94 585.01L72.84 584.89L72.74 584.76L72.65 584.64L72.56 584.5L72.48 584.37L72.4 584.23L72.33 584.09L72.26 583.95L72.2 583.8L72.15 583.65L72.1 583.5L72.05 583.35L72.01 583.2L71.98 583.04L71.95 582.88L71.93 582.73L71.92 582.57L71.91 582.41L71.91 582.24L71.91 582.08L71.92 581.92L71.94 581.76L71.96 581.59L71.99 581.43L72.03 581.27L72.07 581.11L72.12 580.94L72.14 580.87L72.16 580.81L72.18 580.75L72.2 580.7L72.21 580.66L72.23 580.62L72.24 580.58L72.25 580.55L72.26 580.53L72.27 580.5L72.27 580.49L72.28 580.47L72.28 580.46L72.28 580.45L72.29 580.44L72.29 580.44L72.29 580.43L72.29 580.43L72.29 580.43L72.29 580.42L72.29 580.42L72.29 580.42L72.3 580.41L72.3 580.41L72.3 580.4L72.3 580.4L72.3 580.39L72.31 580.37L72.31 580.36L72.32 580.34L72.33 580.32L72.34 580.29L72.35 580.26L72.36 580.23L72.37 580.19L72.39 580.14L72.4 580.09L72.42 580.03L72.44 579.97L72.47 579.9L72.52 579.74L72.58 579.59L72.65 579.44L72.72 579.3L72.8 579.16L72.88 579.02L72.97 578.89L73.07 578.76L73.16 578.64L73.27 578.52L73.37 578.4L73.48 578.29L73.6 578.19L73.72 578.09L73.84 578L73.97 577.91L74.1 577.82L74.23 577.74L74.36 577.67L74.5 577.6L74.64 577.53L74.78 577.48L74.93 577.42L75.08 577.38L75.23 577.34L75.38 577.3L75.53 577.27L75.68 577.25L75.84 577.23L75.99 577.22L76.15 577.22L76.31 577.22L76.47 577.23L76.62 577.24L76.78 577.27L76.94 577.29L77.1 577.33L77.26 577.37L77.41 577.42L77.57 577.48L77.99 577.64L78.45 577.81L78.93 577.99L79.45 578.19L79.99 578.4L80.57 578.62L81.18 578.85L81.81 579.09L82.48 579.34L83.18 579.61L83.91 579.89L84.67 580.18L85.46 580.48L86.28 580.79L87.13 581.11L88.01 581.45L88.92 581.8L89.87 582.15L90.84 582.53L91.85 582.91L92.88 583.3L93.95 583.71L95.04 584.12L96.17 584.55L97.33 584.99L98.51 585.45L99.73 585.91L100.98 586.38L102.26 586.87L103.57 587.37L104.91 587.88L106.28 588.4L107.68 588.94L109.12 589.48L110.58 590.04L112.07 590.61L113.6 591.19L115.15 591.78L116.74 592.38L118.35 593L118.35 593L128.55 593Z" id="daLZlADw9"></path><path d="M332.25 447.78C351.11 457.58 358.58 476.36 358.58 494.6C358.58 534.68 304.86 580.36 233.3 580.36C161.74 580.36 62.37 552.2 62.37 512.12C62.37 480.45 113.44 452.4 174.77 441.33C191.07 438.39 218.27 435.11 233.3 435.11C272.3 435.11 309.66 436.05 332.25 447.78Z" id="cCfayJtLQ"></path><path d="M345.05 530.8L342.79 533.69L340.38 536.55L337.81 539.35L335.1 542.1L332.23 544.8L329.22 547.44L326.07 550.01L322.78 552.51L319.36 554.94L315.8 557.29L312.12 559.55L308.32 561.72L304.39 563.8L300.35 565.78L296.19 567.65L291.92 569.42L287.55 571.07L283.07 572.6L278.49 574.01L273.81 575.29L269.04 576.44L264.18 577.45L259.23 578.32L254.2 579.05L249.09 579.62L243.9 580.03L238.64 580.28L233.3 580.36L227.89 580.31L222.38 580.16L216.79 579.9L211.13 579.54L205.41 579.08L199.65 578.52L193.86 577.86L188.05 577.12L182.22 576.27L176.4 575.34L170.6 574.31L164.82 573.2L159.08 572L153.4 570.71L147.77 569.34L142.22 567.89L136.76 566.35L131.39 564.74L126.14 563.04L121 561.27L116 559.43L111.15 557.51L106.46 555.52L101.93 553.46L97.59 551.33L93.44 549.13L89.5 546.86L85.77 544.54L82.27 542.14L79.02 539.69L76.02 537.18L73.28 534.61L70.82 531.98L68.65 529.3L67.39 527.45L347.42 527.45L347.14 527.87L345.05 530.8Z" id="c5rYMqdvU"></path><path d="M184.94 461.02C189.54 475.3 182.98 498.93 156.99 507.32C130.99 515.7 72.32 513.96 67.72 499.67C64.61 490.03 78.22 475.64 98.94 464.72C108.91 459.46 107.88 459.45 136.06 449.6C164.25 439.76 180.33 446.74 184.94 461.02Z" id="a1xA4fx8iN"></path><path d="M218.86 445.69C224.38 445.69 228.86 450.17 228.86 455.69C228.86 466.1 228.86 487.33 228.86 497.74C228.86 503.26 224.38 507.74 218.86 507.74C214.38 507.74 210.94 507.74 206.46 507.74C200.93 507.74 196.46 503.26 196.46 497.74C196.46 487.33 196.46 466.1 196.46 455.69C196.46 450.17 200.93 445.69 206.46 445.69C210.94 445.69 214.38 445.69 218.86 445.69Z" id="a2psTMruyU"></path><path d="M276.88 482.15C277.46 480.73 279.09 480.04 280.51 480.63C288.65 483.95 310.49 492.88 318.62 496.2C320.05 496.78 320.73 498.41 320.15 499.84C319.68 501 319.32 501.89 318.84 503.04C318.26 504.47 316.63 505.15 315.2 504.57C307.07 501.24 285.23 492.32 277.09 489C275.67 488.41 274.98 486.78 275.57 485.36C276.04 484.2 276.4 483.31 276.88 482.15Z" id="b4mo64RUFR"></path><path d="M285.42 467.72C286 466.29 287.63 465.61 289.05 466.19C297.19 469.52 319.03 478.44 327.16 481.77C328.59 482.35 329.27 483.98 328.69 485.4C328.22 486.56 327.86 487.45 327.38 488.61C326.8 490.03 325.17 490.72 323.74 490.13C315.61 486.81 293.77 477.89 285.63 474.56C284.21 473.98 283.52 472.35 284.11 470.92C284.58 469.77 284.94 468.88 285.42 467.72Z" id="h1OeM2Y6cX"></path></defs><g><g><g><use xlink:href="#aqHTXuzq4" opacity="1" fill="#992929" fill-opacity="1"></use></g><g><use xlink:href="#k1QLgyqd5L" opacity="1" fill="#992929" fill-opacity="1"></use></g><g><g><use xlink:href="#j774cYx1Pg" opacity="1" fill="#434c54" fill-opacity="1"></use></g><g><use xlink:href="#a2fx30JDQS" opacity="1" fill="#992929" fill-opacity="1"></use></g><g><use xlink:href="#agR390J93" opacity="1" fill="#434c54" fill-opacity="1"></use></g><g><use xlink:href="#aCMUgj3P" opacity="1" fill="#b93c3c" fill-opacity="1"></use></g></g><g><g><use xlink:href="#e1K4nP5YH" opacity="1" fill="#d84949" fill-opacity="1"></use></g><g><use xlink:href="#afptNj95y" opacity="1" fill="#b93c3c" fill-opacity="1"></use></g></g><g><g><use xlink:href="#d2Py2fxvwK" opacity="1" fill="#434c54" fill-opacity="1"></use></g><g><use xlink:href="#b1N5Sz2LxC" opacity="1" fill="#434c54" fill-opacity="1"></use></g><g><use xlink:href="#daLZlADw9" opacity="1" fill="#434c54" fill-opacity="1"></use></g></g><g><g><use xlink:href="#cCfayJtLQ" opacity="1" fill="#d84949" fill-opacity="1"></use></g><g><use xlink:href="#c5rYMqdvU" opacity="1" fill="#b93c3c" fill-opacity="1"></use></g></g><g><use xlink:href="#a1xA4fx8iN" opacity="1" fill="#992929" fill-opacity="1"></use></g><g><use xlink:href="#a2psTMruyU" opacity="1" fill="#992929" fill-opacity="1"></use></g><g><use xlink:href="#b4mo64RUFR" opacity="1" fill="#b93c3c" fill-opacity="1"></use></g><g><use xlink:href="#h1OeM2Y6cX" opacity="1" fill="#b93c3c" fill-opacity="1"></use></g></g></g></svg>