<?xml version="1.0" encoding="UTF-8" standalone="no"?>
<!DOCTYPE svg PUBLIC "-//W3C//DTD SVG 1.1//EN" "http://www.w3.org/Graphics/SVG/1.1/DTD/svg11.dtd">
<svg version="1.1" xmlns="http://www.w3.org/2000/svg" xmlns:xlink="http://www.w3.org/1999/xlink" preserveAspectRatio="xMidYMid meet" viewBox="160.97080291970815 190.89781021897815 318.8532767923987 312.7591240875911" width="314.85" height="308.76"><defs><path d="M329 192.41L335.23 193.04L341.38 193.92L347.45 195.04L353.43 196.39L359.33 197.97L365.12 199.77L370.82 201.8L376.42 204.04L381.9 206.49L387.27 209.14L392.52 211.99L397.65 215.04L402.64 218.28L407.5 221.7L412.22 225.3L416.8 229.08L421.22 233.02L425.49 237.14L429.6 241.41L433.55 245.83L437.33 250.41L440.93 255.13L444.35 259.99L447.59 264.98L450.63 270.11L453.49 275.36L454.26 276.93L472.29 266.52L474.56 318.49L476.82 370.45L432.95 342.51L389.08 314.56L405.26 305.22L404.41 303.5L402.62 300.2L400.7 296.98L398.67 293.84L396.51 290.78L394.25 287.82L391.87 284.94L389.39 282.16L386.81 279.47L384.12 276.88L381.34 274.4L378.46 272.03L375.49 269.76L372.44 267.61L369.3 265.58L366.07 263.66L362.77 261.86L359.4 260.2L355.95 258.66L352.43 257.25L348.85 255.97L345.2 254.84L341.49 253.85L337.73 253L333.91 252.29L330.05 251.74L326.13 251.34L322.17 251.1L318.18 251.02L314.18 251.1L310.22 251.34L306.3 251.74L302.44 252.29L298.62 253L294.86 253.85L291.15 254.84L287.5 255.97L283.92 257.25L280.4 258.66L276.95 260.2L273.58 261.86L270.28 263.66L267.05 265.58L263.91 267.61L260.86 269.76L257.89 272.03L255.01 274.4L252.23 276.88L249.54 279.47L246.96 282.16L244.48 284.94L242.1 287.82L239.84 290.78L237.68 293.84L235.65 296.98L233.73 300.2L231.94 303.5L230.27 306.88L228.73 310.33L227.32 313.85L226.05 317.43L224.91 321.08L223.92 324.78L223.07 328.55L222.37 332.36L221.81 336.23L221.42 340.14L221.18 344.1L221.09 348.1L221.18 352.1L221.42 356.06L221.81 359.97L222.37 363.84L223.07 367.66L223.92 371.42L224.91 375.13L226.05 378.77L227.32 382.36L228.73 385.88L230.27 389.32L231.94 392.7L233.73 396L235.65 399.22L237.68 402.36L239.84 405.42L242.1 408.39L244.48 411.27L246.96 414.05L249.54 416.73L252.23 419.32L255.01 421.8L257.89 424.18L260.86 426.44L263.91 428.59L267.05 430.63L270.28 432.55L273.58 434.34L276.95 436.01L280.4 437.55L283.92 438.96L287.5 440.23L291.15 441.37L294.86 442.36L298.62 443.21L302.44 443.91L306.3 444.46L310.22 444.86L314.18 445.1L318.18 445.18L322.17 445.1L326.13 444.86L330.05 444.46L333.91 443.91L337.73 443.21L341.49 442.36L345.2 441.37L348.85 440.23L352.43 438.96L355.95 437.55L359.4 436.01L362.77 434.34L366.07 432.55L369.3 430.63L372.44 428.59L375.49 426.44L378.46 424.18L381.34 421.8L381.99 421.23L418.06 462.35L416.8 463.48L412.22 467.25L407.5 470.85L402.64 474.28L397.65 477.51L392.52 480.56L387.27 483.41L381.9 486.07L376.42 488.52L370.82 490.76L365.12 492.78L359.33 494.59L353.43 496.17L347.45 497.52L341.38 498.63L335.23 499.51L329 500.14L322.71 500.53L316.35 500.66L309.99 500.53L303.7 500.14L297.47 499.51L291.32 498.63L285.25 497.52L279.27 496.17L273.38 494.59L267.58 492.78L261.88 490.76L256.28 488.52L250.8 486.07L245.43 483.41L240.18 480.56L235.06 477.51L230.06 474.28L225.2 470.85L220.48 467.25L215.91 463.48L211.48 459.53L207.21 455.42L203.1 451.15L199.15 446.72L195.38 442.15L191.77 437.43L188.35 432.57L185.11 427.57L182.07 422.45L179.21 417.2L176.56 411.83L174.11 406.34L171.87 400.75L169.85 395.05L168.04 389.25L166.46 383.36L165.11 377.37L163.99 371.3L163.12 365.16L162.48 358.93L162.1 352.64L161.97 346.28L162.1 339.92L162.48 333.62L163.12 327.4L163.99 321.25L165.11 315.18L166.46 309.2L168.04 303.3L169.85 297.5L171.87 291.8L174.11 286.21L176.56 280.73L179.21 275.36L182.07 270.11L185.11 264.98L188.35 259.99L191.77 255.13L195.38 250.41L199.15 245.83L203.1 241.41L207.21 237.14L211.48 233.02L215.91 229.08L220.48 225.3L225.2 221.7L230.06 218.28L235.06 215.04L240.18 211.99L245.43 209.14L250.8 206.49L256.28 204.04L261.88 201.8L267.58 199.77L273.38 197.97L279.27 196.39L285.25 195.04L291.32 193.92L297.47 193.04L303.7 192.41L309.99 192.03L316.35 191.9L322.71 192.03L329 192.41Z" id="ax0YPMauD"></path></defs><g><g><use xlink:href="#ax0YPMauD" opacity="1" fill="#ffffff" fill-opacity="1"></use></g></g></svg>